<?xml version="1.0" encoding="utf-8"?>
<!-- Generator: Adobe Illustrator 24.1.1, SVG Export Plug-In . SVG Version: 6.00 Build 0)  -->
<svg version="1.1" id="Layer_1" xmlns="http://www.w3.org/2000/svg" xmlns:xlink="http://www.w3.org/1999/xlink" x="0px" y="0px"
	 width="55px" height="55px" viewBox="0 0 55 55" enable-background="new 0 0 55 55" xml:space="preserve">
<g>
	<path fill="#333333" d="M51.25,0H3.75C2.47,0,1.42,1.13,1.42,2.51v46.8c0,1.38,1.05,2.51,2.33,2.51h1.93
		c0.49,0,0.88-0.42,0.88-0.94c0-0.52-0.4-0.94-0.88-0.94H3.75c-0.31,0-0.57-0.28-0.57-0.63V2.51c0-0.35,0.25-0.63,0.57-0.63h47.49
		c0.31,0,0.57,0.28,0.57,0.63v15.32c0,0.03,0.01,0.06,0.01,0.07v31.44c0,0.34-0.25,0.62-0.56,0.62H31.29
		c-0.48,0-0.88,0.42-0.88,0.93c0,0.51,0.39,0.93,0.88,0.93h19.98c1.28,0,2.31-1.11,2.31-2.48V2.51C53.58,1.13,52.53,0,51.25,0z"/>
	<path fill="#333333" d="M30.55,33.93c0-1.21-0.89-2.2-1.99-2.2h-0.27H8.13c-1.1,0-1.99,0.99-1.99,2.2c0,1.21,0.89,2.2,1.99,2.2
		h1.26L7.76,53c-0.05,0.51,0.09,0.99,0.4,1.37C8.49,54.77,8.97,55,9.49,55h18.16c0.52,0,1-0.23,1.32-0.63
		c0.31-0.38,0.45-0.86,0.4-1.37l-1.63-16.87h0.82C29.66,36.13,30.55,35.14,30.55,33.93z M8.13,34.53c-0.3,0-0.55-0.27-0.55-0.6
		c0-0.33,0.24-0.6,0.55-0.6h1.54l-0.12,1.21H8.13z M9.49,53.4c-0.11,0-0.2-0.04-0.25-0.1c-0.03-0.04-0.05-0.08-0.04-0.13l1.92-19.85
		h8.12l0.92,20.08H9.49z M21.6,53.4l-0.93-20.08h1.79L23.9,53.4H21.6z M27.94,53.17c0.01,0.05-0.01,0.09-0.04,0.13
		c-0.05,0.06-0.14,0.1-0.25,0.1h-2.3l-1.44-20.08h2.1L27.94,53.17z M27.59,34.53l-0.12-1.21h1.09c0.3,0,0.55,0.27,0.55,0.6
		c0,0.33-0.24,0.6-0.55,0.6H27.59z"/>
	<path fill="#00A25A" d="M46.78,4.99H8.22C7,4.99,6,6.04,6,7.33v17.21c0,1.29,1,2.34,2.22,2.34h38.56c1.23,0,2.23-1.05,2.23-2.34
		V7.33C49,6.04,48,4.99,46.78,4.99z M7.73,7.33c0-0.29,0.22-0.53,0.49-0.53h38.56c0.27,0,0.49,0.24,0.49,0.53v17.21
		c0,0.29-0.22,0.53-0.49,0.53H8.22c-0.27,0-0.49-0.24-0.49-0.53V7.33z"/>
	<g>
		<path fill="#333333" d="M38.76,38.87h-3.49c-0.8,0-1.46-0.66-1.46-1.46v-3.49c0-0.8,0.66-1.46,1.46-1.46h3.49
			c0.8,0,1.46,0.66,1.46,1.46v3.49C40.22,38.21,39.57,38.87,38.76,38.87z M35.27,33.83c-0.05,0-0.09,0.04-0.09,0.09v3.49
			c0,0.05,0.04,0.09,0.09,0.09h3.49c0.05,0,0.09-0.04,0.09-0.09v-3.49c0-0.05-0.04-0.09-0.09-0.09H35.27z"/>
	</g>
	<g>
		<path fill="#333333" d="M46.76,38.87h-3.49c-0.8,0-1.46-0.66-1.46-1.46v-3.49c0-0.8,0.66-1.46,1.46-1.46h3.49
			c0.8,0,1.46,0.66,1.46,1.46v3.49C48.22,38.21,47.57,38.87,46.76,38.87z M43.27,33.83c-0.05,0-0.09,0.04-0.09,0.09v3.49
			c0,0.05,0.04,0.09,0.09,0.09h3.49c0.05,0,0.09-0.04,0.09-0.09v-3.49c0-0.05-0.04-0.09-0.09-0.09H43.27z"/>
	</g>
	<g>
		<path fill="#333333" d="M38.76,46.87h-3.49c-0.8,0-1.46-0.66-1.46-1.46v-3.49c0-0.8,0.66-1.46,1.46-1.46h3.49
			c0.8,0,1.46,0.66,1.46,1.46v3.49C40.22,46.21,39.57,46.87,38.76,46.87z M35.27,41.83c-0.05,0-0.09,0.04-0.09,0.09v3.49
			c0,0.05,0.04,0.09,0.09,0.09h3.49c0.05,0,0.09-0.04,0.09-0.09v-3.49c0-0.05-0.04-0.09-0.09-0.09H35.27z"/>
	</g>
	<g>
		<path fill="#333333" d="M46.76,46.87h-3.49c-0.8,0-1.46-0.66-1.46-1.46v-3.49c0-0.8,0.66-1.46,1.46-1.46h3.49
			c0.8,0,1.46,0.66,1.46,1.46v3.49C48.22,46.21,47.57,46.87,46.76,46.87z M43.27,41.83c-0.05,0-0.09,0.04-0.09,0.09v3.49
			c0,0.05,0.04,0.09,0.09,0.09h3.49c0.05,0,0.09-0.04,0.09-0.09v-3.49c0-0.05-0.04-0.09-0.09-0.09H43.27z"/>
	</g>
	<g>
		<path fill="#00A25A" d="M19.41,18.85h-3.57l-0.54,1.61h-1.91l3.14-8.96h2.19l3.15,8.96h-1.92L19.41,18.85z M18.86,17.2l-1.23-3.66
			L16.4,17.2H18.86z"/>
		<path fill="#00A25A" d="M29.93,13.19h-2.42v7.27h-1.77v-7.27h-2.41V11.5h6.6V13.19z"/>
		<path fill="#00A25A" d="M41.61,20.47h-1.75v-5.81l-2.52,4.16h-0.2l-2.52-4.15v5.8h-1.77V11.5h1.82l2.57,4.24l2.56-4.24h1.82V20.47
			z"/>
	</g>
</g>
</svg>
