<?xml version="1.0" encoding="utf-8"?>
<!-- Generator: Adobe Illustrator 24.2.3, SVG Export Plug-In . SVG Version: 6.00 Build 0)  -->
<svg version="1.1" id="Layer_1" xmlns="http://www.w3.org/2000/svg" xmlns:xlink="http://www.w3.org/1999/xlink" x="0px" y="0px"
	 width="59px" height="59px" viewBox="0 0 59 59" enable-background="new 0 0 59 59" xml:space="preserve">
<g>
	<g>
		<polygon fill="#00A159" points="34.66,9.6 31.31,9.6 31.31,6.24 28.62,6.24 28.62,9.6 25.27,9.6 25.27,12.29 28.62,12.29 
			28.62,15.64 31.31,15.64 31.31,12.29 34.66,12.29 		"/>
		<polygon fill="#00A159" points="45.65,3.51 42.63,3.51 42.63,0.5 40.22,0.5 40.22,3.51 37.2,3.51 37.2,5.93 40.22,5.93 
			40.22,8.94 42.63,8.94 42.63,5.93 45.65,5.93 		"/>
		<g>
			<rect x="13.35" y="5.33" fill="#00A159" width="6.04" height="1.73"/>
		</g>
		<g>
			<rect x="15.51" y="3.18" fill="#00A159" width="1.73" height="6.04"/>
		</g>
	</g>
	<g>
		<g>
			<g>
				<path fill="#333333" d="M53.18,58.5H3.73c-1.19,0-2.16-0.97-2.16-2.16v-35.1c0-1.19,0.97-2.16,2.16-2.16h49.45
					c1.19,0,2.16,0.97,2.16,2.16v11.78H53.9V21.25c0-0.4-0.32-0.72-0.72-0.72H3.73c-0.4,0-0.72,0.32-0.72,0.72v35.1
					c0,0.4,0.32,0.72,0.72,0.72h49.45c0.4,0,0.72-0.32,0.72-0.72V44.4h1.44v11.94C55.34,57.53,54.37,58.5,53.18,58.5z"/>
			</g>
			<g>
				<path fill="#333333" d="M55.27,45.12H41.1c-1.19,0-2.16-0.97-2.16-2.16v-8.5c0-1.19,0.97-2.16,2.16-2.16h14.17
					c1.19,0,2.16,0.97,2.16,2.16v8.5C57.43,44.15,56.46,45.12,55.27,45.12z M41.1,33.75c-0.4,0-0.72,0.32-0.72,0.72v8.5
					c0,0.4,0.32,0.72,0.72,0.72h14.17c0.4,0,0.72-0.32,0.72-0.72v-8.5c0-0.4-0.32-0.72-0.72-0.72H41.1z"/>
			</g>
			<g>
				<path fill="#333333" d="M46.1,42.44c-1.98,0-3.6-1.61-3.6-3.6s1.61-3.6,3.6-3.6s3.6,1.61,3.6,3.6S48.09,42.44,46.1,42.44z
					 M46.1,36.68c-1.19,0-2.16,0.97-2.16,2.16c0,1.19,0.97,2.16,2.16,2.16c1.19,0,2.16-0.97,2.16-2.16
					C48.26,37.65,47.3,36.68,46.1,36.68z"/>
			</g>
			<g>
				<path fill="#00A159" d="M18.19,49.35H6.79c-0.4,0-0.72-0.32-0.72-0.72s0.32-0.72,0.72-0.72h11.4c0.4,0,0.72,0.32,0.72,0.72
					S18.59,49.35,18.19,49.35z"/>
			</g>
			<g>
				<path fill="#00A159" d="M26.35,53.52H6.79c-0.4,0-0.72-0.32-0.72-0.72s0.32-0.72,0.72-0.72h19.56c0.4,0,0.72,0.32,0.72,0.72
					S26.75,53.52,26.35,53.52z"/>
			</g>
		</g>
		<path fill="#00A159" d="M7.81,25.49H6.32c-0.14,0-0.25-0.11-0.25-0.25v-1.49c0-0.14,0.11-0.25,0.25-0.25h1.49
			c0.14,0,0.25,0.11,0.25,0.25v1.49C8.06,25.38,7.95,25.49,7.81,25.49z"/>
		<path fill="#00A159" d="M11.75,25.49h-1.49c-0.14,0-0.25-0.11-0.25-0.25v-1.49c0-0.14,0.11-0.25,0.25-0.25h1.49
			c0.14,0,0.25,0.11,0.25,0.25v1.49C11.99,25.38,11.88,25.49,11.75,25.49z"/>
		<path fill="#00A159" d="M15.68,25.49h-1.49c-0.14,0-0.25-0.11-0.25-0.25v-1.49c0-0.14,0.11-0.25,0.25-0.25h1.49
			c0.14,0,0.25,0.11,0.25,0.25v1.49C15.92,25.38,15.81,25.49,15.68,25.49z"/>
		<path fill="#00A159" d="M19.61,25.49h-1.49c-0.14,0-0.25-0.11-0.25-0.25v-1.49c0-0.14,0.11-0.25,0.25-0.25h1.49
			c0.14,0,0.25,0.11,0.25,0.25v1.49C19.86,25.38,19.74,25.49,19.61,25.49z"/>
		<path fill="#00A159" d="M23.54,25.49h-1.49c-0.14,0-0.25-0.11-0.25-0.25v-1.49c0-0.14,0.11-0.25,0.25-0.25h1.49
			c0.14,0,0.25,0.11,0.25,0.25v1.49C23.79,25.38,23.68,25.49,23.54,25.49z"/>
		<path fill="#00A159" d="M27.47,25.49h-1.49c-0.14,0-0.25-0.11-0.25-0.25v-1.49c0-0.14,0.11-0.25,0.25-0.25h1.49
			c0.14,0,0.25,0.11,0.25,0.25v1.49C27.72,25.38,27.61,25.49,27.47,25.49z"/>
		<path fill="#00A159" d="M31.4,25.49h-1.49c-0.14,0-0.25-0.11-0.25-0.25v-1.49c0-0.14,0.11-0.25,0.25-0.25h1.49
			c0.14,0,0.25,0.11,0.25,0.25v1.49C31.65,25.38,31.54,25.49,31.4,25.49z"/>
		<path fill="#00A159" d="M35.33,25.49h-1.49c-0.14,0-0.25-0.11-0.25-0.25v-1.49c0-0.14,0.11-0.25,0.25-0.25h1.49
			c0.14,0,0.25,0.11,0.25,0.25v1.49C35.58,25.38,35.47,25.49,35.33,25.49z"/>
		<path fill="#00A159" d="M39.26,25.49h-1.49c-0.14,0-0.25-0.11-0.25-0.25v-1.49c0-0.14,0.11-0.25,0.25-0.25h1.49
			c0.14,0,0.25,0.11,0.25,0.25v1.49C39.51,25.38,39.4,25.49,39.26,25.49z"/>
		<path fill="#00A159" d="M43.2,25.49H41.7c-0.14,0-0.25-0.11-0.25-0.25v-1.49c0-0.14,0.11-0.25,0.25-0.25h1.49
			c0.14,0,0.25,0.11,0.25,0.25v1.49C43.44,25.38,43.33,25.49,43.2,25.49z"/>
		<path fill="#00A159" d="M47.13,25.49h-1.49c-0.14,0-0.25-0.11-0.25-0.25v-1.49c0-0.14,0.11-0.25,0.25-0.25h1.49
			c0.14,0,0.25,0.11,0.25,0.25v1.49C47.37,25.38,47.26,25.49,47.13,25.49z"/>
		<path fill="#00A159" d="M51.06,25.49h-1.49c-0.14,0-0.25-0.11-0.25-0.25v-1.49c0-0.14,0.11-0.25,0.25-0.25h1.49
			c0.14,0,0.25,0.11,0.25,0.25v1.49C51.3,25.38,51.19,25.49,51.06,25.49z"/>
	</g>
</g>
</svg>
