<?xml version="1.0" encoding="utf-8"?>
<!-- Generator: Adobe Illustrator 24.2.3, SVG Export Plug-In . SVG Version: 6.00 Build 0)  -->
<svg version="1.1" id="Layer_1" xmlns="http://www.w3.org/2000/svg" xmlns:xlink="http://www.w3.org/1999/xlink" x="0px" y="0px"
	 width="59px" height="59px" viewBox="0 0 59 59" enable-background="new 0 0 59 59" xml:space="preserve">
<g>
	<g>
		<g>
			<path fill="#333333" d="M6.14,50.62c-2.79,0-5.06-2.28-5.07-5.06V9.77c0-2.79,2.27-5.06,5.07-5.06h7.56l0-1.12
				c0-1.29,0.76-2.54,1.99-2.94c2.04-0.66,3.93,0.86,3.93,2.8v1.25h15.13l0-1.12c0-1.29,0.76-2.54,1.99-2.93
				c2.04-0.66,3.93,0.86,3.93,2.8v1.25h7.56c2.79,0,5.06,2.27,5.07,5.06v14.54H51.6v-9.47H2.79v30.72c0,1.85,1.51,3.35,3.35,3.35
				h20.85v1.71H6.14z M6.14,6.42c-1.85,0-3.35,1.5-3.35,3.35v3.35H51.6V9.77c0-1.85-1.5-3.35-3.35-3.35h-7.56v1.12
				c0,1.29-0.76,2.54-1.99,2.94c-2.04,0.66-3.93-0.86-3.93-2.8V6.42H19.63l0,1.12c0,1.29-0.76,2.54-1.99,2.94
				c-2.04,0.66-3.93-0.86-3.93-2.8V6.42H6.14z M37.72,2.21c-0.69,0-1.25,0.56-1.25,1.25v4.21c0,0.69,0.56,1.25,1.25,1.25
				c0.69,0,1.25-0.56,1.25-1.25V3.46C38.97,2.77,38.41,2.21,37.72,2.21z M16.67,2.21c-0.69,0-1.25,0.56-1.25,1.25v4.21
				c0,0.69,0.56,1.25,1.25,1.25c0.69,0,1.25-0.56,1.25-1.25V3.46C17.92,2.77,17.36,2.21,16.67,2.21z"/>
		</g>
		<g>
			<path fill="#333333" d="M9.3,29.57c-1.05,0-1.91-0.85-1.91-1.91v-4.21c0-1.05,0.85-1.91,1.91-1.91h4.21
				c1.05,0,1.91,0.85,1.91,1.91v4.21c0,1.05-0.85,1.91-1.91,1.91H9.3z M9.1,27.86h4.6v-4.6H9.1V27.86z"/>
		</g>
		<g>
			<path fill="#333333" d="M19.83,29.57c-1.05,0-1.91-0.85-1.91-1.91v-4.21c0-1.05,0.85-1.91,1.91-1.91h4.21
				c1.05,0,1.91,0.85,1.91,1.91v4.21c0,1.05-0.85,1.91-1.91,1.91H19.83z M19.63,27.86h4.6v-4.6h-4.6V27.86z"/>
		</g>
		<g>
			<path fill="#333333" d="M30.35,29.57c-1.05,0-1.91-0.85-1.91-1.91v-4.21c0-1.05,0.85-1.91,1.91-1.91h4.21
				c1.05,0,1.91,0.85,1.91,1.91v4.21c0,1.05-0.85,1.91-1.91,1.91H30.35z M30.15,27.86h4.6v-4.6h-4.6V27.86z"/>
		</g>
		<g>
			<path fill="#333333" d="M30.35,29.57c-1.05,0-1.91-0.85-1.91-1.91v-4.21c0-1.05,0.85-1.91,1.91-1.91h4.21
				c1.05,0,1.91,0.85,1.91,1.91v2.96h-1.71v-3.16h-4.61v4.6h2.11v1.71H30.35z"/>
		</g>
		<g>
			<path fill="#333333" d="M9.3,42.2c-1.05,0-1.91-0.85-1.91-1.91v-4.21c0-1.05,0.85-1.91,1.91-1.91h4.21
				c1.05,0,1.91,0.85,1.91,1.91v4.21c0,1.05-0.85,1.91-1.91,1.91H9.3z M9.1,40.49h4.6v-4.6H9.1V40.49z"/>
		</g>
		<g>
			<path fill="#333333" d="M19.83,42.2c-1.05,0-1.91-0.85-1.91-1.91v-4.21c0-1.05,0.85-1.91,1.91-1.91h4.21
				c1.05,0,1.91,0.85,1.91,1.91v4.21c0,1.05-0.85,1.91-1.91,1.91H19.83z M19.63,40.49h4.6v-4.6h-4.6V40.49z"/>
		</g>
		<g>
			<path fill="#333333" d="M45.28,24.31v-1.05h-4.6v1.05h-1.71v-0.85c0-1.05,0.86-1.91,1.91-1.91h4.21c1.05,0,1.91,0.86,1.91,1.91
				v0.85H45.28z"/>
		</g>
	</g>
	<path fill="#00A159" d="M54.5,39.46h-0.85v-3.9c0-4.58-3.72-8.3-8.3-8.3s-8.3,3.72-8.3,8.3v3.9H36.2c-1.88,0-3.42,1.53-3.42,3.42
		v12.2c0,1.88,1.53,3.42,3.42,3.42h18.3c1.88,0,3.42-1.53,3.42-3.42v-12.2C57.92,41,56.39,39.46,54.5,39.46z M39.01,35.56
		c0-3.5,2.85-6.35,6.35-6.35c3.5,0,6.35,2.85,6.35,6.35v3.9H39.01V35.56z M55.97,55.08c0,0.81-0.66,1.46-1.46,1.46H36.2
		c-0.81,0-1.46-0.66-1.46-1.46v-12.2c0-0.81,0.66-1.46,1.46-1.46h18.3c0.81,0,1.46,0.66,1.46,1.46V55.08z"/>
	<path fill="#00A159" d="M45.35,45.32c-1.01,0-1.83,0.82-1.83,1.83c0,0.65,0.34,1.22,0.85,1.54v3.34c0,0.54,0.44,0.98,0.98,0.98
		c0.54,0,0.98-0.44,0.98-0.98V48.7c0.51-0.33,0.85-0.89,0.85-1.54C47.18,46.14,46.36,45.32,45.35,45.32z"/>
</g>
</svg>
