<?xml version="1.0" encoding="utf-8"?>
<!-- Generator: Adobe Illustrator 24.2.3, SVG Export Plug-In . SVG Version: 6.00 Build 0)  -->
<svg version="1.1" id="Layer_1" xmlns="http://www.w3.org/2000/svg" xmlns:xlink="http://www.w3.org/1999/xlink" x="0px" y="0px"
	 width="59px" height="59px" viewBox="0 0 59 59" enable-background="new 0 0 59 59" xml:space="preserve">
<g>
	<g>
		<path fill="#333333" d="M55.29,28.22L55.29,28.22l-9.03-7.74V9.39c0,0,0,0,0,0h-7.37v4.76L28.47,5.21
			c-0.14-0.12-0.31-0.19-0.5-0.19s-0.36,0.07-0.5,0.19L0.76,28.13c-0.15,0.13-0.24,0.31-0.26,0.51c-0.02,0.2,0.05,0.39,0.18,0.54
			c0.14,0.17,0.35,0.26,0.58,0.26c0,0,8.42,0,8.42,0v22.28c0,0,0,0,0,0h7.56h1.38h0c0,0,0,0,0,0c0.41,0,0.74-0.33,0.74-0.74
			c0-0.41-0.33-0.74-0.74-0.74h-0.33h-1.05h-6.07V27.95H3.25L27.97,6.78l24.72,21.17h-7.91v3.32V32v0.38c0,0.02,0,0.05,0.01,0.07
			c0,0.02,0,0.05,0,0.08h0.01c0.07,0.34,0.37,0.6,0.74,0.6c0.42,0,0.75-0.34,0.75-0.75v-1.11c0-0.05-0.01-0.1-0.02-0.15v-1.68h8.46
			c0.4,0,0.74-0.33,0.74-0.73C55.46,28.53,55.4,28.36,55.29,28.22z M44.77,19.21l-4.39-3.77v-4.56h4.39V19.21z"/>
	</g>
	<g>
		<path fill="#00A259" d="M39.64,37.28c-3.5,0-6.35,2.84-6.35,6.35c0,3.5,2.84,6.34,6.35,6.35c3.51,0,6.35-2.84,6.35-6.35
			C45.99,40.13,43.15,37.28,39.64,37.28 M39.64,48.82c-2.86,0-5.18-2.31-5.19-5.17c-0.01-2.82,2.4-5.23,5.22-5.22
			c2.85,0.02,5.16,2.34,5.16,5.19C44.83,46.5,42.51,48.82,39.64,48.82"/>
		<path fill="#00A259" d="M39.64,50.13c-3.58,0-6.5-2.92-6.5-6.5c0-3.59,2.92-6.5,6.5-6.5s6.5,2.92,6.5,6.5S43.23,50.13,39.64,50.13
			z M39.64,37.44c-3.41,0-6.19,2.78-6.19,6.19c0,3.41,2.78,6.19,6.19,6.19c3.41,0,6.19-2.78,6.19-6.19S43.06,37.44,39.64,37.44z
			 M39.64,48.98c-2.93,0-5.33-2.39-5.35-5.32c-0.01-1.39,0.57-2.77,1.59-3.78c1.01-1.01,2.38-1.59,3.76-1.59c0.01,0,0.02,0,0.03,0
			c2.93,0.02,5.31,2.42,5.31,5.35C44.99,46.58,42.59,48.98,39.64,48.98z M39.65,38.59c-1.3,0-2.58,0.54-3.54,1.5
			c-0.96,0.96-1.51,2.26-1.5,3.56c0.01,2.76,2.27,5.01,5.04,5.01c2.78,0,5.04-2.26,5.04-5.04c0-2.76-2.25-5.02-5.01-5.04
			C39.66,38.59,39.66,38.59,39.65,38.59z"/>
	</g>
	<g>
		<path fill="#00A259" d="M33.88,48.78h-5.44c-0.01,0-0.02,0-0.02-0.01l-2.57-2.81c0-0.01-0.01-0.01-0.01-0.02v-4.67
			c0-0.01,0-0.01,0.01-0.02l2.84-2.77c0.01,0,0.01-0.01,0.02-0.01h5.17c0.34,0,0.62-0.28,0.62-0.62c0-0.34-0.28-0.62-0.62-0.62
			h-5.42c-0.17,0-0.33,0.07-0.45,0.18l-3.21,3.13c-0.12,0.14-0.19,0.32-0.19,0.5v5.12c0,0.16,0.06,0.31,0.17,0.43l2.91,3.19
			c0.12,0.13,0.3,0.21,0.48,0.21h5.71c0.34,0,0.62-0.28,0.62-0.62C34.49,49.06,34.22,48.78,33.88,48.78"/>
		<path fill="#00A259" d="M33.88,50.17h-5.71c-0.22,0-0.44-0.1-0.59-0.26l-2.91-3.19c-0.13-0.15-0.21-0.34-0.21-0.54v-5.12
			c0-0.22,0.08-0.43,0.22-0.61l3.22-3.14c0.15-0.15,0.35-0.23,0.56-0.23h5.42c0.43,0,0.77,0.35,0.77,0.77s-0.35,0.77-0.77,0.77
			h-5.12L26,41.33v4.56l2.5,2.73h5.38c0.43,0,0.77,0.35,0.77,0.77C34.65,49.83,34.3,50.17,33.88,50.17z M28.45,37.4
			c-0.13,0-0.25,0.05-0.34,0.14l-3.21,3.13c-0.09,0.1-0.14,0.25-0.14,0.39v5.12c0,0.12,0.05,0.24,0.13,0.33l2.91,3.19
			c0.09,0.1,0.23,0.16,0.36,0.16h5.71c0.26,0,0.46-0.21,0.46-0.46c0-0.25-0.21-0.46-0.46-0.46h-5.51l-0.07-0.06l-2.61-2.85
			l-0.01-0.08v-4.73l0.05-0.07l2.88-2.82l0.08-0.01h5.17c0.26,0,0.46-0.21,0.46-0.46s-0.21-0.46-0.46-0.46H28.45z"/>
	</g>
	<g>
		<path fill="#00A259" d="M46.13,48.78h5.44c0.01,0,0.02,0,0.02-0.01l2.57-2.81c0-0.01,0.01-0.01,0.01-0.02v-4.67
			c0-0.01,0-0.01-0.01-0.02l-2.84-2.77c-0.01,0-0.01-0.01-0.02-0.01h-5.17c-0.34,0-0.62-0.28-0.62-0.62c0-0.34,0.28-0.62,0.62-0.62
			h5.42c0.17,0,0.33,0.07,0.45,0.18l3.21,3.13c0.12,0.14,0.19,0.32,0.19,0.5v5.12c0,0.16-0.06,0.31-0.17,0.43l-2.91,3.19
			c-0.12,0.13-0.3,0.21-0.48,0.21h-5.71c-0.34,0-0.62-0.28-0.62-0.62C45.51,49.06,45.79,48.78,46.13,48.78"/>
		<path fill="#00A259" d="M51.84,50.17h-5.71c-0.43,0-0.78-0.35-0.78-0.77c0-0.43,0.35-0.77,0.78-0.77h5.38l2.5-2.73v-4.56
			l-2.76-2.7h-5.12c-0.43,0-0.78-0.35-0.78-0.77s0.35-0.77,0.78-0.77h5.42c0.21,0,0.41,0.08,0.56,0.23l3.21,3.13
			c0.15,0.18,0.23,0.4,0.23,0.62v5.12c0,0.2-0.07,0.39-0.21,0.54l-2.91,3.19C52.28,50.08,52.07,50.17,51.84,50.17z M46.13,48.94
			c-0.26,0-0.46,0.21-0.46,0.46c0,0.25,0.21,0.46,0.46,0.46h5.71c0.14,0,0.27-0.06,0.36-0.16l2.91-3.19
			c0.08-0.09,0.13-0.21,0.13-0.33v-5.12c0-0.15-0.05-0.29-0.15-0.4l-3.2-3.12c-0.09-0.09-0.21-0.14-0.34-0.14h-5.42
			c-0.26,0-0.46,0.21-0.46,0.46s0.21,0.46,0.46,0.46h5.24l0.06,0.05l2.88,2.81l0.01,0.09V46l-0.05,0.06l-2.62,2.86l-0.09,0.01H46.13
			z"/>
	</g>
	<g>
		<g>
			<g>
				<path fill="#00A259" d="M56.99,53.85H21.62c-0.76,0-1.39-0.62-1.39-1.39V35.44c0-0.76,0.62-1.39,1.39-1.39h35.37
					c0.76,0,1.39,0.62,1.39,1.39v17.02C58.38,53.23,57.75,53.85,56.99,53.85z M21.62,35.31c-0.08,0-0.14,0.06-0.14,0.14v17.02
					c0,0.08,0.06,0.14,0.14,0.14h35.37c0.08,0,0.14-0.06,0.14-0.14V35.44c0-0.08-0.06-0.14-0.14-0.14H21.62z"/>
				<path fill="#00A259" d="M56.99,53.98H21.62c-0.83,0-1.51-0.68-1.51-1.51V35.44c0-0.83,0.68-1.51,1.51-1.51h35.37
					c0.83,0,1.51,0.68,1.51,1.51v17.02C58.5,53.3,57.82,53.98,56.99,53.98z M21.62,34.18c-0.7,0-1.26,0.57-1.26,1.26v17.02
					c0,0.7,0.57,1.26,1.26,1.26h35.37c0.7,0,1.26-0.57,1.26-1.26V35.44c0-0.7-0.57-1.26-1.26-1.26H21.62z M56.99,52.73H21.62
					c-0.15,0-0.26-0.12-0.26-0.26V35.44c0-0.15,0.12-0.26,0.26-0.26h35.37c0.15,0,0.26,0.12,0.26,0.26v17.02
					C57.25,52.61,57.13,52.73,56.99,52.73z M21.62,35.43c-0.01,0-0.01,0.01-0.01,0.01v17.02l35.38,0.01L57,35.44L21.62,35.43z"/>
			</g>
		</g>
	</g>
	<g>
		<path fill="#00A259" d="M38.31,43.85h-0.66v1.52h-0.86v-4.37h1.75c0.81,0,1.46,0.65,1.46,1.45c0,0.55-0.34,1.04-0.84,1.27
			l0.97,1.65h-0.93L38.31,43.85z M37.66,43.09h0.89c0.32,0,0.59-0.29,0.59-0.65c0-0.36-0.27-0.64-0.59-0.64h-0.89V43.09z"/>
		<path fill="#00A259" d="M42.82,44.45c0,0.67-0.59,1-1.26,1c-0.62,0-1.09-0.26-1.31-0.74l0.7-0.39c0.09,0.26,0.3,0.41,0.61,0.41
			c0.26,0,0.43-0.09,0.43-0.27c0-0.46-1.61-0.21-1.61-1.31c0-0.64,0.54-0.99,1.19-0.99c0.51,0,0.94,0.23,1.19,0.66l-0.69,0.37
			c-0.09-0.2-0.27-0.32-0.5-0.32c-0.2,0-0.36,0.09-0.36,0.26C41.21,43.59,42.82,43.3,42.82,44.45z"/>
	</g>
</g>
</svg>
