<?xml version="1.0" encoding="utf-8"?>
<!-- Generator: Adobe Illustrator 16.0.0, SVG Export Plug-In . SVG Version: 6.00 Build 0)  -->
<!DOCTYPE svg PUBLIC "-//W3C//DTD SVG 1.1//EN" "http://www.w3.org/Graphics/SVG/1.1/DTD/svg11.dtd">
<svg version="1.1" id="Layer_1" xmlns="http://www.w3.org/2000/svg" xmlns:xlink="http://www.w3.org/1999/xlink" x="0px" y="0px"
	 width="70px" height="68.619px" viewBox="43.55 42.69 70 68.619" enable-background="new 43.55 42.69 70 68.619"
	 xml:space="preserve">
<g>
	<path fill="#15804F" d="M48.406,56.727c19.249,0,38.409,0,57.568,0c0,0.133,0,0.223-0.044,0.313
		c-0.223,0.578-0.446,1.202-0.669,1.736c-0.178,0.445-0.089,0.936-0.089,1.383c0,1.514,0.044,3.074,0.044,4.633
		c0,0.668,0.045,1.293,0.045,1.961c0,0.178,0,0.356,0,0.535c-18.67,0-37.294,0-55.919,0c0-0.179-0.045-0.357-0.045-0.49
		c0-2.496,0-4.991,0-7.486c0-0.268-0.134-0.579-0.223-0.846C48.808,57.885,48.63,57.35,48.406,56.727z M51.615,60.959
		c0,1.693-0.044,3.297-0.044,4.945c0,0.18,0.089,0.268,0.312,0.268c0.313,0,0.623,0,0.936,0c3.743,0,7.486,0,11.184,0
		c4.457,0,8.867,0,13.324,0c4.812,0,9.579,0,14.392,0c3.119,0,6.283,0,9.402,0c0.355,0,0.4-0.044,0.4-0.4c0-1.516,0-3.03,0-4.5
		c0-0.09-0.045-0.179-0.045-0.313C84.856,60.959,68.235,60.959,51.615,60.959z"/>
	<g>
		<path fill="#15804F" d="M48.273,78.827c-0.089-0.98-0.758-1.649-1.248-2.451c-0.801-1.337-1.604-2.629-2.449-3.966
			c-0.135-0.223-0.18-0.49-0.09-0.802c21.655,0,43.311,0,65.011,0c-0.046,0.134-0.046,0.224-0.09,0.356
			c-0.714,1.426-1.47,2.852-2.184,4.277c-0.357,0.668-0.669,1.337-1.024,2.006c-0.089,0.179-0.089,0.355-0.179,0.579
			C86.816,78.827,67.566,78.827,48.273,78.827z"/>
		<path fill="#15804F" d="M113.55,104.181c-0.223,0.267-0.356,0.49-0.579,0.712c-0.267-0.178-0.49-0.312-0.713-0.489
			c-2.317-1.338-4.768-2.451-7.308-3.253c-1.248-0.4-2.45-0.802-3.698-1.204c-2.273-0.712-4.545-1.246-6.862-1.692
			c-1.425-0.312-2.852-0.579-4.276-0.802c-1.337-0.223-2.675-0.4-4.056-0.579c-1.114-0.135-2.228-0.179-3.342-0.357
			c-2.095-0.312-4.188-0.489-6.326-0.623c-1.693-0.089-3.387-0.179-5.08-0.268c-0.49,0-0.98-0.089-1.471,0.133
			c-0.313,0.135-0.713,0.046-1.113,0c-1.114-0.044-2.229-0.088-3.342-0.177c-1.828-0.179-3.699,0-5.48,0
			c-1.427,0-2.853,0-4.322,0.044c-0.669,0-1.293,0.089-2.006,0.133c-0.178,0-0.313,0-0.49-0.044
			c0.758-0.222,1.516-0.178,2.272-0.268c0.802-0.044,1.604-0.044,2.405-0.044c0.803,0,1.561-0.045,2.362-0.045
			c0.803,0,1.604,0,2.406,0s1.56-0.044,2.406-0.089c0-0.179,0-0.401,0-0.578c0-2.986,0-6.016,0-8.958
			c0-0.223,0.044-0.444,0.178-0.623c0.624-0.847,0.624-1.425,0-2.272c-0.134-0.224-0.223-0.4-0.178-0.668c0-0.179,0-0.401,0-0.579
			c0-0.045,0-0.134-0.045-0.223c-4.054,0-8.065,0-12.12,0c0,0.312,0,0.623,0,0.936c0,0.223-0.044,0.356-0.178,0.534
			c-0.09,0.044-0.133,0.134-0.223,0.223c-0.49,0.625-0.49,1.292,0.044,1.916c0.269,0.269,0.356,0.58,0.313,0.936
			c0,3.029,0,6.016,0,9.045c0,0.223,0.044,0.49,0.044,0.714c0,0.223-0.044,0.356-0.311,0.356c-0.892,0.045-1.783,0.045-2.674,0.089
			c-0.402,0-0.802,0.089-1.203,0.089c-0.535,0-0.624-0.044-0.624-0.579c0-2.54,0-5.079,0-7.664c0-1.247,0-2.495,0-3.742
			c0-0.179-0.045-0.356-0.134-0.49c-0.49-0.669-0.535-1.292-0.09-2.006c-0.043-0.133-0.133-0.312-0.178-0.445
			c-0.045-0.224-0.223-0.445,0-0.623c0.223-0.224,0.445-0.579,0.847-0.535c0.179,0,0.401,0,0.58,0c18.625,0,37.25,0,55.875,0
			c0.268,0,0.534,0,0.802,0c0.4-0.044,0.579,0.133,0.758,0.446c0.133,0.312,0.133,0.623-0.134,0.846
			c-0.045,0.045-0.089,0.089-0.134,0.179c0.49,0.668,0.446,1.337,0.045,2.049c-0.045,0.135-0.089,0.312-0.089,0.446
			c0,4.5,0,8.956,0.044,13.456c0,1.07,0,2.094,0,3.209C108.739,101.641,111.233,102.665,113.55,104.181z M100.538,99.012
			c0-0.135,0.046-0.179,0.046-0.223c0-4.188,0-8.378,0-12.565c0-0.579,0-1.069,0.4-1.56c0.356-0.491,0.401-1.158,0-1.648
			c-0.356-0.446-0.49-0.891-0.4-1.426c0-0.045,0-0.134-0.046-0.269c-2.094,0-4.232,0-6.326,0c-2.095,0-4.233-0.044-6.372-0.089
			c0,0.357,0,0.669,0,0.981c0,0.223-0.044,0.445-0.178,0.623c-0.579,0.758-0.579,1.382,0,2.139c0.134,0.179,0.178,0.401,0.178,0.624
			c0,3.564,0,7.129,0,10.65c0,0.089,0,0.222,0,0.355C92.073,97.141,96.351,97.898,100.538,99.012z M82.538,81.277
			c-0.401-0.224-0.848-0.178-1.248-0.134c-1.604,0.045-3.253,0.134-4.9,0.178c-1.293,0-2.63,0-3.922,0
			c-0.669,0-1.338-0.044-2.05-0.044c-0.356,0-0.401,0.044-0.401,0.401c0,0.044,0,0.133,0,0.223c0,0.356,0,0.712-0.268,1.025
			c-0.043,0.044-0.089,0.178-0.133,0.268c-0.356,0.668-0.268,1.246,0.223,1.826c0.178,0.178,0.223,0.401,0.178,0.624
			c0,3.119,0,6.238,0,9.357c0,0.088,0,0.177,0.045,0.267c1.426,0.045,2.763,0.134,4.145,0.224c1.381,0.044,2.762,0.133,4.143,0.178
			c1.382,0.044,2.719,0.267,4.1,0.312c0-0.134,0-0.224,0-0.312c0-3.074,0-6.149,0-9.224c0-0.669,0-1.292,0.446-1.871
			c0.355-0.49,0.355-1.158-0.089-1.604c-0.313-0.357-0.357-0.713-0.313-1.159C82.492,81.59,82.492,81.456,82.538,81.277z"/>
		<path fill="#15804F" d="M74.562,50.132c0.09-0.936,0.135-1.783,0.268-2.629c0.135-1.248,0.356-2.451,0.98-3.521
			c0.268-0.534,0.668-0.979,1.248-1.247c0.268-0.089,0.445-0.045,0.668,0.134c0.579,0.623,1.069,1.292,1.426,2.049
			c0.446,1.025,0.758,2.094,0.758,3.252c0,0.579,0,1.203,0,1.783c0.355,0.044,0.712,0.089,1.024,0.134
			c2.272,0.267,4.545,0.579,6.818,0.846c2.227,0.268,4.5,0.49,6.727,0.758c2.139,0.223,4.233,0.49,6.373,0.757
			c0.268,0,0.534,0.089,0.802,0.089c0.312,0,0.4,0,0.444-0.356c0.045-0.535,0.09-1.069,0.179-1.56
			c0.135-0.847,0.402-1.693,0.847-2.495c0.312-0.58,0.802-1.025,1.381-1.292c0.046,0,0.135,0,0.269-0.044
			c0.045,0.98,0,1.916,0,2.896c0,0.98,0,1.916,0,2.896c0,0.98,0,1.916,0,2.896c-18.313,0-36.582,0-54.807,0c0,0,0,0-0.044-0.044
			c0,0,0,0-0.045-0.045c0-0.089,0-0.178,0-0.268c0-2.762,0-5.48,0-8.243c0,0,0.045-0.044,0.045-0.134
			c0.534,0,1.024,0.179,1.47,0.535c0.535,0.401,0.892,0.98,1.07,1.649c0.267,0.846,0.355,1.693,0.311,2.584c0,0.134,0,0.267,0,0.401
			c0,0,0.045,0.044,0.045,0.089C60.081,51.424,67.343,50.8,74.562,50.132z"/>
		<path fill="#15804F" d="M105.752,69.336c1.292,0,2.629,0,4.056,0c0.044,0.624,0,1.203,0,1.871c-21.789,0-43.533,0-65.322,0
			c0-0.579,0-1.158,0-1.693c0.133,0,0.223-0.043,0.356-0.043c1.203,0,2.406,0,3.564,0c0.312,0,0.356-0.045,0.401-0.402
			c0-0.355,0.044-0.713,0.09-1.113c0.043-0.268,0.222-0.357,0.488-0.313c2.853,0,5.704,0,8.557,0c4.322,0,8.645,0,12.966,0
			c9.356,0,18.759,0,28.116,0c1.96,0,3.966,0,5.926,0c0.312,0,0.49,0.09,0.534,0.356C105.619,68.445,105.708,68.891,105.752,69.336z
			"/>
		<path fill="#15804F" d="M63.2,90.679c-2.852,0-5.659,0-8.556,0c0-1.292,0-2.629,0-3.965c0.089,0,0.179-0.045,0.268-0.045
			c2.495,0,5.034,0,7.53,0c0.223,0,0.445,0,0.758-0.044C63.2,88.006,63.2,89.298,63.2,90.679z"/>
		<path fill="#15804F" d="M107.49,110.641c-0.223,0.268-0.357,0.49-0.535,0.669c-0.936-0.49-1.782-1.024-2.717-1.427
			c-1.427-0.668-2.897-1.246-4.367-1.825c-2.674-0.98-5.437-1.738-8.198-2.451c-2.361-0.579-4.769-0.981-7.13-1.426
			c-1.337-0.268-2.674-0.401-4.055-0.579c-1.871-0.223-3.788-0.401-5.614-0.625c-2.629-0.312-5.258-0.399-7.887-0.534
			c-1.516-0.044-3.029-0.089-4.545-0.133c-2.051-0.046-4.055-0.09-6.104-0.09c-2.096,0-4.145,0.044-6.238,0.09
			c-1.249,0.044-2.541,0.133-3.833,0.178c-0.624,0-1.247,0-1.872,0c-0.267,0-0.533,0-0.846,0c0.356-0.045,0.713-0.089,1.068-0.134
			c1.293-0.044,2.586-0.134,3.877-0.179c1.693-0.044,3.387-0.089,5.08-0.133c2.316-0.046,4.59-0.134,6.861-0.134
			c2.54,0,5.035,0.088,7.574,0.178c2.185,0.089,4.322,0.224,6.506,0.401c1.561,0.09,3.119,0.223,4.724,0.4
			c1.381,0.134,2.719,0.356,4.1,0.535c1.56,0.223,3.163,0.446,4.723,0.758c1.961,0.355,3.877,0.802,5.793,1.248
			c1.96,0.444,3.877,1.023,5.792,1.648c0.803,0.267,1.604,0.578,2.406,0.891c1.471,0.579,2.896,1.203,4.277,1.961
			C106.689,110.15,107.044,110.374,107.49,110.641z"/>
		<path fill="#15804F" d="M110.074,107.166c-0.179,0.223-0.356,0.445-0.534,0.713c-0.312-0.179-0.579-0.357-0.892-0.535
			c-1.872-1.069-3.787-1.915-5.837-2.629c-2.45-0.892-4.901-1.649-7.44-2.272c-2.541-0.623-5.036-1.202-7.619-1.56
			c-2.141-0.312-4.279-0.668-6.417-0.98c-1.648-0.222-3.298-0.356-4.99-0.489c-2.362-0.179-4.768-0.357-7.13-0.49
			c-1.604-0.09-3.253-0.09-4.901-0.134c-1.782-0.045-3.564-0.045-5.347-0.045c-2.14,0-4.233,0-6.327,0.045
			c-1.426,0.044-2.896,0.134-4.367,0.178c-0.578,0-1.158,0-1.737,0.045c0-0.045,0-0.089,0-0.135c0.534,0,1.069,0,1.56,0
			c0.356,0,0.757-0.088,1.158-0.133c1.782-0.044,3.52-0.133,5.303-0.179c2.139-0.044,4.232-0.089,6.326-0.089
			c2.184,0,4.322,0,6.506,0.045c1.827,0.044,3.654,0.134,5.437,0.268c2.272,0.134,4.589,0.267,6.862,0.49
			c1.336,0.089,2.673,0.312,4.01,0.489c1.336,0.178,2.673,0.313,4.01,0.535c1.605,0.268,3.253,0.579,4.857,0.891
			c1.113,0.223,2.229,0.446,3.342,0.714c2.896,0.713,5.748,1.515,8.51,2.628c1.783,0.714,3.521,1.471,5.17,2.451
			C109.808,106.987,109.896,107.077,110.074,107.166z"/>
		<path fill="#15804F" d="M106.064,79.139c0,0.223,0,0.355,0,0.534c-0.133,0-0.266,0.045-0.355,0.045c-9.581,0-19.205,0-28.785,0
			c-9.045,0-18.135,0-27.225,0c-0.313,0-0.668,0-1.024,0c-0.401,0-0.445-0.089-0.356-0.579
			C67.523,79.139,86.771,79.139,106.064,79.139z"/>
		<path fill="#15804F" d="M48.318,55.924c0.134,0,0.223-0.044,0.356-0.044c18.491,0,36.983,0,55.475,0c0.579,0,1.157,0,1.737,0
			c0.313,0,0.313,0,0.356,0.401c-0.044,0-0.133,0.044-0.179,0.044c-6.861,0-13.723,0-20.585,0c-11.941,0-23.883,0-35.824,0
			c-0.356,0-0.714,0-1.069,0C48.273,56.37,48.273,56.191,48.318,55.924z"/>
		<path fill="#15804F" d="M98.401,90.679c-2.896,0-5.704,0-8.555,0c0-1.336,0-2.629,0-4.01c2.851,0,5.658,0,8.555,0
			C98.401,88.006,98.401,89.343,98.401,90.679z"/>
		<path fill="#15804F" d="M80.489,86.714c0,1.336,0,2.629,0,4.01c-0.937,0.09-1.827,0-2.763,0s-1.871,0-2.852,0
			c-0.936,0-1.871,0-2.852,0c0-1.337,0-2.629,0-4.01c1.381,0,2.807,0,4.232,0C77.636,86.714,79.063,86.714,80.489,86.714z"/>
		<path fill="#231F20" d="M66.988,63.766c0.045,0.045,0.09,0.09,0.09,0.179c0.355,0.624,0.043,1.248-0.625,1.292
			c-0.356,0-0.713,0-1.158,0c0-0.936,0-1.826,0-2.717c0.401,0,0.847-0.045,1.247,0c0.624,0.088,0.802,0.578,0.491,1.113
			C67.032,63.633,67.032,63.723,66.988,63.766z M65.829,63.989c0,0.267,0,0.489,0.089,0.624c0.089,0.089,0.356,0.089,0.534,0.045
			c0.178,0,0.313-0.135,0.313-0.357c0-0.178-0.135-0.312-0.313-0.312S66.096,63.989,65.829,63.989z M66.23,63.588
			c0.312,0,0.445-0.089,0.49-0.313c0-0.222-0.133-0.311-0.49-0.311c-0.268,0-0.356,0.089-0.356,0.311
			C65.829,63.499,66.007,63.588,66.23,63.588z"/>
		<path fill="#231F20" d="M97.153,62.52c0.669-0.09,0.669-0.09,0.892,0.355c0.133,0.313,0.268,0.624,0.446,0.936
			c0.044,0.134,0.133,0.223,0.222,0.357c0.045,0,0.045,0,0.09-0.045c0-0.535,0-1.069,0-1.648c0.133,0,0.267,0,0.444,0
			c0,0.936,0,1.826,0,2.718c-0.578,0.044-0.578,0.044-0.802-0.356c-0.133-0.357-0.312-0.713-0.444-1.07
			c-0.045-0.133-0.135-0.223-0.224-0.4c-0.223,0.313-0.044,0.624-0.044,0.891c0,0.268,0,0.58,0,0.893
			c-0.401,0.133-0.49,0.088-0.49-0.269C97.153,64.078,97.153,63.32,97.153,62.52z"/>
		<path fill="#231F20" d="M71.845,64.123c0-0.535,0-1.114,0-1.648c0.133,0,0.267,0,0.445,0c0,0.891,0,1.781,0,2.674
			c-0.535,0.178-0.624,0.133-0.848-0.313c-0.223-0.49-0.445-0.98-0.668-1.516c-0.223,0.313-0.09,0.669-0.09,0.936
			c0,0.313,0,0.624,0,0.937c-0.267,0.044-0.489,0.044-0.489-0.224c0-0.801,0-1.648,0-2.449c0.624-0.135,0.668-0.135,0.892,0.355
			c0.133,0.313,0.267,0.668,0.445,1.025c0.045,0.089,0.134,0.178,0.178,0.268C71.755,64.168,71.799,64.168,71.845,64.123z"/>
		<path fill="#231F20" d="M76.434,63.723c0,0,0-0.135,0-0.268c0.089-0.58,0.489-0.98,1.024-1.025s1.024,0.223,1.203,0.803
			c0.134,0.4,0.134,0.846-0.044,1.246c-0.224,0.535-0.758,0.848-1.292,0.714c-0.446-0.089-0.848-0.534-0.936-1.114
			C76.434,64.033,76.434,63.944,76.434,63.723z M78.216,63.855c0-0.133-0.045-0.268-0.09-0.4c-0.043-0.268-0.267-0.49-0.534-0.49
			c-0.267,0-0.446,0.133-0.579,0.355c-0.134,0.357-0.134,0.713,0,1.07c0.089,0.223,0.268,0.4,0.579,0.356
			c0.268,0,0.445-0.179,0.534-0.491C78.171,64.123,78.171,63.989,78.216,63.855z"/>
		<path fill="#231F20" d="M73.626,62.52c0,0.355-0.045,0.668-0.045,1.068c0.135-0.089,0.223-0.133,0.313-0.178
			c0.133-0.178,0.268-0.356,0.401-0.535c0.178-0.312,0.489-0.445,0.891-0.312c-0.179,0.445-0.669,0.712-0.937,1.159
			c0.313,0.488,0.669,1.024,0.981,1.514c-0.49,0.179-0.624,0.134-0.847-0.223c-0.135-0.223-0.223-0.445-0.357-0.623
			c-0.044-0.045-0.133-0.135-0.223-0.18c-0.044,0.09-0.133,0.18-0.178,0.268c0,0.135,0,0.269,0,0.401c0,0.446,0,0.49-0.535,0.401
			c0-0.891,0-1.738,0-2.674C73.226,62.52,73.359,62.52,73.626,62.52z"/>
		<path fill="#231F20" d="M63.646,63.499c0,0.224,0,0.401,0,0.579c-0.313,0-0.58-0.045-0.847-0.045c-0.223,0-0.312,0.09-0.312,0.313
			s0.044,0.401,0.312,0.401c0.224,0,0.401,0,0.623-0.045c0.179,0,0.313,0,0.356,0.178c0,0.224-0.088,0.356-0.311,0.356
			c-0.445,0-0.892,0-1.383,0c0-0.936,0-1.826,0-2.762c0.535,0,1.115,0,1.649,0c0,0.045,0.044,0.089,0.044,0.133
			c0,0.09,0,0.179,0,0.313c-0.044,0-0.088,0.045-0.178,0.045c-0.223,0-0.49,0-0.758-0.045c-0.223,0-0.312,0.089-0.312,0.313
			c0,0.178,0.134,0.267,0.312,0.267C63.023,63.543,63.289,63.499,63.646,63.499z"/>
		<path fill="#231F20" d="M55.358,63.232c-0.268,0.088-0.445,0.043-0.624-0.135c-0.268-0.268-0.355-0.223-0.713,0.09
			c0.134,0.088,0.268,0.223,0.445,0.312c0.135,0.044,0.313,0.089,0.446,0.134c0.401,0.133,0.534,0.4,0.534,0.802
			c0,0.356-0.178,0.579-0.534,0.758c-0.624,0.223-1.204,0-1.426-0.714c0.179-0.178,0.401-0.133,0.579,0
			c0.089,0.09,0.133,0.18,0.268,0.269c0.178,0.133,0.49,0,0.579-0.179c0.044-0.134-0.045-0.357-0.268-0.445
			c-0.179-0.045-0.401-0.09-0.579-0.179c-0.357-0.179-0.535-0.489-0.49-0.847c0.045-0.356,0.4-0.623,0.758-0.668
			C54.912,62.385,55.179,62.607,55.358,63.232z"/>
		<path fill="#231F20" d="M87.171,65.192c0-0.937,0-1.782,0-2.718c0.135,0,0.313,0,0.491,0c0,0.355,0,0.713,0,1.158
			c0.356-0.223,0.534-0.579,0.757-0.892c0.224-0.312,0.49-0.356,0.893-0.222c-0.313,0.4-0.625,0.713-0.981,1.113
			c0.313,0.535,0.624,1.025,0.981,1.516c-0.535,0.133-0.625,0.088-0.848-0.269c-0.134-0.267-0.268-0.579-0.535-0.802
			c-0.4,0.133-0.267,0.445-0.267,0.713C87.662,65.236,87.662,65.236,87.171,65.192z"/>
		<path fill="#231F20" d="M92.385,63.188c-0.268,0.088-0.445,0.133-0.623-0.045c-0.045-0.045-0.089-0.134-0.179-0.178
			c-0.178-0.09-0.446-0.045-0.49,0.089c-0.089,0.222,0.044,0.312,0.223,0.401c0.179,0.088,0.401,0.088,0.579,0.178
			c0.357,0.133,0.58,0.4,0.536,0.758c0,0.356-0.179,0.623-0.536,0.758c-0.624,0.267-1.247,0-1.47-0.714
			c0.223-0.134,0.446-0.089,0.623,0.089c0.045,0.09,0.179,0.179,0.268,0.224c0.179,0.089,0.357,0,0.49-0.179
			c0.089-0.134,0-0.357-0.223-0.445c-0.178-0.09-0.401-0.09-0.579-0.179c-0.4-0.179-0.579-0.489-0.446-0.936
			c0.046-0.312,0.268-0.489,0.579-0.534c0.401-0.09,0.758-0.045,1.07,0.267C92.296,62.875,92.341,63.009,92.385,63.188z"/>
		<path fill="#231F20" d="M67.523,65.148c0.267-0.893,0.534-1.738,0.846-2.674c0.134,0,0.313-0.045,0.446,0
			c0.089,0,0.222,0.089,0.267,0.223c0.268,0.802,0.535,1.604,0.758,2.406c0,0,0,0.045,0,0.133c-0.133,0-0.313,0-0.49,0
			c-0.045-0.088-0.089-0.133-0.089-0.223c-0.134-0.355-0.312-0.49-0.579-0.49c-0.313,0-0.446,0.09-0.535,0.401
			C68.011,65.281,67.968,65.236,67.523,65.148z M68.323,64.078c0.268,0,0.445,0,0.713,0c-0.088-0.355-0.178-0.623-0.311-0.891
			c-0.045,0-0.09,0-0.135,0C68.502,63.455,68.413,63.723,68.323,64.078z"/>
		<path fill="#231F20" d="M59.814,65.148c-0.445,0.088-0.535,0.088-0.624-0.18c-0.089-0.4-0.312-0.49-0.669-0.445
			c-0.089,0-0.178,0-0.223,0c-0.133,0.224-0.223,0.445-0.4,0.669c-0.045,0.044-0.223,0-0.401,0c0.267-0.937,0.534-1.827,0.847-2.718
			c0.134,0,0.268-0.045,0.445,0c0.09,0,0.268,0.089,0.313,0.223C59.279,63.499,59.546,64.346,59.814,65.148z M58.298,64.033
			c0.223,0.045,0.402,0.135,0.624-0.044c-0.089-0.267-0.134-0.579-0.268-0.936C58.343,63.41,58.388,63.723,58.298,64.033z"/>
		<path fill="#231F20" d="M86.771,65.148c-0.49,0.133-0.534,0.133-0.668-0.224c-0.089-0.312-0.268-0.356-0.535-0.356
			c-0.312,0-0.446,0.09-0.535,0.356c-0.089,0.356-0.133,0.356-0.578,0.224c0.267-0.893,0.534-1.738,0.802-2.674
			c0.134,0,0.268-0.045,0.445,0c0.089,0,0.268,0.089,0.313,0.223C86.237,63.499,86.503,64.301,86.771,65.148z M85.969,64.078
			c-0.223-0.355-0.09-0.713-0.49-0.98c-0.089,0.313-0.134,0.625-0.223,0.98C85.479,64.078,85.657,64.078,85.969,64.078z"/>
		<path fill="#231F20" d="M82.538,62.475c0.4,0,0.802,0,1.158,0c0.534,0.045,0.802,0.445,0.758,0.98
			c-0.045,0.489-0.356,0.756-0.892,0.713c-0.445,0-0.445,0-0.401,0.445c0,0.178,0,0.355,0,0.49c-0.49,0.133-0.579,0.133-0.579-0.313
			C82.538,64.078,82.538,63.32,82.538,62.475z M83.429,62.92c-0.268,0-0.355,0.045-0.355,0.355c0,0.313,0.044,0.402,0.311,0.447
			c0.268,0,0.535-0.135,0.535-0.402C83.964,63.143,83.74,62.965,83.429,62.92z"/>
		<path fill="#231F20" d="M94.479,65.148c0.268-0.893,0.535-1.783,0.803-2.674c0.09,0,0.223,0,0.356-0.045
			c0.178,0,0.312,0.045,0.4,0.268c0.224,0.802,0.49,1.604,0.758,2.451c-0.445,0.133-0.49,0.133-0.623-0.224
			c-0.135-0.356-0.135-0.356-0.579-0.356c-0.313,0-0.446,0.09-0.49,0.4C95.014,65.236,94.969,65.236,94.479,65.148z M95.281,64.078
			c0.223,0,0.445,0,0.668,0c-0.134-0.355-0.134-0.713-0.4-1.024C95.46,63.41,95.371,63.723,95.281,64.078z"/>
		<path fill="#231F20" d="M79.909,62.965c0,0.223,0,0.4,0,0.668c0.268,0,0.49-0.045,0.712-0.045c0.357,0,0.357,0,0.313,0.49
			c-0.313,0-0.624,0-1.024,0c0,0.313,0,0.58,0,0.847c0,0.134,0,0.268-0.179,0.312c-0.223,0.045-0.401-0.044-0.401-0.312
			c0-0.802,0-1.56,0-2.405c0.58-0.045,1.159,0,1.738-0.045c0,0.178,0,0.312,0,0.534C80.621,62.965,80.31,62.965,79.909,62.965z"/>
		<path fill="#231F20" d="M60.349,63.009c-0.758-0.089-0.758-0.089-0.758-0.445c0.267-0.089,1.471-0.134,2.049-0.044
			c0,0.133,0,0.267-0.044,0.445c-0.223,0-0.401,0-0.624,0c-0.178,0.355-0.044,0.758-0.09,1.113c0,0.356,0,0.713,0,1.158
			c-0.178,0-0.311,0-0.533,0C60.349,64.479,60.349,63.766,60.349,63.009z"/>
		<path fill="#231F20" d="M93.901,65.236c-0.179,0-0.356,0-0.535,0c0-0.758,0-1.471,0-2.228c-0.713-0.044-0.713-0.044-0.713-0.534
			c0.267,0,0.534,0,0.802,0s0.58,0,0.846,0c0.402,0,0.402,0,0.313,0.49c-0.224,0-0.446,0-0.713,0.044
			C93.901,63.723,93.901,64.435,93.901,65.236z"/>
		<path fill="#231F20" d="M56.382,63.009c-0.712,0-0.712,0-0.758-0.534c0.179,0,0.402,0,0.58,0c0.356,0,0.713,0,1.113,0
			c0.179,0,0.313,0,0.313,0.223s-0.089,0.312-0.313,0.312c-0.133,0-0.267,0-0.445,0c0,0.757,0,1.426,0,2.14
			c-0.445,0.133-0.533,0.133-0.533-0.269c0-0.489,0-0.936,0-1.425C56.427,63.275,56.382,63.143,56.382,63.009z"/>
		<path fill="#231F20" d="M89.578,62.475c0.178,0,0.312,0,0.489,0c0,0.891,0,1.693,0,2.539c0,0.313-0.268,0.223-0.489,0.179
			C89.578,64.301,89.578,63.41,89.578,62.475z"/>
		<circle fill="#15804F" cx="52.195" cy="75.218" r="1.382"/>
		<circle fill="#15804F" cx="68.681" cy="75.218" r="1.382"/>
		<circle fill="#15804F" cx="85.211" cy="75.218" r="1.382"/>
		<circle fill="#15804F" cx="101.386" cy="75.218" r="1.382"/>
		<circle fill="#FFFFFF" cx="52.327" cy="59.355" r="0.535"/>
		<circle fill="#FFFFFF" cx="55.803" cy="59.355" r="0.535"/>
		<circle fill="#FFFFFF" cx="59.235" cy="59.355" r="0.535"/>
		<circle fill="#FFFFFF" cx="62.71" cy="59.355" r="0.535"/>
		<circle fill="#FFFFFF" cx="66.185" cy="59.355" r="0.535"/>
		<circle fill="#FFFFFF" cx="69.66" cy="59.355" r="0.535"/>
		<circle fill="#FFFFFF" cx="73.136" cy="59.355" r="0.535"/>
		<circle fill="#FFFFFF" cx="76.613" cy="59.355" r="0.535"/>
		<circle fill="#FFFFFF" cx="80.087" cy="59.355" r="0.535"/>
		<circle fill="#FFFFFF" cx="83.563" cy="59.355" r="0.535"/>
		<circle fill="#FFFFFF" cx="86.994" cy="59.355" r="0.535"/>
		<circle fill="#FFFFFF" cx="90.514" cy="59.355" r="0.535"/>
		<circle fill="#FFFFFF" cx="93.945" cy="59.355" r="0.535"/>
		<circle fill="#FFFFFF" cx="97.419" cy="59.355" r="0.535"/>
		<circle fill="#FFFFFF" cx="100.896" cy="59.355" r="0.535"/>
		<circle fill="#15804F" cx="52.195" cy="75.218" r="1.382"/>
		<circle fill="#15804F" cx="68.681" cy="75.218" r="1.382"/>
		<circle fill="#15804F" cx="85.211" cy="75.218" r="1.382"/>
		<circle fill="#15804F" cx="101.386" cy="75.218" r="1.382"/>
		<circle fill="#FFFFFF" cx="52.195" cy="75.218" r="1.382"/>
		<circle fill="#FFFFFF" cx="68.681" cy="75.218" r="1.382"/>
		<circle fill="#FFFFFF" cx="85.211" cy="75.218" r="1.382"/>
		<circle fill="#FFFFFF" cx="101.386" cy="75.218" r="1.382"/>
	</g>
</g>
</svg>
