<?xml version="1.0" encoding="utf-8"?>
<!-- Generator: Adobe Illustrator 24.2.3, SVG Export Plug-In . SVG Version: 6.00 Build 0)  -->
<svg version="1.1" id="Layer_1" xmlns="http://www.w3.org/2000/svg" xmlns:xlink="http://www.w3.org/1999/xlink" x="0px" y="0px"
	 width="59px" height="59px" viewBox="0 0 59 59" enable-background="new 0 0 59 59" xml:space="preserve">
<g>
	<g>
		<g>
			<path fill="#333333" d="M34.95,31.04c-0.52,0-1.02-0.21-1.38-0.56c-0.37-0.36-0.57-0.84-0.57-1.35v-3.67
				c0-0.51,0.2-0.99,0.57-1.35c0.37-0.36,0.87-0.56,1.38-0.56h7.49c0.51,0,1.02,0.21,1.38,0.56c0.37,0.36,0.57,0.84,0.57,1.35v3.67
				c0,0.51-0.2,0.99-0.57,1.35c-0.36,0.36-0.87,0.56-1.38,0.56H34.95z M34.76,29.31h7.86v-4.04h-7.86V29.31z"/>
		</g>
		<g>
			<path fill="#333333" d="M5.82,36.14c-2.93,0-5.32-2.39-5.32-5.32V8.96c0-2.93,2.39-5.32,5.32-5.32h38.55
				c2.93,0,5.32,2.39,5.32,5.32v21.86c0,2.93-2.39,5.32-5.32,5.32H5.82z M2.59,30.83c0,1.78,1.45,3.23,3.23,3.23h38.55
				c1.78,0,3.23-1.45,3.23-3.23V12.29H2.59V30.83z M5.82,5.73c-1.78,0-3.23,1.45-3.23,3.23v1.08H47.6V8.96
				c0-1.78-1.45-3.23-3.23-3.23H5.82z"/>
		</g>
	</g>
	<path fill="#00A159" d="M54.22,55.36H15.68c-1.13,0-2.22-0.44-3.03-1.23c-0.8-0.79-1.25-1.85-1.25-2.97V40.85
		c0-0.28,0.11-0.54,0.31-0.74c0.2-0.2,0.47-0.31,0.76-0.31c0.28,0,0.56,0.11,0.76,0.31c0.2,0.2,0.31,0.46,0.31,0.74v10.31
		c0,0.56,0.22,1.09,0.63,1.48c0.4,0.39,0.95,0.61,1.51,0.61h38.54c0.57,0,1.11-0.22,1.51-0.61c0.4-0.39,0.63-0.93,0.63-1.48V29.14
		c0-0.56-0.22-1.09-0.63-1.48c-0.4-0.39-0.95-0.61-1.51-0.61H52.7c-0.28,0-0.56-0.11-0.76-0.31c-0.2-0.2-0.31-0.46-0.31-0.74
		c0-0.28,0.11-0.54,0.31-0.74c0.2-0.2,0.47-0.31,0.76-0.31h1.51c1.14,0,2.23,0.44,3.03,1.23c0.8,0.79,1.25,1.85,1.25,2.97v22.02
		c0,1.11-0.45,2.18-1.25,2.97C56.44,54.91,55.35,55.36,54.22,55.36"/>
	<g>
		<path fill="#00A159" d="M19.96,50.11h-2.14c-0.28,0-0.56-0.11-0.76-0.31c-0.2-0.2-0.31-0.46-0.31-0.74c0-0.28,0.11-0.54,0.31-0.74
			c0.2-0.2,0.47-0.31,0.76-0.31h2.14c0.28,0,0.56,0.11,0.76,0.31c0.2,0.2,0.31,0.46,0.31,0.74c0,0.28-0.11,0.55-0.31,0.74
			C20.52,50,20.24,50.11,19.96,50.11"/>
	</g>
	<g>
		<path fill="#00A159" d="M25.85,50.11h-2.14c-0.28,0-0.56-0.11-0.76-0.31c-0.2-0.2-0.31-0.46-0.31-0.74c0-0.28,0.11-0.54,0.31-0.74
			c0.2-0.2,0.47-0.31,0.76-0.31h2.14c0.28,0,0.56,0.11,0.76,0.31c0.2,0.2,0.31,0.46,0.31,0.74c0,0.28-0.11,0.55-0.31,0.74
			C26.4,50,26.13,50.11,25.85,50.11"/>
	</g>
	<g>
		<path fill="#00A159" d="M31.74,50.11h-2.14c-0.28,0-0.56-0.11-0.76-0.31c-0.2-0.2-0.31-0.46-0.31-0.74c0-0.28,0.11-0.54,0.31-0.74
			c0.2-0.2,0.47-0.31,0.76-0.31h2.14c0.28,0,0.56,0.11,0.76,0.31c0.2,0.2,0.31,0.46,0.31,0.74c0,0.28-0.11,0.55-0.31,0.74
			C32.29,50,32.02,50.11,31.74,50.11"/>
	</g>
	<g>
		<path fill="#00A159" d="M37.62,50.11h-2.14c-0.28,0-0.56-0.11-0.76-0.31c-0.2-0.2-0.31-0.46-0.31-0.74c0-0.28,0.11-0.54,0.31-0.74
			c0.2-0.2,0.47-0.31,0.76-0.31h2.14c0.28,0,0.56,0.11,0.76,0.31c0.2,0.2,0.31,0.46,0.31,0.74c0,0.28-0.11,0.55-0.31,0.74
			C38.18,50,37.91,50.11,37.62,50.11"/>
	</g>
</g>
</svg>
