<?xml version="1.0" encoding="utf-8"?>
<!-- Generator: Adobe Illustrator 24.2.3, SVG Export Plug-In . SVG Version: 6.00 Build 0)  -->
<svg version="1.1" id="Layer_1" xmlns="http://www.w3.org/2000/svg" xmlns:xlink="http://www.w3.org/1999/xlink" x="0px" y="0px"
	 width="59px" height="59px" viewBox="0 0 59 59" enable-background="new 0 0 59 59" xml:space="preserve">
<g>
	<g>
		<path fill="#333333" d="M55.92,58.5c-0.52,0-1.03-0.39-1.03-1.03c0-14.18-11.34-25.65-25.39-25.65h-0.39
			C15.19,31.95,3.85,43.42,3.85,57.47c0.13,0.64-0.26,1.03-0.77,1.03c-0.26,0-0.52-0.13-0.77-0.39c-0.13-0.13-0.26-0.39-0.26-0.64
			c0-4,0.9-7.99,2.58-11.73c0,0,0.39-0.77,0.39-0.9c2.71-5.28,7.09-9.54,12.24-12.24c0.64-0.26,1.16-0.52,1.68-0.77
			c3.35-1.42,6.83-2.06,10.57-2.06c3.61,0,7.22,0.77,10.57,2.06c0.52,0.26,1.16,0.52,1.68,0.77c5.16,2.58,9.54,6.96,12.12,12.12
			c0.13,0.39,0.26,0.52,0.39,0.77l0.13,0.26c1.68,3.74,2.58,7.6,2.58,11.73c0,0.26-0.13,0.52-0.26,0.64
			C56.57,58.37,56.31,58.5,55.92,58.5z"/>
	</g>
	<g>
		<path fill="#333333" d="M29.5,26.79c-7.22,0-13.02-5.93-13.02-13.15S22.28,0.5,29.5,0.5s13.02,5.93,13.02,13.15
			S36.72,26.79,29.5,26.79z M29.5,2.43c-6.06,0-11.08,5.03-11.08,11.21s4.9,11.21,11.08,11.21c6.06,0,11.08-5.03,11.08-11.21
			S35.56,2.43,29.5,2.43z"/>
	</g>
	<g>
		<path fill="#00A25A" d="M43.42,57.98V47.16c0-1.8-1.55-3.35-3.35-3.35c-1.8,0-3.35,1.55-3.35,3.35v2.19
			c0,0.52-0.39,1.03-1.03,1.03c-0.52,0-1.03-0.39-1.03-1.03v-2.19c0-2.96,2.32-5.28,5.28-5.28c2.96,0,5.28,2.32,5.28,5.28v10.83
			H43.42z"/>
	</g>
</g>
</svg>
