<?xml version="1.0" encoding="utf-8"?>
<!-- Generator: Adobe Illustrator 24.1.1, SVG Export Plug-In . SVG Version: 6.00 Build 0)  -->
<svg version="1.1" id="Layer_1" xmlns="http://www.w3.org/2000/svg" xmlns:xlink="http://www.w3.org/1999/xlink" x="0px" y="0px"
	 width="55px" height="55px" viewBox="0 0 55 55" enable-background="new 0 0 55 55" xml:space="preserve">
<g>
	<g>
		<path fill="#333333" d="M3.92,49.29h47.16c0.32,0,0.57,0.44,0.57,0.98c0,0.54-0.24,0.98-0.57,0.98H3.92
			c-0.32,0-0.57-0.44-0.57-0.98C3.36,49.73,3.6,49.29,3.92,49.29z"/>
	</g>
	<g>
		<path fill="#333333" d="M0.52,53.09h53.96c0.28,0,0.51,0.43,0.51,0.95S54.76,55,54.48,55H0.52c-0.28-0.01-0.51-0.44-0.51-0.97
			C0.01,53.52,0.24,53.09,0.52,53.09z"/>
	</g>
	<g>
		<g>
			<path fill="#333333" d="M0.39,19.42L26.95,0.17c0.32-0.23,0.76-0.23,1.08,0l26.59,19.24c0.4,0.29,0.49,0.87,0.21,1.28
				c-0.17,0.23-0.45,0.38-0.76,0.38H0.92c-0.51,0-0.92-0.42-0.92-0.92C0.01,19.87,0.14,19.59,0.39,19.42z M51.24,19.25L27.5,2.06
				L3.75,19.25H51.24z"/>
		</g>
		<g>
			<path fill="#01A158" d="M22,45.84h1.85V24.76H22c-0.51,0-0.9-0.42-0.9-0.92c0-0.5,0.4-0.92,0.9-0.92h11c0.51,0,0.9,0.42,0.9,0.92
				c0,0.5-0.4,0.92-0.9,0.92h-1.83v21.08H33c0.51,0,0.9,0.42,0.9,0.92c0,0.5-0.4,0.92-0.9,0.92H22c-0.51,0-0.9-0.42-0.9-0.92
				C21.1,46.25,21.49,45.84,22,45.84z M25.67,45.84h3.68V24.76h-3.68V45.84z"/>
		</g>
		<g>
			<path fill="#01A158" d="M37.18,45.84h1.85V24.76h-1.85c-0.51,0-0.9-0.42-0.9-0.92c0-0.5,0.4-0.92,0.9-0.92h11
				c0.51,0,0.9,0.42,0.9,0.92c0,0.5-0.4,0.92-0.9,0.92h-1.85v21.08h1.85c0.51,0,0.9,0.42,0.9,0.92c0,0.5-0.4,0.92-0.9,0.92h-11
				c-0.51,0-0.9-0.42-0.9-0.92C36.27,46.25,36.66,45.84,37.18,45.84z M40.83,45.84h3.68V24.76h-3.68V45.84z"/>
		</g>
		<g>
			<path fill="#01A158" d="M7.33,45.84h1.85V24.76H7.33c-0.51,0-0.9-0.42-0.9-0.92c0-0.5,0.4-0.92,0.9-0.92h11
				c0.51,0,0.9,0.42,0.9,0.92c0,0.5-0.4,0.92-0.9,0.92h-1.85v21.08h1.85c0.51,0,0.9,0.42,0.9,0.92c0,0.5-0.4,0.92-0.9,0.92h-11
				c-0.51,0-0.9-0.42-0.9-0.92C6.42,46.25,6.81,45.84,7.33,45.84z M10.99,45.84h3.68V24.76h-3.68V45.84z"/>
		</g>
	</g>
</g>
</svg>
