<?xml version="1.0" encoding="utf-8"?>
<!-- Generator: Adobe Illustrator 25.2.1, SVG Export Plug-In . SVG Version: 6.00 Build 0)  -->
<svg version="1.1" id="Layer_1" xmlns="http://www.w3.org/2000/svg" xmlns:xlink="http://www.w3.org/1999/xlink" x="0px" y="0px"
	 width="22px" height="22px" viewBox="0 0 22 22" style="enable-background:new 0 0 22 22;" xml:space="preserve">
<style type="text/css">
	.st0{fill:#A1A1A1;}
	.st1{fill:#00A25A;}
	.st2{fill-rule:evenodd;clip-rule:evenodd;fill:#00A25A;}
</style>
<g>
	<g>
		<path class="st1" d="M16.3,22c-3.9,0-9.1-4.2-10.6-5.6C3.9,14.5-2.4,6.5,1,3.1l2.6-2.6C3.9,0.2,4.3,0,4.7,0.1
			c0.4,0,0.9,0.2,1.2,0.6l0,0l3.2,4.1c0.5,0.8,0.5,1.8-0.1,2.4L6.9,9.2c0.1,0.4,0.9,1.7,2.6,3.4c1.7,1.7,2.9,2.5,3.4,2.6l2.1-2.1
			c0.6-0.6,1.6-0.7,2.3-0.2l4.2,3.2c0.4,0.4,0.6,0.8,0.6,1.3c0,0.4-0.2,0.8-0.5,1.1l-2.4,2.5C18.3,21.7,17.4,22,16.3,22z M4.6,1.3
			c0,0-0.1,0-0.2,0.1L1.9,3.9c-2.4,2.4,2.3,9.2,4.7,11.6c2.4,2.3,9.3,7,11.7,4.6l0.1-0.2l2.4-2.4c0.1-0.1,0.1-0.2,0.1-0.2
			c0-0.1-0.1-0.2-0.2-0.3l-4.1-3.1c-0.2-0.1-0.6-0.2-0.8,0l-2.2,2.2c-0.8,0.7-2.5-0.2-5-2.7c-2.5-2.5-3.4-4.2-2.7-5l2.2-2.2
			c0.2-0.2,0.2-0.6,0-0.8L5,1.5C4.9,1.4,4.7,1.3,4.6,1.3C4.6,1.3,4.6,1.3,4.6,1.3z"/>
	</g>
	<g>
		<path class="st2" d="M12.3,4.1C11.6,4,11.7,2.9,12.4,3c3.3,0.5,5.9,3,6.3,6.3c0.2,0.7-1,0.8-1.1,0.1C17.2,6.6,15,4.5,12.3,4.1z"/>
	</g>
	<g>
		<path class="st2" d="M12.1,1.1C11.4,1,11.6-0.1,12.2,0c5,0.7,8.9,4.5,9.5,9.4c0.1,0.7-1,0.9-1.1,0.2C20,5.2,16.5,1.7,12.1,1.1z"/>
	</g>
</g>
</svg>
