<?xml version="1.0" encoding="utf-8"?>
<!-- Generator: Adobe Illustrator 24.1.1, SVG Export Plug-In . SVG Version: 6.00 Build 0)  -->
<svg version="1.1" id="Layer_1" xmlns="http://www.w3.org/2000/svg" xmlns:xlink="http://www.w3.org/1999/xlink" x="0px" y="0px"
	 width="55px" height="55px" viewBox="0 0 55 55" enable-background="new 0 0 55 55" xml:space="preserve">
<g>
	<path fill="#333333" d="M40.94,35.15c-0.49-0.49-1.23-0.74-1.97-0.74s-1.36,0.25-1.97,0.74l-5.92,5.8
		c-2.34-1.23-4.44-2.34-6.78-4.19c-0.37-0.37-0.99-0.25-1.36,0.12c-0.37,0.37-0.25,0.99,0.12,1.36c2.71,2.22,5.06,3.45,7.89,4.81
		c0.37,0.25,0.86,0.12,1.11-0.12l3.21-3.08L46,50.07c-3.45,2.84-8.39,3.82-13.93,2.84c-6.29-1.23-12.83-4.81-18.62-10.36
		S3.82,30.71,2.59,24.66c-1.11-5.3,0-9.99,2.96-13.32l10.73,10.24l-3.21,3.08c-0.25,0.25-0.37,0.74-0.12,1.11
		c1.97,3.7,6.41,8.88,10.48,12.7c0.37,0.37,0.99,0.37,1.36,0c0.37-0.37,0.37-0.99,0-1.36c-3.58-3.45-8.02-8.39-9.74-11.59l6.04-5.8
		c0.49-0.49,0.74-1.11,0.74-1.85c0-0.74-0.25-1.36-0.74-1.85l-9.99-9.5C10.6,6.04,9.99,5.8,9.25,5.8c-0.74,0-1.36,0.25-1.97,0.74
		L4.69,9c-3.95,3.82-5.43,9.37-4.07,15.78s5.3,13.07,11.35,18.87s12.95,9.62,19.61,10.85c1.6,0.25,3.08,0.49,4.56,0.49
		c4.69,0,8.76-1.48,11.84-4.44l2.59-2.47c0.49-0.49,0.74-1.11,0.74-1.85c0-0.74-0.25-1.36-0.74-1.85L40.94,35.15z M8.75,7.89
		C8.88,7.77,9,7.65,9.25,7.65c0.25,0,0.37,0.12,0.49,0.25l9.62,9.25c0.12,0.12,0.25,0.37,0.25,0.49c0,0.25-0.12,0.37-0.25,0.49
		l-1.85,1.85L6.78,9.74L8.75,7.89z M49.2,46.74l-1.85,1.85L36.62,38.35l1.85-1.85c0.12-0.12,0.37-0.25,0.49-0.25
		s0.37,0.12,0.49,0.25l9.62,9.25C49.45,46,49.45,46.49,49.2,46.74z"/>
	<g>
		<g>
			<path fill="#00A25A" d="M53.52,28.86c-0.74,0-1.36-0.62-1.36-1.36c0-6.66-2.59-12.95-7.28-17.63S33.91,2.59,27.25,2.59
				c-0.74,0-1.36-0.49-1.36-1.23S26.39,0,27.13,0c7.28,0,14.18,2.84,19.48,8.14c5.18,5.18,8.14,12.09,8.26,19.48
				C54.88,28.24,54.26,28.86,53.52,28.86z"/>
		</g>
		<g>
			<path fill="#00A25A" d="M45.01,28.86c-0.62,0-1.23-0.62-1.23-1.36c0.12-4.32-1.73-8.63-4.81-11.72
				c-3.08-3.21-7.28-4.93-11.72-4.93c-0.62,0-1.36-0.49-1.36-1.23c0-0.74,0.62-1.36,1.36-1.36c5.18,0,9.99,1.97,13.44,5.67
				c3.7,3.58,5.67,8.51,5.67,13.57C46.24,28.24,45.75,28.86,45.01,28.86z"/>
		</g>
		<g>
			<path fill="#00A25A" d="M36.75,28.86c-0.74,0-1.36-0.62-1.36-1.36c0-2.22-0.86-4.32-2.47-5.92c-1.6-1.6-3.7-2.47-5.92-2.47
				c-0.74,0-1.36-0.62-1.36-1.36c0-0.74,0.62-1.36,1.36-1.36c2.84,0,5.67,1.11,7.65,3.21c2.1,2.1,3.21,4.81,3.21,7.65
				C38.1,28.24,37.49,28.86,36.75,28.86z"/>
		</g>
	</g>
</g>
</svg>
