<?xml version="1.0" encoding="utf-8"?>
<!-- Generator: Adobe Illustrator 24.1.1, SVG Export Plug-In . SVG Version: 6.00 Build 0)  -->
<svg version="1.1" id="Layer_1" xmlns="http://www.w3.org/2000/svg" xmlns:xlink="http://www.w3.org/1999/xlink" x="0px" y="0px"
	 width="55px" height="55px" viewBox="0 0 55 55" enable-background="new 0 0 55 55" xml:space="preserve">
<g>
	<g>
		
			<path fill="#333333" stroke="#333333" stroke-width="0.3" stroke-linecap="round" stroke-linejoin="round" stroke-miterlimit="10" d="
			M52.45,15.48h-20.5c-0.08,0-0.13-0.06-0.13-0.13V4.32C31.82,1.94,29.88,0,27.5,0H4.33C1.95,0,0.01,1.94,0.01,4.33v46.35
			c0,2.38,1.94,4.32,4.32,4.32l23.18-0.01c2.38,0,4.32-1.94,4.32-4.32V38.4h20.62c1.41,0,2.54-1.15,2.54-2.55V18.03
			C54.99,16.61,53.85,15.48,52.45,15.48z M1.53,4.32c0-1.54,1.26-2.8,2.8-2.8v0.01h23.18c1.54,0,2.8,1.26,2.8,2.8V7
			c0,0.08-0.05,0.13-0.13,0.13H1.66C1.58,7.13,1.53,7.08,1.53,7V4.32z M30.3,50.68c0,1.54-1.26,2.8-2.8,2.8H4.33
			c-1.54,0-2.8-1.26-2.8-2.8V48c0-0.08,0.05-0.13,0.13-0.13h28.51c0.08,0,0.13,0.06,0.13,0.13V50.68z M30.31,46.21
			c0,0.08-0.05,0.13-0.13,0.13H1.66c-0.08,0-0.13-0.05-0.13-0.13V8.79c0-0.08,0.05-0.13,0.13-0.13h28.52c0.08,0,0.13,0.06,0.13,0.13
			v6.56c0,0.08-0.05,0.13-0.13,0.13h-8.03c-1.41,0-2.55,1.15-2.55,2.55v13.01c0,0.03-0.01,0.07-0.03,0.09l-4.69,7.28h15.43V46.21z
			 M53.47,35.84c0,0.56-0.46,1.02-1.02,1.02H17.87c-0.06,0-0.1-0.03-0.12-0.08c-0.01-0.05,0-0.11,0.03-0.14l3.35-4.94V18.03
			c0-0.56,0.46-1.03,1.02-1.03h30.3c0.56,0,1.02,0.46,1.02,1.03V35.84z"/>
		
			<rect x="12.35" y="49.78" fill="#333333" stroke="#333333" stroke-width="0.3" stroke-linecap="round" stroke-linejoin="round" stroke-miterlimit="10" width="7.13" height="1.79"/>
	</g>
	<g>
		<path fill="#03A550" d="M25.21,28.95l1.73-1c0.31,0.73,0.85,1.21,1.84,1.21c0.95,0,1.19-0.38,1.19-0.71c0-0.54-0.5-0.75-1.81-1.11
			c-1.3-0.36-2.58-0.99-2.58-2.67c0-1.69,1.43-2.67,2.94-2.67c1.44,0,2.56,0.69,3.2,1.98l-1.69,0.99c-0.3-0.63-0.71-1.01-1.51-1.01
			c-0.63,0-0.94,0.31-0.94,0.66c0,0.4,0.21,0.68,1.58,1.09c1.33,0.4,2.82,0.86,2.82,2.71c0,1.69-1.35,2.69-3.25,2.69
			C26.87,31.12,25.7,30.24,25.21,28.95z"/>
		<path fill="#03A550" d="M41.73,30.94h-2v-5.09l-2.26,3.72h-0.23l-2.27-3.72v5.09h-2v-8.76h2l2.38,3.89l2.38-3.89h2V30.94z"/>
		<path fill="#03A550" d="M42.79,28.95l1.73-1c0.31,0.73,0.85,1.21,1.84,1.21c0.95,0,1.19-0.38,1.19-0.71c0-0.54-0.5-0.75-1.81-1.11
			c-1.3-0.36-2.58-0.99-2.58-2.67c0-1.69,1.43-2.67,2.94-2.67c1.44,0,2.56,0.69,3.2,1.98l-1.69,0.99c-0.3-0.63-0.71-1.01-1.51-1.01
			c-0.63,0-0.94,0.31-0.94,0.66c0,0.4,0.21,0.68,1.58,1.09c1.33,0.4,2.82,0.86,2.82,2.71c0,1.69-1.35,2.69-3.25,2.69
			C44.46,31.12,43.28,30.24,42.79,28.95z"/>
	</g>
</g>
</svg>
