<?xml version="1.0" encoding="utf-8"?>
<!-- Generator: Adobe Illustrator 16.0.0, SVG Export Plug-In . SVG Version: 6.00 Build 0)  -->
<!DOCTYPE svg PUBLIC "-//W3C//DTD SVG 1.1//EN" "http://www.w3.org/Graphics/SVG/1.1/DTD/svg11.dtd">
<svg version="1.1" id="Layer_1" xmlns="http://www.w3.org/2000/svg" xmlns:xlink="http://www.w3.org/1999/xlink" x="0px" y="0px"
	 width="250px" height="80px" viewBox="0 0 250 80" enable-background="new 0 0 250 80" xml:space="preserve">
<g>
	<g>
		<path fill="#231F20" d="M12.461,24.042H3.706l-1.542,4.328H0.498l6.74-18.081h1.517l7.013,18.081h-1.69L12.461,24.042z
			 M11.915,22.62L7.985,12.15L4.228,22.62H11.915z"/>
		<path fill="#231F20" d="M28.626,26.923v1.441H18.33V10.26h1.542v16.663H28.626z"/>
		<path fill="#231F20" d="M53.125,10.289v18.081H51.56v-8.56H40.914v8.554h-1.518V10.289h1.518v8.133H51.56v-8.133H53.125z"/>
		<path fill="#231F20" d="M62.005,19.987c1.594,0,3.083,0.35,4.428,1.096V20.46c0-2.987-1.518-4.303-4.25-4.303
			c-1.938,0-3.729,0.795-4.5,1.618v-1.541c0.996-0.847,2.709-1.441,4.653-1.441c3.332,0,5.596,1.594,5.596,5.572l-0.024,8.009
			h-1.441v-1.867c-0.871,1.168-2.834,2.063-5.122,2.063c-2.887,0-4.85-1.594-4.85-4.203C56.486,21.629,58.697,19.987,62.005,19.987z
			 M61.804,27.272c2.063,0,3.605-0.818,4.653-2.312v-2.537c-1.346-0.872-2.834-1.192-4.375-1.192c-2.513,0-4.054,1.144-4.054,3.035
			C58.027,26.425,59.765,27.272,61.804,27.272z"/>
		<path fill="#231F20" d="M78.769,28.565c-2.211,0-4.576-1.097-5.471-3.159v2.958h-1.47V9.241h1.47v8.654
			c0.818-2.015,3.26-3.111,5.447-3.111c3.557,0,6.568,2.461,6.568,6.865C85.308,26.128,82.373,28.565,78.769,28.565z M78.596,16.157
			c-3.284,0-5.323,2.336-5.323,5.519c0,3.059,1.939,5.52,5.347,5.52c3.231,0,5.146-2.24,5.146-5.447
			C83.766,18.345,81.779,16.157,78.596,16.157z"/>
		<path fill="#231F20" d="M88.218,11.231c0-0.598,0.474-1.043,1.043-1.043c0.574,0,1.043,0.445,1.043,1.043
			s-0.474,1.068-1.043,1.068C88.692,12.299,88.218,11.83,88.218,11.231z M90.008,14.985v13.379h-1.469V14.985H90.008z"/>
		<path fill="#231F20" d="M100.927,28.565c-2.211,0-4.577-1.097-5.471-3.159v2.958h-1.47V9.241h1.47v8.654
			c0.818-2.015,3.26-3.111,5.447-3.111c3.557,0,6.568,2.461,6.568,6.865C107.471,26.128,104.532,28.565,100.927,28.565z
			 M100.755,16.157c-3.284,0-5.323,2.336-5.323,5.519c0,3.059,1.939,5.52,5.347,5.52c3.231,0,5.146-2.24,5.146-5.447
			C105.924,18.345,103.938,16.157,100.755,16.157z"/>
	</g>
	<g>
		<g>
			<path fill="#188558" d="M19.55,70.173c-2.168,1.105-4.476,1.612-6.826,1.612c-7.611,0-12.638-5.121-12.594-12.732
				c0.047-7.841,5.442-12.728,12.824-12.728c2.351,0,4.38,0.416,6.596,1.569v1.891c-1.843-0.967-3.92-1.661-6.596-1.661
				c-7.702,0-10.885,5.764-10.837,10.977c0.048,4.615,2.585,10.885,10.747,10.885c2.216,0,5.122-0.784,6.687-1.751V70.173z"/>
			<path fill="#188558" d="M27.3,46.692h1.843v3.504c1.292-2.259,3.643-3.871,6.874-3.871c1.244,0,2.585,0.367,3.322,0.784v1.938
				c-0.785-0.599-2.169-0.924-3.644-0.924c-3.135,0-6.548,2.489-6.548,6.965v16.328h-1.843V46.692H27.3z"/>
			<path fill="#188558" d="M66.457,59.747H44.456c0.417,6.825,5.304,10.147,11.254,10.147c3.46,0,6.735-1.335,8.3-2.628v2.078
				c-2.078,1.244-4.658,2.35-8.209,2.35c-7.841,0-13.423-4.657-13.375-12.866c0.048-7.932,5.442-12.499,12.178-12.499
				c6.276,0,11.671,3.92,11.853,12.226V59.747z M44.409,58.042h20.109c-0.417-6.825-4.614-9.918-9.87-9.918
				C48.516,48.124,44.686,51.954,44.409,58.042z"/>
			<path fill="#188558" d="M83.431,46.325c4.289,0,9.042,2.307,10.517,6.228V36.038h1.843v35.379h-1.843v-5.998
				c-1.57,4.107-6.228,6.366-10.564,6.366c-6.596,0-12.13-4.336-12.13-12.775C71.253,50.709,76.974,46.325,83.431,46.325z
				 M83.34,69.985c6.687,0,10.564-4.935,10.564-10.933c0-6.318-4.059-10.933-10.517-10.933c-6.228,0-10.148,4.289-10.148,11.071
				C73.24,65.558,77.021,69.985,83.34,69.985z"/>
			<path fill="#188558" d="M102.852,39.589c0-0.876,0.694-1.57,1.57-1.57c0.829,0,1.522,0.694,1.522,1.57
				c0,0.924-0.694,1.613-1.522,1.613C103.541,41.207,102.852,40.513,102.852,39.589z M105.341,46.692v24.725h-1.843V46.692H105.341z
				"/>
			<path fill="#188558" d="M109.63,46.692h3.46l0.599-5.165h1.245v5.165h8.209v1.709h-8.209v16.008c0,4.936,2.121,5.581,3.968,5.581
				c2.216,0,4.011-0.923,4.844-1.569v1.938c-1.196,0.876-2.997,1.432-4.983,1.432c-2.585,0-5.673-1.015-5.673-6.917V48.406h-3.46
				V46.692L109.63,46.692z"/>
			<path fill="#EBB058" d="M147.825,70.173c-2.121,1.153-5.304,1.612-7.702,1.612c-7.98,0-13.007-5.489-12.963-12.963
				c0.047-7.979,5.763-13.054,13.699-13.054c2.217,0,4.796,0.417,6.966,1.571v5.902c-1.801-0.968-3.921-1.662-6.229-1.662
				c-4.241,0-7.659,2.355-7.611,7.195c0.048,4.982,3.83,7.194,7.659,7.194c2.26,0,4.657-0.737,6.181-1.752V70.173z"/>
			<path fill="#EBB058" d="M163.09,55.549c1.843,0,3.691,0.229,5.533,0.737v-0.048c0-3.093-1.982-4.658-5.49-4.658
				c-3.231,0-6.734,1.293-8.626,2.953v-5.95c2.029-1.709,5.581-2.814,9.454-2.814c7.751,0,11.302,3.734,11.254,11.484v14.16h-6.548
				v-2.121c-0.785,0.828-3.231,2.489-7.798,2.489c-4.38,0-8.535-2.724-8.535-7.798C152.344,58.594,156.862,55.549,163.09,55.549z
				 M162.999,66.808c2.308,0,4.337-0.828,5.673-2.398v-3.365c-1.523-0.646-2.997-0.924-4.429-0.924c-3.183,0-5.255,1.475-5.255,3.6
				C158.988,65.975,161.108,66.808,162.999,66.808z"/>
			<path fill="#EBB058" d="M181.17,46.143h6.549v3.092c1.521-2.675,3.6-3.461,5.763-3.461c1.57,0,2.815,0.417,3.414,0.828v6.042
				c-1.385-0.876-2.997-1.016-3.969-1.016c-3.921,0-5.213,2.26-5.213,5.491v14.298h-6.544V46.143z"/>
			<path fill="#EBB058" d="M211.246,45.773c3.045,0,6.318,0.968,8.118,3.643V35.578h6.549v35.839h-6.549v-3.231
				c-1.982,2.629-5.073,3.6-8.167,3.6c-7.241,0-12.13-5.395-12.13-13.054C199.067,51.217,204.052,45.773,211.246,45.773z
				 M212.769,65.975c4.613,0,7.013-2.997,7.013-7.194c0-4.151-2.585-7.194-6.965-7.194c-4.428,0-7.014,3.091-7.014,7.333
				C205.803,63.021,208.244,65.975,212.769,65.975z"/>
			<path fill="#EBB058" d="M231.585,63.576c2.537,1.8,6.041,2.489,8.675,2.489c2.215,0,3.23-0.416,3.23-1.613
				c0-1.202-0.924-1.938-5.902-3.829c-3.829-1.475-6.548-3.601-6.548-7.473c0-4.936,4.107-7.285,9.732-7.382
				c2.953-0.047,6.04,0.877,7.979,2.078v5.949c-2.675-1.431-5.812-2.307-8.257-2.307c-1.475,0-2.724,0.321-2.724,1.432
				s1.292,1.938,4.657,3.183c5.165,1.892,7.702,3.782,7.702,8.028c0,5.073-3.83,7.659-10.239,7.659c-3.461,0-5.811-0.647-8.3-2.121
				v-6.094H231.585z"/>
		</g>
	</g>
</g>
</svg>
