<?xml version="1.0" encoding="utf-8"?>
<!-- Generator: Adobe Illustrator 16.0.0, SVG Export Plug-In . SVG Version: 6.00 Build 0)  -->
<!DOCTYPE svg PUBLIC "-//W3C//DTD SVG 1.1//EN" "http://www.w3.org/Graphics/SVG/1.1/DTD/svg11.dtd">
<svg version="1.1" id="Layer_1" xmlns="http://www.w3.org/2000/svg" xmlns:xlink="http://www.w3.org/1999/xlink" x="0px" y="0px"
	 width="250px" height="80px" viewBox="0 0 250 80" enable-background="new 0 0 250 80" xml:space="preserve">
<g>
	<g>
		<g>
			<path fill="#158458" d="M38.063,46.832c-1.841,0.941-3.798,1.37-5.794,1.37c-6.458,0-10.727-4.346-10.687-10.804
				c0.04-6.653,4.62-10.803,10.883-10.803c1.997,0,3.718,0.352,5.599,1.33v1.605c-1.565-0.822-3.327-1.41-5.599-1.41
				c-6.538,0-9.238,4.893-9.201,9.317c0.04,3.914,2.192,9.237,9.122,9.237c1.88,0,4.345-0.666,5.675-1.485v1.642H38.063z"/>
			<path fill="#158458" d="M43.268,26.907h1.566v11.115c0,5.168,1.88,8.65,7.437,8.65c4.421,0,7.672-2.309,7.672-8.535V26.907h1.565
				v20.979h-1.565v-4.033c-0.783,2.388-3.718,4.345-7.947,4.345c-5.284,0-8.73-3.052-8.73-10.02V26.907H43.268z"/>
			<path fill="#158458" d="M67.103,26.907h1.565v2.976c1.095-1.917,3.091-3.287,5.831-3.287c1.058,0,2.193,0.312,2.816,0.667v1.642
				c-0.667-0.508-1.841-0.783-3.091-0.783c-2.664,0-5.56,2.113-5.56,5.911v13.854H67.1V26.907H67.103z"/>
			<path fill="#158458" d="M81.229,26.907h1.566v2.976c1.098-1.917,3.091-3.287,5.831-3.287c1.058,0,2.192,0.312,2.819,0.667v1.642
				c-0.667-0.508-1.841-0.783-3.091-0.783c-2.66,0-5.559,2.113-5.559,5.911v13.854h-1.566V26.907z"/>
			<path fill="#158458" d="M113.483,37.986h-18.67c0.352,5.794,4.501,8.611,9.549,8.611c2.936,0,5.715-1.135,7.045-2.232v1.762
				c-1.761,1.054-3.954,1.996-6.969,1.996c-6.654,0-11.39-3.954-11.351-10.919c0.04-6.733,4.621-10.607,10.333-10.607
				c5.323,0,9.904,3.327,10.06,10.372v1.019H113.483z M94.772,36.536h17.065c-0.352-5.794-3.914-8.415-8.375-8.415
				C98.255,28.121,95.008,31.372,94.772,36.536z"/>
			<path fill="#158458" d="M117.865,26.907h1.565v4.033c0.743-2.271,3.798-4.345,7.984-4.345c5.324,0,8.69,2.779,8.69,9.748v11.547
				h-1.565V36.5c0-5.167-1.878-8.375-7.437-8.375c-4.421,0-7.672,2.309-7.672,8.535v11.234h-1.565V26.907z"/>
			<path fill="#158458" d="M138.648,26.907h2.936l0.508-4.385h1.058v4.385h6.969v1.45h-6.969v13.583
				c0,4.189,1.802,4.736,3.366,4.736c1.878,0,3.407-0.782,4.11-1.33v1.646c-1.019,0.743-2.544,1.214-4.229,1.214
				c-2.192,0-4.815-0.859-4.815-5.871V28.357h-2.936v-1.45H138.648z"/>
			<path fill="#EAAF58" d="M166.126,48.202c-2.584,0-5.363-0.823-6.889-3.092v10.375h-5.561V26.44h5.561v2.74
				c1.681-2.232,4.305-3.055,6.928-3.055c6.147,0,10.372,4.581,10.372,11.079C176.537,43.581,172.232,48.202,166.126,48.202z
				 M164.832,31.057c-3.914,0-5.95,2.544-5.95,6.106c0,3.522,2.192,6.106,5.911,6.106c3.757,0,5.95-2.624,5.95-6.223
				C170.743,33.561,168.67,31.057,164.832,31.057z"/>
			<path fill="#EAAF58" d="M185.305,17.474v30.417h-5.561V17.474H185.305z"/>
			<path fill="#EAAF58" d="M189.413,26.44h5.56v11.194c0,4.385,1.997,5.834,4.776,5.834c3.603,0,4.815-2.584,4.815-5.324V26.44
				h5.561v21.451h-5.561v-2.7c-1.289,1.917-3.993,3.012-6.813,3.012c-5.283,0-8.335-3.835-8.335-10.412V26.44H189.413z"/>
			<path fill="#EAAF58" d="M213.952,41.233c2.152,1.525,5.128,2.112,7.356,2.112c1.881,0,2.74-0.352,2.74-1.369
				c0-1.019-0.783-1.646-5.009-3.248c-3.25-1.254-5.559-3.052-5.559-6.342c0-4.189,3.482-6.183,8.259-6.262
				c2.504-0.04,5.128,0.743,6.77,1.761v5.048c-2.271-1.214-4.933-1.957-7.005-1.957c-1.254,0-2.309,0.275-2.309,1.214
				c0,0.938,1.098,1.645,3.953,2.7c4.385,1.605,6.538,3.21,6.538,6.81c0,4.305-3.251,6.497-8.69,6.497
				c-2.936,0-4.933-0.547-7.045-1.801V41.233z"/>
		</g>
		<g>
			<path fill="#231F20" d="M38.574,16.028h-1.651l-1.861-4.886H27.99l-1.931,4.886h-1.559l6.235-15.54h1.652L38.574,16.028z
				 M32.385,4.236c-0.279-0.72-0.654-1.745-0.839-2.372c-0.255,0.697-0.627,1.698-0.859,2.279l-2.278,5.814h6.209L32.385,4.236z"/>
			<path fill="#231F20" d="M50.157,16.028h-10.19V0.538h1.489v14.213h8.701V16.028z"/>
			<path fill="#231F20" d="M68.672,16.028h-1.466V8.562h-9.257v7.466h-1.489V0.538h1.466v6.723h9.257V0.538h1.489V16.028z"/>
			<path fill="#231F20" d="M81.299,15.958c-0.348,0.116-0.677,0.163-1.071,0.163c-1.072,0-1.443-0.511-1.443-2.024
				c-1.021,1.583-2.302,2.256-4.232,2.256c-2.279,0-3.675-1.165-3.675-3.164c0-2.023,1.393-3.188,4.163-3.466l1.884-0.186
				c1.35-0.116,1.791-0.464,1.791-1.419c0-1.698-0.909-2.441-2.932-2.441c-1.93,0-2.886,0.813-3.071,2.627h-1.304
				c0.116-2.418,1.745-3.768,4.538-3.768c1.443,0,2.72,0.418,3.42,1.141c0.534,0.581,0.677,1.118,0.677,2.793v0.093v3.165v1.698
				c0,1.443,0.069,1.582,0.743,1.582c0.186,0,0.278-0.023,0.511-0.093v1.045H81.299z M76.789,10.562l-1.138,0.162
				c-2.398,0.349-3.303,1.002-3.303,2.372c0,1.327,0.979,2.163,2.534,2.163c2.232,0,3.837-1.466,3.837-3.489V9.955
				C78.324,10.283,77.929,10.422,76.789,10.562z"/>
			<path fill="#231F20" d="M84.139,5.308l-0.023,1.652c0.72-1.582,2.14-2.418,4-2.418c3.071,0,5.001,2.279,5.001,5.884
				c0,3.652-1.954,5.931-5.048,5.931c-2,0-3.35-0.839-4.023-2.491v2.163h-1.257V0.538h1.35V5.308z M84.092,10.445
				c0,2.956,1.489,4.816,3.861,4.816c2.302,0,3.791-1.884,3.791-4.816c0-2.932-1.489-4.77-3.837-4.77
				C85.582,5.679,84.092,7.54,84.092,10.445z"/>
			<path fill="#231F20" d="M96.65,2.677H95.3V0.445h1.35V2.677z M96.65,16.028H95.3V4.84h1.35V16.028z"/>
			<path fill="#231F20" d="M100.65,5.308l-0.023,1.652c0.72-1.582,2.139-2.418,4-2.418c3.071,0,5.002,2.279,5.002,5.884
				c0,3.652-1.954,5.931-5.048,5.931c-2,0-3.35-0.839-4.023-2.491v2.163H99.3V0.538h1.35V5.308L100.65,5.308z M100.604,10.445
				c0,2.956,1.489,4.816,3.861,4.816c2.302,0,3.792-1.884,3.792-4.816c0-2.932-1.489-4.77-3.838-4.77
				C102.093,5.679,100.604,7.54,100.604,10.445z"/>
		</g>
	</g>
	<rect x="22.093" y="58.663" fill="#188558" width="207.402" height="21.782"/>
	<g>
		<path fill="#FFFFFF" d="M40.942,62.779h1.814v13.649h-1.463l-7.018-10.196v10.196h-1.814V62.779h1.403l7.082,10.25v-10.25H40.942z
			"/>
		<path fill="#FFFFFF" d="M53.908,75.201c-1.001,0.988-2.215,1.482-3.645,1.482s-2.64-0.494-3.635-1.482s-1.493-2.202-1.493-3.646
			c0-1.442,0.498-2.656,1.493-3.645s2.206-1.483,3.635-1.483s2.644,0.495,3.645,1.483c1.002,0.988,1.503,2.202,1.503,3.645
			C55.411,72.995,54.91,74.213,53.908,75.201z M50.263,75.025c0.975,0,1.794-0.331,2.458-0.995c0.664-0.663,0.995-1.489,0.995-2.478
			s-0.332-1.814-0.995-2.478c-0.663-0.664-1.482-0.992-2.458-0.992c-0.962,0-1.775,0.332-2.438,0.992
			c-0.664,0.663-0.995,1.489-0.995,2.478s0.332,1.814,0.995,2.478C48.488,74.694,49.301,75.025,50.263,75.025z"/>
		<path fill="#FFFFFF" d="M75.594,62.779v13.649H73.8V65.765l-4.464,7.43l-0.223-0.007l-4.478-7.43v10.674h-1.814V62.783h2.047
			l4.365,7.247l4.332-7.247h2.03V62.779z"/>
		<path fill="#FFFFFF" d="M79.375,64.906c-0.325,0-0.597-0.11-0.819-0.332c-0.222-0.219-0.332-0.487-0.332-0.8
			c0-0.312,0.109-0.58,0.332-0.81c0.222-0.229,0.494-0.341,0.819-0.341c0.312,0,0.581,0.112,0.799,0.341
			c0.219,0.227,0.332,0.498,0.332,0.81c0,0.313-0.109,0.577-0.332,0.8C79.956,64.793,79.687,64.906,79.375,64.906z M78.52,76.429
			v-9.748h1.695v9.748H78.52z"/>
		<path fill="#FFFFFF" d="M87.84,66.425c1.144,0,2.06,0.361,2.75,1.081c0.69,0.724,1.035,1.702,1.035,2.936v5.987H89.93v-5.888
			c0-0.793-0.215-1.406-0.644-1.841c-0.428-0.435-1.021-0.653-1.774-0.653c-0.846,0-1.529,0.266-2.046,0.789
			c-0.521,0.527-0.779,1.337-0.779,2.429v5.167h-1.698v-9.748h1.698v1.403C85.369,66.979,86.42,66.425,87.84,66.425z"/>
		<path fill="#FFFFFF" d="M95.015,64.906c-0.325,0-0.597-0.11-0.819-0.332c-0.222-0.219-0.332-0.487-0.332-0.8
			c0-0.312,0.109-0.58,0.332-0.81c0.219-0.229,0.494-0.341,0.819-0.341c0.312,0,0.577,0.112,0.799,0.341
			c0.219,0.227,0.332,0.498,0.332,0.81c0,0.313-0.109,0.577-0.332,0.8C95.592,64.793,95.326,64.906,95.015,64.906z M94.156,76.429
			v-9.748h1.698v9.748H94.156z"/>
		<path fill="#FFFFFF" d="M109.151,66.425c1.091,0,1.977,0.354,2.65,1.062c0.676,0.71,1.015,1.668,1.015,2.876v6.063h-1.698v-6.006
			c0-0.754-0.196-1.341-0.584-1.755c-0.391-0.415-0.909-0.624-1.562-0.624c-0.727,0-1.31,0.245-1.745,0.729
			c-0.435,0.488-0.653,1.234-0.653,2.232v5.42h-1.695v-6.007c0-0.753-0.186-1.34-0.557-1.755c-0.372-0.414-0.872-0.623-1.513-0.623
			c-0.716,0-1.31,0.248-1.784,0.739c-0.475,0.494-0.71,1.234-0.71,2.223v5.42h-1.698V66.67h1.698v1.308
			c0.664-1.038,1.632-1.56,2.906-1.56c1.313,0,2.269,0.554,2.866,1.658C106.763,66.979,107.785,66.425,109.151,66.425z"/>
		<path fill="#FFFFFF" d="M122.077,66.681h1.695v9.748h-1.695v-1.403c-0.69,1.104-1.741,1.658-3.158,1.658
			c-1.144,0-2.06-0.361-2.75-1.081s-1.035-1.701-1.035-2.936v-5.986h1.698v5.887c0,0.793,0.216,1.407,0.644,1.841
			c0.428,0.435,1.022,0.654,1.775,0.654c0.846,0,1.529-0.263,2.046-0.79c0.521-0.527,0.779-1.337,0.779-2.428V66.681L122.077,66.681
			z"/>
		<path fill="#FFFFFF" d="M137.053,66.425c1.092,0,1.977,0.354,2.65,1.062c0.677,0.71,1.016,1.668,1.016,2.876v6.063h-1.695v-6.006
			c0-0.754-0.196-1.341-0.584-1.755c-0.392-0.415-0.909-0.624-1.559-0.624c-0.727,0-1.311,0.245-1.745,0.729
			c-0.435,0.488-0.653,1.234-0.653,2.232v5.42h-1.694v-6.007c0-0.753-0.187-1.34-0.558-1.755c-0.372-0.414-0.872-0.623-1.513-0.623
			c-0.716,0-1.311,0.248-1.784,0.739c-0.475,0.494-0.714,1.234-0.714,2.223v5.42h-1.694V66.67h1.694v1.308
			c0.664-1.038,1.632-1.56,2.906-1.56c1.313,0,2.269,0.554,2.865,1.658C134.669,66.979,135.69,66.425,137.053,66.425z"/>
		<path fill="#FFFFFF" d="M156.281,69.351c0.623,0.298,1.121,0.727,1.493,1.287c0.371,0.561,0.557,1.204,0.557,1.93
			c0,1.092-0.385,2.007-1.151,2.75c-0.766,0.74-1.705,1.111-2.81,1.111h-5.888V62.779h5.46c1.065,0,1.971,0.358,2.71,1.071
			c0.74,0.717,1.111,1.599,1.111,2.653C157.761,67.712,157.267,68.66,156.281,69.351z M153.939,64.475h-3.648v4.173h3.648
			c0.57,0,1.055-0.202,1.442-0.604c0.392-0.405,0.584-0.896,0.584-1.483c0-0.57-0.199-1.061-0.594-1.473
			C154.978,64.68,154.5,64.475,153.939,64.475z M154.367,74.73c0.61,0,1.125-0.216,1.539-0.644c0.415-0.428,0.624-0.955,0.624-1.579
			c0-0.61-0.213-1.131-0.634-1.559c-0.422-0.428-0.932-0.644-1.532-0.644h-4.076v4.425H154.367z"/>
		<path fill="#FFFFFF" d="M168.604,66.681h1.695v9.748h-1.695V74.75c-0.846,1.287-2.073,1.931-3.686,1.931
			c-1.366,0-2.527-0.497-3.489-1.492s-1.442-2.206-1.442-3.636s0.48-2.64,1.442-3.639c0.962-0.995,2.127-1.492,3.489-1.492
			c1.612,0,2.84,0.644,3.686,1.93V66.681z M165.131,75.042c0.988,0,1.813-0.335,2.478-1.005c0.663-0.67,0.995-1.499,0.995-2.484
			c0-0.988-0.332-1.817-0.995-2.487c-0.664-0.667-1.489-1.002-2.478-1.002c-0.976,0-1.795,0.335-2.458,1.002
			c-0.663,0.67-0.995,1.499-0.995,2.487s0.332,1.817,0.995,2.484C163.34,74.71,164.155,75.042,165.131,75.042z"/>
		<path fill="#FFFFFF" d="M173.048,76.429V62.196h1.695v14.232H173.048z"/>
		<path fill="#FFFFFF" d="M185.586,66.681h1.698v9.748h-1.698V74.75c-0.846,1.287-2.073,1.931-3.686,1.931
			c-1.366,0-2.527-0.497-3.489-1.492s-1.442-2.206-1.442-3.636s0.48-2.64,1.442-3.639c0.962-0.995,2.126-1.492,3.489-1.492
			c1.612,0,2.84,0.644,3.686,1.93V66.681z M182.116,75.042c0.988,0,1.814-0.335,2.478-1.005c0.664-0.67,0.995-1.499,0.995-2.484
			c0-0.988-0.331-1.817-0.995-2.487c-0.663-0.667-1.489-1.002-2.478-1.002c-0.975,0-1.794,0.335-2.458,1.002
			c-0.663,0.67-0.995,1.499-0.995,2.487s0.332,1.817,0.995,2.484C180.322,74.71,181.142,75.042,182.116,75.042z"/>
		<path fill="#FFFFFF" d="M194.887,66.425c1.145,0,2.06,0.361,2.75,1.081c0.689,0.724,1.034,1.702,1.034,2.936v5.987h-1.694v-5.888
			c0-0.793-0.216-1.406-0.644-1.841c-0.429-0.435-1.021-0.653-1.775-0.653c-0.845,0-1.528,0.266-2.046,0.789
			c-0.521,0.527-0.779,1.337-0.779,2.429v5.167h-1.698v-9.748h1.698v1.403C192.419,66.979,193.47,66.425,194.887,66.425z"/>
		<path fill="#FFFFFF" d="M205.786,76.684c-1.47,0-2.69-0.49-3.665-1.473c-0.976-0.981-1.463-2.199-1.463-3.655
			s0.487-2.673,1.463-3.654c0.975-0.982,2.195-1.474,3.665-1.474c0.961,0,1.827,0.232,2.593,0.693
			c0.767,0.461,1.341,1.081,1.715,1.861l-1.422,0.819c-0.249-0.521-0.628-0.936-1.142-1.247c-0.514-0.313-1.095-0.468-1.744-0.468
			c-0.976,0-1.791,0.331-2.448,0.991c-0.657,0.664-0.985,1.489-0.985,2.478c0,0.976,0.328,1.795,0.985,2.458
			c0.657,0.664,1.473,0.995,2.448,0.995c0.649,0,1.233-0.152,1.754-0.457c0.521-0.306,0.916-0.717,1.191-1.237l1.442,0.839
			c-0.415,0.766-1.015,1.383-1.795,1.841C207.6,76.452,206.734,76.684,205.786,76.684z"/>
		<path fill="#FFFFFF" d="M213.079,72.335c0.17,0.873,0.567,1.55,1.201,2.027c0.631,0.48,1.406,0.72,2.328,0.72
			c1.287,0,2.223-0.475,2.807-1.423l1.442,0.819c-0.948,1.469-2.378,2.202-4.288,2.202c-1.549,0-2.807-0.484-3.775-1.453
			c-0.968-0.968-1.452-2.192-1.452-3.675c0-1.47,0.475-2.69,1.423-3.665c0.948-0.976,2.176-1.463,3.685-1.463
			c1.43,0,2.598,0.504,3.5,1.513c0.902,1.008,1.356,2.219,1.356,3.639c0,0.245-0.021,0.501-0.06,0.759H213.079L213.079,72.335z
			 M216.453,68.023c-0.909,0-1.665,0.259-2.262,0.77c-0.598,0.515-0.969,1.201-1.112,2.057h6.512
			c-0.143-0.922-0.508-1.625-1.091-2.106C217.915,68.266,217.232,68.023,216.453,68.023z"/>
	</g>
</g>
</svg>
