<?xml version="1.0" encoding="utf-8"?>
<!-- Generator: Adobe Illustrator 25.2.1, SVG Export Plug-In . SVG Version: 6.00 Build 0)  -->
<svg version="1.1" id="Layer_1" xmlns="http://www.w3.org/2000/svg" xmlns:xlink="http://www.w3.org/1999/xlink" x="0px" y="0px"
	 width="16px" height="22px" viewBox="0 0 16 22" enable-background="new 0 0 16 22" xml:space="preserve">
<g>
	<g>
		<path fill="#00A25A" d="M8,19c-4.41,0-8-3.59-8-8s3.59-8,8-8s8,3.59,8,8S12.41,19,8,19z M8,3.94c-3.89,0-7.06,3.16-7.06,7.06
			S4.11,18.06,8,18.06c3.89,0,7.06-3.16,7.06-7.06S11.89,3.94,8,3.94z"/>
	</g>
	<g>
		<path fill="#00A25A" d="M8.03,18.62c-0.26,0-0.47-0.21-0.47-0.47V3.71c0-0.26,0.21-0.47,0.47-0.47c0.26,0,0.47,0.21,0.47,0.47
			v14.44C8.5,18.41,8.29,18.62,8.03,18.62z"/>
	</g>
	<g>
		<path fill="#00A25A" d="M14.74,8.31H1.2c-0.26,0-0.47-0.21-0.47-0.47S0.94,7.36,1.2,7.36h13.54c0.26,0,0.47,0.21,0.47,0.47
			S15,8.31,14.74,8.31z"/>
	</g>
	<g>
		<path fill="#00A25A" d="M14.8,14.73H1.26c-0.26,0-0.47-0.21-0.47-0.47c0-0.26,0.21-0.47,0.47-0.47H14.8
			c0.26,0,0.47,0.21,0.47,0.47C15.27,14.51,15.06,14.73,14.8,14.73z"/>
	</g>
	<g>
		<path fill="#00A25A" d="M15.1,11.52H0.52c-0.26,0-0.47-0.21-0.47-0.47c0-0.26,0.21-0.47,0.47-0.47H15.1
			c0.26,0,0.47,0.21,0.47,0.47C15.57,11.31,15.36,11.52,15.1,11.52z"/>
	</g>
	<g>
		<path fill="#00A25A" d="M8,19c-2.31,0-4.11-3.51-4.11-8S5.69,3,8,3s4.11,3.51,4.11,8S10.31,19,8,19z M8,3.94
			c-1.53,0-3.17,2.83-3.17,7.06S6.47,18.06,8,18.06s3.17-2.83,3.17-7.06S9.53,3.94,8,3.94z"/>
	</g>
</g>
</svg>
