<?xml version="1.0" encoding="utf-8"?>
<!-- Generator: Adobe Illustrator 25.2.1, SVG Export Plug-In . SVG Version: 6.00 Build 0)  -->
<svg version="1.1" id="Layer_1" xmlns="http://www.w3.org/2000/svg" xmlns:xlink="http://www.w3.org/1999/xlink" x="0px" y="0px"
	 width="16px" height="22px" viewBox="0 0 16 22" enable-background="new 0 0 16 22" xml:space="preserve">
<g>
	<g>
		<path fill="#00A25A" d="M8.15,18.94c-0.58,0-1.17-0.06-1.76-0.19c-2.1-0.46-3.9-1.72-5.08-3.52c-1.17-1.82-1.58-3.98-1.14-6.09
			l0.02-0.1c0.25-1.17,0.78-2.3,1.52-3.26c0.1-0.13,0.19-0.24,0.28-0.34L2.1,5.32C2.29,5.1,2.5,4.9,2.71,4.71
			c0.06-0.06,0.13-0.11,0.2-0.17c0.16-0.13,0.31-0.25,0.47-0.36C4.03,3.71,4.71,3.35,5.42,3.1c0.25-0.09,0.53-0.05,0.75,0.12
			L6.3,3.33c0.22,0.24,0.27,0.59,0.14,0.89c-0.2,0.44-0.35,0.9-0.45,1.37C5.88,6.09,5.83,6.61,5.84,7.15L5.8,7.44
			c0.04,1.74,0.75,3.43,2.01,4.7c0.83,0.84,1.87,1.44,3.02,1.74l0.09,0.03c0.11,0.03,0.22,0.06,0.32,0.08
			c0.92,0.18,1.85,0.17,2.72-0.03c0.32-0.07,0.65,0.06,0.84,0.33l0,0c0.19,0.27,0.2,0.62,0.03,0.91c-0.48,0.8-1.11,1.5-1.85,2.11
			c-0.5,0.38-1.03,0.69-1.59,0.94C10.37,18.71,9.26,18.94,8.15,18.94z M2.43,6.26L2.38,6.32C1.73,7.16,1.26,8.17,1.03,9.23
			c-0.4,1.97-0.04,3.9,1.01,5.53c1.05,1.61,2.66,2.73,4.54,3.15c1.52,0.34,3.07,0.18,4.48-0.45c0.5-0.22,0.98-0.5,1.41-0.83
			c0.63-0.51,1.17-1.12,1.6-1.8c-0.96,0.2-1.98,0.21-2.98,0.01c-0.13-0.02-0.25-0.06-0.38-0.09l-0.09-0.02
			c-1.29-0.34-2.47-1.03-3.41-1.97c-1.42-1.43-2.22-3.33-2.26-5.37l0.04-0.29C4.97,6.56,5.02,5.97,5.14,5.41
			c0.11-0.53,0.29-1.05,0.51-1.55C5.08,4.14,4.47,4.46,3.88,4.88c-0.14,0.1-0.27,0.2-0.4,0.31C3.4,5.26,3.34,5.3,3.29,5.35
			C3.09,5.52,2.91,5.71,2.74,5.9L2.32,5.71l0.33,0.28C2.57,6.08,2.5,6.17,2.43,6.26z"/>
	</g>
	<g>
		<path fill="#00A25A" d="M14.05,10.68l-0.09-0.01c-0.12-0.01-0.22-0.04-0.32-0.09l-1.32-0.71l-1.31,0.7
			c-0.12,0.06-0.25,0.09-0.38,0.1l-0.05,0c-0.07,0-0.13-0.01-0.18-0.02l-0.08-0.02c-0.07-0.02-0.13-0.05-0.18-0.09l-0.02-0.01
			C9.8,10.31,9.67,9.98,9.72,9.64l0.25-1.5L8.91,7.08C8.67,6.84,8.58,6.49,8.69,6.17c0.1-0.32,0.38-0.56,0.71-0.6l1.47-0.22
			l0.66-1.36c0.3-0.62,1.28-0.62,1.59,0l0.66,1.37l1.47,0.21c0.33,0.05,0.61,0.28,0.71,0.61c0.1,0.33,0.02,0.67-0.22,0.91
			l-1.07,1.07l0.26,1.5c0.05,0.32-0.07,0.63-0.31,0.83l-0.13,0.09c-0.05,0.03-0.1,0.05-0.15,0.07l-0.11,0.03
			c-0.01,0-0.04,0.01-0.08,0.02L14.05,10.68z M10.57,9.8l0.03,0.02l0.02,0l1.6-0.86h0.22L12.53,9l1.51,0.81l0.02,0l-0.34-2.12
			l0.26-0.09l1.15-1.15c0.01-0.01,0.01-0.02,0.01-0.03l-1.85-0.29l-0.19-0.22l-0.75-1.56l-0.91,1.81l-0.28,0.01L9.52,6.42l1.14,1.19
			l0.25,0.07l-0.05,0.38L10.57,9.8z M14.21,7.99L14.21,7.99L14.21,7.99z"/>
	</g>
</g>
</svg>
