<svg xmlns="http://www.w3.org/2000/svg" xml:space="preserve" class="svg replaced-svg" viewBox="0 0 45 45"><path fill="#FFF" d="M3.12 41.93c-.2 0-.37-.32-.37-.71s.17-.71.37-.71h38.76c.2 0 .37.32.37.71 0 .39-.17.71-.37.71H3.12zM.32 45c-.15 0-.32-.28-.32-.68s.17-.68.32-.68h44.35c.15 0 .32.28.32.68s-.17.68-.32.68H.32zM.65 17.13a.65.65 0 0 1-.65-.66c0-.22.1-.41.27-.53L22.11.13c.11-.09.24-.13.38-.13s.27.04.39.13l21.85 15.82c.29.21.35.62.15.92-.12.17-.32.27-.54.27H.65zm2.03-1.31h39.63L22.5 1.47 2.68 15.82zM30.45 38.98c-.37 0-.65-.29-.65-.66 0-.37.29-.66.65-.66h1.61V20.15h-1.61c-.37 0-.65-.29-.65-.66 0-.37.29-.66.65-.66h9.04c.37 0 .65.29.65.66 0 .37-.29.66-.65.66h-1.61v17.52h1.61c.37 0 .65.29.65.66 0 .37-.29.66-.65.66h-9.04zm2.91-1.31h3.22V20.15h-3.22v17.52zM5.92 38.98c-.37 0-.65-.29-.65-.66 0-.37.29-.66.65-.66h1.61V20.15H5.92c-.37 0-.65-.29-.65-.66 0-.37.29-.66.65-.66h9.04c.37 0 .65.29.65.66 0 .37-.29.66-.65.66h-1.61v17.52h1.61c.37 0 .65.29.65.66 0 .37-.29.66-.65.66H5.92zm2.91-1.31h3.22V20.15H8.83v17.52zM22.5 33.75c-.36 0-.65-.29-.65-.65v-3.52h-3.49c-.36 0-.65-.29-.65-.65 0-.39.29-.68.65-.68h3.49v-3.52c0-.36.29-.65.65-.65.37 0 .66.29.66.65v3.52h3.49c.36 0 .65.29.65.65 0 .39-.29.68-.65.68h-3.49v3.52c-.01.36-.3.65-.66.65z"/></svg>