<svg xmlns="http://www.w3.org/2000/svg" xml:space="preserve" class="svg replaced-svg" viewBox="0 0 45 45"><path fill="#FFF" d="M15.1 20.1c-5.1 0-9.2-4.1-9.2-9.2s4.1-9.2 9.2-9.2 9.2 4.1 9.2 9.2c.1 5-4.1 9.2-9.2 9.2zm0-16.5c-4 0-7.3 3.3-7.3 7.3s3.3 7.3 7.3 7.3 7.3-3.3 7.3-7.3c0-4.1-3.2-7.3-7.3-7.3zM29.5 40.9c-3 0-5.4-2.4-5.4-5.4s2.4-5.4 5.4-5.4 5.4 2.4 5.4 5.4-2.4 5.4-5.4 5.4zm0-9.4c-1.1 0-2.1.4-2.9 1.2-.8.8-1.2 1.8-1.2 2.9 0 2.3 1.9 4.1 4.1 4.1 2.3 0 4.1-1.8 4.1-4.1s-1.8-4.1-4.1-4.1v-.1.1z"/><path fill="#FFF" d="M24.8 41h-4.7c-.2 0-.4-.1-.5-.2l-2.4-2.6c-.2-.2-.2-.3-.2-.5v-4.2c0-.2.1-.4.2-.5l2.7-2.6c.1-.1.3-.2.5-.2h4.5c.4 0 .7.3.7.7 0 .4-.3.7-.7.7h-4.2l-2.3 2.2v3.7l2 2.2h4.4c.4 0 .7.3.7.7s-.4.6-.7.6z"/><path fill="#FFF" d="M15.3 43.4c-.4 0-.7-.3-.7-.7V28.5c0-.4.3-.7.7-.7h29.1c.4 0 .7.3.7.7v14.2c0 .4-.3.7-.7.7H15.3zM43.7 42V29.1H30.2V29v.1h-.8V29v.1H15.9V42h27.8z"/><path fill="#FFF" d="M39.5 41h-4.7c-.4 0-.7-.3-.7-.7s.3-.7.7-.7h4.4l2-2.2v-3.7L39 31.5h-4.2c-.4 0-.7-.3-.7-.7 0-.4.3-.7.7-.7h4.5c.2 0 .3.1.5.2l2.6 2.6c.1.2.2.3.2.5v4.2c0 .2-.1.3-.2.5L40 40.7c-.1.2-.3.3-.5.3zM29 37.1c-.1-.2-.1-.3-.1-.5v-.4c0-.1-.1-.2-.1-.3 0 0-.1-.1-.3-.1h-.6V37h-1v-3.4h1.9c.2 0 .3 0 .4.1s.3.1.3.2c.1.1.2.2.2.3.1.1.1.2.1.4s0 .4-.1.5c0 .1-.1.2-.2.2l.2.2c0 .1.1.2.1.3V36.8l.2.2-1 .1zm-.4-2c.1 0 .2 0 .3-.1 0 0 .1-.1.1-.2s0-.2-.1-.2-.1-.1-.3-.1H28v.6h.6zM31.2 37.2h-.4c-.1 0-.3-.1-.4-.1l-.3-.3c-.1-.2-.1-.4-.1-.6V36h.7-.1c-.1 0-.2-.1-.3-.1-.1-.1-.2-.1-.2-.2-.1-.1-.1-.2-.1-.3 0-.2 0-.3.1-.4l.3-.3c.1-.1.2-.1.4-.1h.8c.1 0 .3.1.4.1l.3.3c.1.1.1.2.1.4v.2h-.6.1c.1 0 .2.1.3.1.1.1.2.1.2.2.1.1.1.2.1.3 0 .2 0 .3-.1.4l-.3.3c-.1.1-.3.1-.4.1-.2.1-.3.2-.5.2zm-.3-1.1v.2l.1.1h.6l-.1-.1c-.2-.1-.4-.1-.6-.2zm.3-.9s-.1 0 0 0H31l.1.1h.4v-.1c0-.1 0-.1-.1-.1 0 .1-.1.1-.2.1zM1 37.8c-.5 0-1-.4-1-1 0-5.2 2.9-10 7.9-12.7s10.8-2.7 15.3.1c.4.3.6.9.3 1.3s-.9.6-1.3.3c-3.9-2.4-9-2.5-13.3-.1S2 32.2 2 36.7c-.1.7-.5 1.1-1 1.1z"/></svg>