<svg xmlns="http://www.w3.org/2000/svg" xml:space="preserve" class="svg replaced-svg" viewBox="0 0 45 45"><path fill="#FFF" d="M3.46 11.33v21.85c0 1.1.4 2.2 1.2 2.91.8.8 1.8 1.2 2.91 1.2H21.9v6.51h-6.82c-.2 0-.3.1-.4.2-.1.1-.2.2-.2.4 0 .1.1.3.2.4.1.1.2.2.4.2h15.23c.1 0 .3-.1.4-.2s.2-.3.2-.4c0-.2-.1-.3-.2-.4s-.2-.2-.4-.2H23.1v-6.51h14.33c1.1 0 2.1-.4 2.91-1.2.8-.8 1.2-1.8 1.2-2.91V11.33c0-1.1-.4-2.2-1.2-2.91-.8-.8-1.8-1.2-2.91-1.2h-3.61V3.41c0-.9-.4-1.8-1-2.41-.6-.6-1.5-1-2.41-1H18.99l-7.12 7.12h-4c-1.1 0-2.1.4-2.91 1.2-1.1.8-1.5 1.9-1.5 3.01m4.11-3.01h3.61v21.15H4.56V11.33c0-.8.3-1.6.9-2.1.5-.61 1.31-.91 2.11-.91m29.86 27.86H7.57c-.8 0-1.6-.3-2.1-.9-.6-.6-.9-1.3-.9-2.1v-2.61h35.88v2.61c0 .8-.3 1.6-.9 2.1-.51.6-1.32.9-2.12.9m0-27.86c.8 0 1.6.3 2.1.9.6.6.9 1.3.9 2.1v18.14h-6.61V8.32h3.61zm-4.71-4.91v26.06H12.28V8.42h3.91c.9 0 1.8-.4 2.41-1s1-1.5 1-2.41V1h10.72c.6 0 1.2.2 1.6.7.5.4.8 1.01.8 1.71M13.08 7.22l5.41-5.41v3.11c0 .6-.2 1.2-.7 1.6-.4.4-1 .7-1.6.7h-3.11z"/><path fill="#FFF" d="M26.75 12.3v12.12h-1.56l-5.71-8.23v8.23h-1.99V12.3h1.56l5.71 8.23V12.3h1.99z"/></svg>