<svg xmlns="http://www.w3.org/2000/svg" xmlns:xlink="http://www.w3.org/1999/xlink" viewBox="4.5 4.5 45 45" xml:space="preserve" class="svg replaced-svg"><defs><path id="a" d="M4.5 4.5h45v45h-45z"/></defs><clipPath id="b"><use xlink:href="#a" overflow="visible"/></clipPath><path clip-path="url(#b)" fill="#FFF" d="m39.153 14.877-11.708-8.48a.402.402 0 0 0-.474 0l-11.708 8.479a.403.403 0 0 0 .238.73h23.416c.224 0 .402-.18.402-.404a.398.398 0 0 0-.166-.325m-22.407-.078 10.462-7.576 10.463 7.576H16.746z"/><defs><path id="c" d="M4.5 4.5h45v45h-45z"/></defs><clipPath id="d"><use xlink:href="#c" overflow="visible"/></clipPath><path clip-path="url(#d)" fill="#FFF" d="M37.705 28.123H16.71a.403.403 0 1 0 0 .807h20.995a.402.402 0 0 0 .401-.405.4.4 0 0 0-.401-.402"/><defs><path id="e" d="M4.5 4.5h45v45h-45z"/></defs><clipPath id="f"><use xlink:href="#e" overflow="visible"/></clipPath><path clip-path="url(#f)" fill="#FFF" d="M38.916 29.738H15.5c-.223 0-.404.182-.404.404s.182.403.404.403h23.416a.403.403 0 1 0 0-.807"/><g><defs><path id="g" d="M4.5 4.5h45v45h-45z"/></defs><clipPath id="h"><use xlink:href="#g" overflow="visible"/></clipPath><path clip-path="url(#h)" fill="#FFF" d="M23.17 26.508h-.808v-9.286h.808a.403.403 0 1 0 0-.807h-4.845a.404.404 0 0 0 0 .807h.808v9.286h-.808a.404.404 0 0 0 0 .807h4.845a.403.403 0 1 0 0-.807m-1.615 0H19.94v-9.286h1.615v9.286z"/></g><g><defs><path id="i" d="M4.5 4.5h45v45h-45z"/></defs><clipPath id="j"><use xlink:href="#i" overflow="visible"/></clipPath><path clip-path="url(#j)" fill="#FFF" d="M29.633 26.508h-.809v-9.286h.809a.404.404 0 0 0 0-.807h-4.845a.404.404 0 1 0 0 .807h.807v9.286h-.807a.404.404 0 1 0 0 .807h4.845c.222 0 .401-.18.401-.403a.402.402 0 0 0-.401-.404m-1.615 0h-1.615v-9.286h1.615v9.286z"/></g><g><defs><path id="k" d="M4.5 4.5h45v45h-45z"/></defs><clipPath id="l"><use xlink:href="#k" overflow="visible"/></clipPath><path clip-path="url(#l)" fill="#FFF" d="M36.09 26.508h-.807v-9.286h.807a.404.404 0 0 0 0-.807h-4.845a.403.403 0 0 0 0 .807h.809v9.286h-.809a.402.402 0 0 0-.402.404c0 .224.181.403.402.403h4.845c.223 0 .402-.18.402-.403a.402.402 0 0 0-.402-.404m-1.614 0H32.86v-9.286h1.615v9.286z"/></g><g><defs><path id="m" d="M4.5 4.5h45v45h-45z"/></defs><clipPath id="n"><use xlink:href="#m" overflow="visible"/></clipPath><path clip-path="url(#n)" fill="#FFF" d="M24.729 38.54c-.454 0-.657-.347-.657-.688s.203-.688.657-.688h5.33c.454 0 .657.345.657.687 0 .344-.203.69-.657.69h-5.33z"/></g><g><defs><path id="o" d="M4.5 4.5h45v45h-45z"/></defs><clipPath id="p"><use xlink:href="#o" overflow="visible"/></clipPath><path clip-path="url(#p)" fill="#FFF" d="M45.213 10.143h-8.649a.596.596 0 1 0 0 1.19h8.651a2.88 2.88 0 0 1 2.881 2.882v19.626H6.321V14.214a2.882 2.882 0 0 1 2.882-2.882h8.834a.595.595 0 0 0 0-1.19H9.203a4.07 4.07 0 0 0-4.071 4.071v23.739c0 2.085 1.545 3.81 3.655 4.028.08.027.146.042.209.042H20.84v3.942h-1.902c-.455 0-.657.346-.657.689 0 .343.202.688.657.688H35.48c.455 0 .658-.346.658-.688 0-.344-.203-.689-.658-.689h-1.901v-3.942h11.844a.925.925 0 0 0 .271-.058c2.048-.202 3.594-1.928 3.594-4.013V14.214a4.076 4.076 0 0 0-4.075-4.071M32.198 45.966h-9.981v-3.941h9.981v3.941zm15.898-8.014c0 1.494-1.176 2.751-2.691 2.863l-18.512-.001h-17.9c-1.499-.111-2.672-1.368-2.672-2.862v-2.856h41.775v2.856z"/></g></svg>