<?xml version="1.0" encoding="utf-8"?>
<!-- Generator: Adobe Illustrator 16.0.0, SVG Export Plug-In . SVG Version: 6.00 Build 0)  -->
<!DOCTYPE svg PUBLIC "-//W3C//DTD SVG 1.1//EN" "http://www.w3.org/Graphics/SVG/1.1/DTD/svg11.dtd">
<svg version="1.1" id="Layer_1" xmlns="http://www.w3.org/2000/svg" xmlns:xlink="http://www.w3.org/1999/xlink" x="0px" y="0px"
	 width="250px" height="80px" viewBox="0 0 250 80" enable-background="new 0 0 250 80" xml:space="preserve">
<g>
	<g>
		<path fill="#221F1F" d="M12.151,31.385h-1.425l-1.604-4.216H3.014l-1.668,4.216H0l5.381-13.417h1.425L12.151,31.385z
			 M6.806,21.201c-0.239-0.622-0.563-1.505-0.722-2.048c-0.22,0.603-0.543,1.466-0.743,1.969l-1.967,5.021h5.36L6.806,21.201z"/>
		<path fill="#221F1F" d="M22.15,31.385h-8.798V18.009h1.285v12.27h7.513V31.385z"/>
		<path fill="#221F1F" d="M38.132,31.385h-1.265v-6.447h-7.991v6.447h-1.285V18.009h1.265v5.803h7.991v-5.803h1.285V31.385z"/>
		<path fill="#221F1F" d="M49.037,31.325c-0.299,0.099-0.582,0.139-0.921,0.139c-0.922,0-1.246-0.443-1.246-1.749
			c-0.882,1.366-1.988,1.949-3.656,1.949c-1.968,0-3.173-1.007-3.173-2.73c0-1.749,1.205-2.751,3.597-2.994l1.625-0.159
			c1.165-0.101,1.544-0.403,1.544-1.227c0-1.465-0.783-2.106-2.531-2.106c-1.668,0-2.491,0.702-2.651,2.271h-1.125
			c0.1-2.088,1.505-3.253,3.916-3.253c1.246,0,2.351,0.363,2.954,0.982c0.463,0.502,0.583,0.966,0.583,2.41v0.08v2.73v1.465
			c0,1.245,0.06,1.365,0.643,1.365c0.16,0,0.239-0.02,0.442-0.08V31.325z M45.142,26.662l-0.986,0.14
			c-2.068,0.299-2.85,0.862-2.85,2.048c0,1.146,0.842,1.868,2.188,1.868c1.928,0,3.313-1.266,3.313-3.014v-1.565
			C46.467,26.423,46.124,26.542,45.142,26.662z"/>
		<path fill="#221F1F" d="M51.484,22.124l-0.02,1.425c0.623-1.365,1.849-2.088,3.453-2.088c2.65,0,4.319,1.967,4.319,5.081
			c0,3.154-1.689,5.122-4.359,5.122c-1.728,0-2.89-0.723-3.473-2.148v1.869h-1.085V18.009h1.166V22.124z M51.444,26.563
			c0,2.55,1.285,4.155,3.333,4.155c1.987,0,3.272-1.629,3.272-4.155c0-2.531-1.285-4.115-3.313-4.115
			C52.729,22.447,51.444,24.052,51.444,26.563z"/>
		<path fill="#221F1F" d="M62.29,19.856h-1.166v-1.928h1.166V19.856z M62.29,31.385h-1.166v-9.66h1.166V31.385z"/>
		<path fill="#221F1F" d="M65.742,22.124l-0.02,1.425c0.622-1.365,1.848-2.088,3.452-2.088c2.65,0,4.319,1.967,4.319,5.081
			c0,3.154-1.688,5.122-4.359,5.122c-1.729,0-2.89-0.723-3.473-2.148v1.869h-1.086V18.009h1.166V22.124z M65.702,26.563
			c0,2.55,1.286,4.155,3.333,4.155c1.988,0,3.273-1.629,3.273-4.155c0-2.531-1.286-4.115-3.313-4.115
			C66.988,22.447,65.702,24.052,65.702,26.563z"/>
	</g>
	<g>
		<path fill="#1A8357" d="M0.056,43.687h1.353v3.48c0.675-2.063,3.277-3.752,6.083-3.752c2.87,0,5.237,1.453,6.251,4.698
			c0.71-2.535,3.005-4.698,6.522-4.698c3.956,0,6.862,2.634,6.862,8.65v9.73h-1.353V52.2c0-4.462-1.621-7.469-5.644-7.469
			c-3.753,0-5.848,2.771-5.848,7.334v9.73h-1.349V52.2c0-4.462-1.621-7.469-5.576-7.469c-3.142,0-5.948,1.996-5.948,7.369V61.8
			H0.056V43.687z"/>
		<path fill="#1A8357" d="M38.14,50.444c2.332,0,4.527,0.539,6.455,1.725v-1.046c0-4.459-2.231-6.387-6.183-6.387
			c-2.702,0-5.102,1.113-6.083,2.195v-1.557c1.317-1.149,3.584-1.96,6.183-1.96c4.259,0,7.468,2.064,7.468,7.4l-0.032,10.98h-1.353
			v-2.77c-1.285,1.824-4.155,3.041-7.233,3.041c-4.056,0-6.658-2.195-6.658-5.711C30.704,52.676,33.646,50.444,38.14,50.444z
			 M37.801,60.751c3.074,0,5.305-1.25,6.794-3.481v-3.648c-1.959-1.353-4.223-1.86-6.522-1.86c-3.684,0-5.916,1.689-5.916,4.495
			C32.157,59.465,34.724,60.751,37.801,60.751z"/>
		<path fill="#1A8357" d="M50.638,35.879h1.354v11.624c0.439-1.589,3.277-4.088,7.165-4.088c4.327,0,7.233,2.398,7.233,8.415v9.966
			h-1.354v-9.831c0-4.462-1.62-7.233-6.151-7.233c-4.088,0-6.894,3.007-6.894,7.369V61.8h-1.354V35.879L50.638,35.879z"/>
		<path fill="#1A8357" d="M77.402,50.444c2.331,0,4.526,0.539,6.455,1.725v-1.046c0-4.459-2.231-6.387-6.184-6.387
			c-2.702,0-5.101,1.113-6.083,2.195v-1.557c1.317-1.149,3.581-1.96,6.183-1.96c4.259,0,7.468,2.064,7.468,7.4l-0.036,10.98h-1.353
			v-2.77c-1.286,1.824-4.155,3.041-7.233,3.041c-4.055,0-6.658-2.195-6.658-5.711C69.965,52.676,72.907,50.444,77.402,50.444z
			 M77.063,60.751c3.073,0,5.305-1.25,6.794-3.481v-3.648c-1.96-1.353-4.223-1.86-6.522-1.86c-3.685,0-5.912,1.689-5.912,4.495
			C71.418,59.465,73.989,60.751,77.063,60.751z"/>
		<path fill="#1A8357" d="M89.968,43.687h1.353v3.48c0.644-1.96,3.278-3.752,6.894-3.752c4.595,0,7.504,2.398,7.504,8.415v9.966
			h-1.353v-9.831c0-4.462-1.62-7.233-6.422-7.233c-3.82,0-6.623,1.996-6.623,7.369V61.8h-1.353V43.687z"/>
		<path fill="#1A8357" d="M116.731,50.444c2.331,0,4.526,0.539,6.454,1.725v-1.046c0-4.459-2.231-6.387-6.183-6.387
			c-2.703,0-5.102,1.113-6.083,2.195v-1.557c1.317-1.149,3.581-1.96,6.183-1.96c4.259,0,7.469,2.064,7.469,7.4l-0.036,10.98h-1.354
			v-2.77c-1.285,1.824-4.155,3.041-7.232,3.041c-4.056,0-6.659-2.195-6.659-5.711C109.295,52.676,112.237,50.444,116.731,50.444z
			 M116.392,60.751c3.074,0,5.305-1.25,6.793-3.481v-3.648c-1.959-1.353-4.223-1.86-6.522-1.86c-3.684,0-5.915,1.689-5.915,4.495
			C110.748,59.465,113.319,60.751,116.392,60.751z"/>
		<path fill="#EAAF57" d="M128.727,43.279h4.798v2.399c1.218-1.96,3.277-2.671,5.305-2.671c2.467,0,4.495,1.081,5.676,3.109
			c1.354-2.063,3.413-3.109,6.084-3.109c4.395,0,7.232,2.299,7.232,8.649v10.139h-4.798v-8.989c0-4.458-1.285-5.712-3.685-5.712
			c-3.178,0-3.684,2.5-3.684,5.138v9.563h-4.798v-8.989c0-4.458-1.354-5.712-3.649-5.712c-2.974,0-3.684,2.231-3.684,4.595v10.103
			h-4.798V43.279L128.727,43.279z"/>
		<path fill="#EAAF57" d="M160.755,43.279h4.799v9.664c0,3.784,1.724,5.033,4.122,5.033c3.11,0,4.156-2.231,4.156-4.595V43.279
			h4.798v18.517h-4.798v-2.331c-1.113,1.656-3.444,2.603-5.88,2.603c-4.563,0-7.197-3.313-7.197-8.989V43.279L160.755,43.279z"/>
		<path fill="#EAAF57" d="M182.414,43.279h4.797v2.331c1.454-1.656,3.785-2.603,5.98-2.603c4.462,0,7.097,2.634,7.097,8.314v10.474
			h-4.798v-9.663c0-3.784-1.725-5.033-4.123-5.033c-3.109,0-4.156,2.23-4.156,4.594v10.103h-4.797V43.279L182.414,43.279z"/>
		<path fill="#EAAF57" d="M210.73,50.173c1.353,0,2.703,0.167,4.056,0.539V50.68c0-2.263-1.453-3.413-4.021-3.413
			c-2.366,0-4.934,0.946-6.318,2.164v-4.359c1.485-1.249,4.087-2.06,6.927-2.06c5.675,0,8.278,2.738,8.246,8.415V61.8h-4.799v-1.552
			c-0.574,0.606-2.366,1.823-5.711,1.823c-3.21,0-6.251-1.991-6.251-5.712C202.855,52.404,206.168,50.173,210.73,50.173z
			 M210.662,58.42c1.689,0,3.178-0.607,4.156-1.757v-2.467c-1.114-0.471-2.196-0.675-3.246-0.675c-2.33,0-3.852,1.082-3.852,2.635
			C207.725,57.81,209.277,58.42,210.662,58.42z"/>
		<path fill="#EAAF57" d="M233.1,47.167h-4.595v14.629h-4.798V47.167h-2.467v-3.919h2.467v-2.164c0-3.952,2.503-5.744,5.608-5.744
			c1.489,0,2.806,0.407,3.752,1.082v3.412c-0.574-0.439-1.354-0.778-2.331-0.778c-1.453,0-2.231,0.778-2.231,2.703v1.489h4.595
			V47.167L233.1,47.167z"/>
		<path fill="#EAAF57" d="M241.107,50.173c1.352,0,2.702,0.167,4.056,0.539V50.68c0-2.263-1.454-3.413-4.021-3.413
			c-2.366,0-4.934,0.946-6.318,2.164v-4.359c1.484-1.249,4.087-2.06,6.929-2.06c5.677,0,8.279,2.738,8.247,8.415V61.8h-4.797v-1.552
			c-0.576,0.606-2.368,1.823-5.713,1.823c-3.21,0-6.251-1.991-6.251-5.712C233.235,52.404,236.544,50.173,241.107,50.173z
			 M241.039,58.42c1.688,0,3.178-0.607,4.155-1.757v-2.467c-1.114-0.471-2.196-0.675-3.245-0.675c-2.331,0-3.853,1.082-3.853,2.635
			C238.101,57.81,239.653,58.42,241.039,58.42z"/>
	</g>
</g>
</svg>
