<?xml version="1.0" encoding="utf-8"?>
<!-- Generator: Adobe Illustrator 16.0.0, SVG Export Plug-In . SVG Version: 6.00 Build 0)  -->
<!DOCTYPE svg PUBLIC "-//W3C//DTD SVG 1.1//EN" "http://www.w3.org/Graphics/SVG/1.1/DTD/svg11.dtd">
<svg version="1.1" id="Layer_1" xmlns="http://www.w3.org/2000/svg" xmlns:xlink="http://www.w3.org/1999/xlink" x="0px" y="0px"
	 width="250px" height="80px" viewBox="0 0 250 80" enable-background="new 0 0 250 80" xml:space="preserve">
<g>
	<g>
		<path fill="#000100" d="M9.508,15.065H3.462l-1.011,2.92H0.448L5.521,4.302h1.872l5.166,13.683h-2.003L9.508,15.065z
			 M8.928,13.417L6.457,6.529l-2.415,6.888H8.928z"/>
		<path fill="#000100" d="M22.55,16.282v1.703h-8.162V4.302h1.872v11.979H22.55z"/>
		<path fill="#000100" d="M40.982,4.302v13.683h-1.891v-6.046h-7.039v6.046h-1.872V4.302h1.872v5.952h7.039V4.302H40.982z"/>
		<path fill="#000100" d="M47.548,11.621c0.991,0,1.946,0.188,2.845,0.581v-0.263c0-1.797-0.992-2.639-2.77-2.639
			c-1.385,0-2.771,0.58-3.444,1.216V8.794c0.786-0.674,2.153-1.123,3.669-1.123c2.789,0,4.38,1.348,4.361,4.418v5.896h-1.797v-1.161
			c-0.505,0.636-1.76,1.31-3.557,1.31c-1.984,0-3.557-1.161-3.557-3.164C43.299,12.856,45.04,11.621,47.548,11.621z M47.455,16.693
			c1.272,0,2.284-0.505,2.958-1.403v-1.666c-0.842-0.468-1.722-0.655-2.621-0.655c-1.628,0-2.639,0.749-2.639,1.909
			C45.152,16.188,46.256,16.693,47.455,16.693z"/>
		<path fill="#000100" d="M60.478,18.134c-1.478,0-3.032-0.636-3.762-1.965v1.816h-1.797V3.516h1.797v6.121
			C57.39,8.307,59,7.671,60.459,7.671c2.789,0,4.942,2.022,4.942,5.223C65.402,16.131,63.305,18.134,60.478,18.134z M60.104,9.3
			c-2.152,0-3.481,1.535-3.481,3.612c0,2.021,1.254,3.594,3.5,3.594c2.171,0,3.406-1.459,3.406-3.537
			C63.529,10.778,62.238,9.3,60.104,9.3z"/>
		<path fill="#000100" d="M67.456,5.106c0-0.598,0.487-1.085,1.085-1.085c0.6,0,1.086,0.487,1.086,1.085
			c0,0.618-0.486,1.105-1.086,1.105C67.942,6.211,67.456,5.725,67.456,5.106z M69.44,7.821v10.164h-1.797V7.821H69.44z"/>
		<path fill="#000100" d="M77.805,18.134c-1.479,0-3.033-0.636-3.762-1.965v1.816h-1.797V3.516h1.797v6.121
			c0.674-1.33,2.283-1.966,3.743-1.966c2.789,0,4.942,2.022,4.942,5.223C82.728,16.131,80.632,18.134,77.805,18.134z M77.431,9.3
			c-2.152,0-3.481,1.535-3.481,3.612c0,2.021,1.254,3.594,3.5,3.594c2.171,0,3.407-1.459,3.407-3.537
			C80.856,10.778,79.564,9.3,77.431,9.3z"/>
	</g>
	<g>
		<path fill="#158357" d="M0.398,45.579c1.562,1.318,3.922,1.874,6.247,1.874c2.811,0,4.824-0.867,4.824-3.367
			c0-1.595-0.659-3.228-5.657-4.719c-3.228-0.972-5.691-2.395-5.691-5.205c0-3.124,3.019-4.477,6.039-4.512
			c2.394-0.035,4.372,0.486,5.899,1.562v1.527c-1.77-1.25-3.748-1.735-5.83-1.735c-1.943,0-4.616,0.555-4.616,3.124
			c0,1.839,1.423,3.019,5.379,4.233c4.13,1.284,5.968,2.949,5.968,5.761c0,3.296-2.706,4.686-6.419,4.686
			c-2.672,0-4.858-0.659-6.143-1.598V45.579z"/>
		<path fill="#158357" d="M34.649,39.749H18.096c0.313,5.136,3.991,7.634,8.467,7.634c2.603,0,5.067-1.005,6.247-1.979v1.562
			c-1.561,0.938-3.504,1.77-6.177,1.77c-5.9,0-10.099-3.504-10.064-9.681c0.035-5.969,4.095-9.404,9.161-9.404
			c4.72,0,8.78,2.95,8.919,9.197V39.749z M18.062,38.464h15.13c-0.313-5.135-3.47-7.461-7.427-7.461
			C21.149,31.003,18.269,33.884,18.062,38.464z"/>
		<path fill="#158357" d="M39.403,29.928h1.388v3.574c0.659-2.013,3.366-3.852,7.08-3.852c4.719,0,7.704,2.464,7.704,8.641v10.236
			h-1.388V38.43c0-4.581-1.666-7.427-6.593-7.427c-3.921,0-6.802,2.048-6.802,7.565v9.958h-1.388V29.928z"/>
		<path fill="#158357" d="M60.78,24.583c0-0.659,0.521-1.18,1.18-1.18c0.625,0,1.145,0.521,1.145,1.18
			c0,0.695-0.52,1.215-1.145,1.215C61.3,25.798,60.78,25.278,60.78,24.583z M62.654,29.928v18.6h-1.388v-18.6H62.654z"/>
		<path fill="#158357" d="M67.338,39.193c0.035-5.587,3.887-9.543,9.682-9.543c5.865,0,9.787,3.991,9.787,9.543
			c0,5.655-3.887,9.613-9.752,9.613C71.121,48.807,67.303,44.78,67.338,39.193z M77.055,31.003c-5.344,0-8.225,3.609-8.225,8.225
			c0,4.302,2.742,8.225,8.259,8.225c5.449,0,8.225-3.887,8.225-8.121C85.314,34.647,82.434,31.003,77.055,31.003z"/>
		<path fill="#158357" d="M91.561,29.928h1.388v2.637c0.972-1.7,2.741-2.915,5.17-2.915c0.938,0,1.944,0.278,2.5,0.59v1.457
			c-0.59-0.451-1.632-0.694-2.742-0.694c-2.36,0-4.927,1.874-4.927,5.24v12.284h-1.388V29.928z"/>
		<path fill="#FAAF41" d="M104.365,29.511h4.928v2.464c1.249-2.013,3.366-2.742,5.448-2.742c2.533,0,4.615,1.111,5.83,3.193
			c1.388-2.117,3.505-3.193,6.246-3.193c4.512,0,7.427,2.36,7.427,8.884v10.41h-4.928v-9.23c0-4.581-1.318-5.865-3.782-5.865
			c-3.263,0-3.783,2.568-3.783,5.275v9.82h-4.928v-9.23c0-4.581-1.388-5.865-3.748-5.865c-3.054,0-3.783,2.291-3.783,4.72v10.375
			h-4.928V29.511z"/>
		<path fill="#FAAF41" d="M137.541,38.985c0.033-5.691,4.303-9.752,10.271-9.752c6.04,0,10.378,4.096,10.378,9.752
			c0,5.76-4.304,9.821-10.342,9.821C141.74,48.807,137.506,44.677,137.541,38.985z M147.848,33.606c-2.95,0-5.171,2.29-5.171,5.413
			c0,3.158,2.083,5.414,5.205,5.414c3.054,0,5.171-2.222,5.171-5.31C153.053,35.932,150.832,33.606,147.848,33.606z"/>
		<path fill="#FAAF41" d="M161.625,29.511h4.926v2.395c1.493-1.701,3.887-2.672,6.144-2.672c4.581,0,7.286,2.708,7.286,8.538v10.756
			h-4.926v-9.924c0-3.887-1.771-5.171-4.234-5.171c-3.193,0-4.27,2.291-4.27,4.72v10.375h-4.926V29.511z"/>
		<path fill="#FAAF41" d="M182.515,29.477h2.775l1.285-4.373h3.644v4.373h5.622v4.025h-5.622l-0.036,8.363
			c0,2.324,1.354,2.568,2.257,2.568s2.36-0.208,3.401-0.764v3.955c-1.319,0.834-3.332,1.182-4.686,1.182
			c-3.609,0-5.83-1.805-5.83-5.588l-0.035-9.717h-2.775V29.477z"/>
		<path fill="#FAAF41" d="M199.692,21.564h4.927v10.342c1.423-1.701,3.887-2.672,6.144-2.672c4.58,0,7.286,2.708,7.286,8.538v10.756
			h-4.927v-9.924c0-3.887-1.77-5.171-4.233-5.171c-3.193,0-4.27,2.291-4.27,4.72v10.375h-4.927V21.564z"/>
		<path fill="#FAAF41" d="M227.453,21.564v26.963h-4.928V21.564H227.453z"/>
		<path fill="#FAAF41" d="M249.698,29.511l-6.975,19.016c-1.806,4.894-3.679,6.942-7.185,6.942c-1.596,0-3.365-0.417-3.99-1.007
			v-4.13c0.693,0.486,1.908,0.763,3.193,0.763c1.353,0,2.567-0.312,3.192-2.186L230.3,29.511h5.274l4.615,13.048l4.338-13.048
			H249.698z"/>
	</g>
	<g>
		<rect y="58.053" fill="#11804F" width="250" height="18.432"/>
	</g>
	<g>
		<path fill="#FFFFFF" d="M6.41,69.615c0.701,0.547,1.725,0.757,2.58,0.757c0.884,0,1.417-0.224,1.417-0.883
			c0-0.491-0.266-0.912-2.019-1.486c-1.22-0.435-2.118-1.038-2.118-2.202c0-1.388,1.234-2.033,2.72-2.061
			c0.926-0.016,1.809,0.238,2.413,0.63v1.276c-0.771-0.463-1.655-0.701-2.44-0.701c-0.603,0-1.305,0.155-1.305,0.814
			c0,0.519,0.478,0.868,1.768,1.303c1.613,0.548,2.37,1.165,2.37,2.385c0,1.443-1.136,2.132-2.888,2.132
			c-1.052,0-1.852-0.226-2.496-0.645V69.615z"/>
		<path fill="#FFFFFF" d="M16.24,66.699c0.744,0,1.458,0.139,2.131,0.435v-0.196c0-1.347-0.743-1.978-2.075-1.978
			c-1.038,0-2.076,0.435-2.58,0.911V64.58c0.589-0.504,1.612-0.84,2.748-0.84c2.089,0,3.282,1.009,3.268,3.309v4.418h-1.346v-0.87
			c-0.378,0.477-1.318,0.982-2.665,0.982c-1.486,0-2.664-0.869-2.664-2.37C13.057,67.624,14.36,66.699,16.24,66.699z M16.169,70.499
			c0.954,0,1.71-0.379,2.216-1.052v-1.249c-0.631-0.35-1.291-0.49-1.964-0.49c-1.219,0-1.977,0.562-1.977,1.431
			C14.445,70.12,15.272,70.499,16.169,70.499z"/>
		<path fill="#FFFFFF" d="M28.159,63.852l-3.155,7.615h-1.276l-3.156-7.615h1.458l2.328,5.89l2.356-5.89H28.159z"/>
		<path fill="#FFFFFF" d="M29.35,61.818c0-0.449,0.365-0.814,0.814-0.814s0.813,0.365,0.813,0.814c0,0.463-0.364,0.827-0.813,0.827
			S29.35,62.281,29.35,61.818z M30.836,63.852v7.615H29.49v-7.615H30.836z"/>
		<path fill="#FFFFFF" d="M32.954,63.852H34.3v1.191c0.449-0.742,1.473-1.303,2.651-1.303c1.879,0,3.015,1.051,3.015,3.477v4.25
			h-1.347v-4.039c0-1.697-0.687-2.496-2.131-2.496c-1.431,0-2.188,0.869-2.188,2.412v4.123h-1.346V63.852z"/>
		<path fill="#FFFFFF" d="M45.182,63.74c1.136,0,2.216,0.448,2.805,1.374v-1.263h1.346l0.014,5.707
			c-0.014,3.787-1.753,4.741-4.361,4.741c-1.08,0-1.907-0.196-2.594-0.562v-1.247c0.603,0.321,1.514,0.602,2.594,0.602
			c1.878,0,2.986-0.799,3.001-3.155c-0.617,0.912-1.684,1.347-2.805,1.347c-2.103,0-3.702-1.5-3.702-3.759
			C41.48,65.254,43.079,63.74,45.182,63.74z M45.448,70.078c1.656,0,2.609-1.136,2.609-2.553c0-1.36-0.968-2.565-2.609-2.565
			c-1.612,0-2.552,1.136-2.552,2.565C42.896,68.998,43.835,70.078,45.448,70.078z"/>
		<path fill="#FFFFFF" d="M51.184,69.615c0.701,0.547,1.725,0.757,2.58,0.757c0.884,0,1.417-0.224,1.417-0.883
			c0-0.491-0.267-0.912-2.02-1.486c-1.219-0.435-2.117-1.038-2.117-2.202c0-1.388,1.234-2.033,2.72-2.061
			c0.925-0.016,1.809,0.238,2.412,0.63v1.276c-0.771-0.463-1.654-0.701-2.439-0.701c-0.604,0-1.304,0.155-1.304,0.814
			c0,0.519,0.477,0.868,1.767,1.303c1.612,0.548,2.37,1.165,2.37,2.385c0,1.443-1.136,2.132-2.889,2.132
			c-1.052,0-1.851-0.226-2.496-0.645V69.615z"/>
		<path fill="#FFFFFF" d="M64.912,66.699c0.743,0,1.458,0.139,2.132,0.435v-0.196c0-1.347-0.743-1.978-2.076-1.978
			c-1.038,0-2.075,0.435-2.581,0.911V64.58c0.589-0.504,1.613-0.84,2.749-0.84c2.09,0,3.281,1.009,3.268,3.309v4.418h-1.347v-0.87
			c-0.378,0.477-1.318,0.982-2.665,0.982c-1.486,0-2.665-0.869-2.665-2.37C61.728,67.624,63.032,66.699,64.912,66.699z
			 M64.841,70.499c0.954,0,1.711-0.379,2.216-1.052v-1.249c-0.631-0.35-1.291-0.49-1.963-0.49c-1.22,0-1.978,0.562-1.978,1.431
			C63.117,70.12,63.944,70.499,64.841,70.499z"/>
		<path fill="#FFFFFF" d="M76.129,71.088c-0.658,0.351-1.5,0.491-2.229,0.491c-2.37,0-3.899-1.613-3.885-3.913
			c0.014-2.398,1.711-3.926,4.039-3.926c0.701,0,1.402,0.125,2.075,0.477v1.247c-0.561-0.294-1.191-0.504-1.949-0.504
			c-1.768,0-2.763,1.191-2.749,2.706c0.014,1.473,0.996,2.692,2.749,2.692c0.673,0,1.473-0.225,1.949-0.532V71.088z"/>
		<path fill="#FFFFFF" d="M83.534,71.088c-0.659,0.351-1.501,0.491-2.23,0.491c-2.37,0-3.899-1.613-3.885-3.913
			c0.014-2.398,1.711-3.926,4.039-3.926c0.702,0,1.403,0.125,2.076,0.477v1.247c-0.562-0.294-1.192-0.504-1.95-0.504
			c-1.767,0-2.762,1.191-2.749,2.706c0.014,1.473,0.995,2.692,2.749,2.692c0.673,0,1.472-0.225,1.95-0.532V71.088z"/>
		<path fill="#FFFFFF" d="M84.823,67.652c0.014-2.286,1.655-3.912,4.039-3.912c2.412,0,4.094,1.641,4.094,3.912
			c0,2.299-1.668,3.927-4.081,3.927C86.436,71.579,84.81,69.924,84.823,67.652z M88.876,64.96c-1.626,0-2.636,1.163-2.636,2.706
			c0,1.487,0.954,2.692,2.65,2.692c1.669,0,2.65-1.191,2.65-2.65C91.541,66.137,90.517,64.96,88.876,64.96z"/>
		<path fill="#FFFFFF" d="M94.513,63.852h1.346v3.997c0,1.696,0.701,2.552,2.146,2.552c1.416,0,2.188-0.884,2.188-2.427v-4.122
			h1.346v7.615h-1.346v-1.178c-0.379,0.757-1.389,1.29-2.623,1.29c-1.893,0-3.057-1.248-3.057-3.675V63.852z"/>
		<path fill="#FFFFFF" d="M103.655,63.852h1.346v1.191c0.449-0.742,1.473-1.303,2.65-1.303c1.88,0,3.016,1.051,3.016,3.477v4.25
			h-1.346v-4.039c0-1.697-0.687-2.496-2.132-2.496c-1.43,0-2.188,0.869-2.188,2.412v4.123h-1.346V63.852z"/>
		<path fill="#FFFFFF" d="M111.817,63.852h1.079l0.365-1.683h0.981v1.683h2.384v1.122h-2.384v4.053c0,1.191,0.589,1.332,1.038,1.332
			c0.505,0,1.08-0.168,1.417-0.379v1.136c-0.449,0.31-1.15,0.464-1.711,0.464c-1.164,0-2.076-0.548-2.076-2.188l-0.014-4.418h-1.079
			V63.852z"/>
		<path fill="#FFFFFF" d="M123.932,63.01v0.842h2.034v1.122h-2.034v6.493h-1.346v-6.493h-0.996v-1.122h0.996V62.8
			c0-1.711,1.08-2.258,2.117-2.258c0.575,0,1.095,0.168,1.472,0.435v1.052c-0.238-0.196-0.644-0.393-1.135-0.393
			C124.479,61.636,123.932,61.901,123.932,63.01z"/>
		<path fill="#FFFFFF" d="M126.638,67.652c0.014-2.286,1.654-3.912,4.039-3.912c2.412,0,4.096,1.641,4.096,3.912
			c0,2.299-1.669,3.927-4.082,3.927C128.252,71.579,126.624,69.924,126.638,67.652z M130.69,64.96c-1.626,0-2.637,1.163-2.637,2.706
			c0,1.487,0.955,2.692,2.652,2.692c1.668,0,2.649-1.191,2.649-2.65C133.355,66.137,132.332,64.96,130.69,64.96z"/>
		<path fill="#FFFFFF" d="M136.397,63.852h1.347v0.996c0.435-0.758,1.094-1.107,1.906-1.107c0.421,0,0.814,0.125,1.024,0.252v1.275
			c-0.337-0.225-0.799-0.294-1.164-0.294c-1.094,0-1.767,0.715-1.767,1.864v4.629h-1.347V63.852z"/>
		<path fill="#FFFFFF" d="M145.821,69.615c0.7,0.547,1.725,0.757,2.58,0.757c0.884,0,1.416-0.224,1.416-0.883
			c0-0.491-0.267-0.912-2.02-1.486c-1.221-0.435-2.118-1.038-2.118-2.202c0-1.388,1.234-2.033,2.722-2.061
			c0.926-0.016,1.809,0.238,2.412,0.63v1.276c-0.771-0.463-1.655-0.701-2.441-0.701c-0.602,0-1.303,0.155-1.303,0.814
			c0,0.519,0.477,0.868,1.767,1.303c1.613,0.548,2.37,1.165,2.37,2.385c0,1.443-1.137,2.132-2.89,2.132
			c-1.051,0-1.851-0.226-2.495-0.645V69.615z"/>
		<path fill="#FFFFFF" d="M159.941,68.129h-6.058c0.224,1.57,1.416,2.216,2.805,2.216c1.094,0,2.033-0.394,2.51-0.786v1.291
			c-0.604,0.379-1.374,0.715-2.581,0.715c-2.453,0-4.164-1.431-4.15-3.968c0.016-2.469,1.668-3.856,3.788-3.856
			c1.962,0,3.631,1.191,3.687,3.926V68.129z M153.869,67.105h4.726c-0.195-1.543-1.106-2.146-2.327-2.146
			C154.879,64.96,154.011,65.717,153.869,67.105z"/>
		<path fill="#FFFFFF" d="M161.582,63.852h1.346v1.191c0.449-0.742,1.474-1.303,2.65-1.303c1.881,0,3.017,1.051,3.017,3.477v4.25
			h-1.347v-4.039c0-1.697-0.687-2.496-2.132-2.496c-1.431,0-2.188,0.869-2.188,2.412v4.123h-1.346V63.852z"/>
		<path fill="#FFFFFF" d="M170.485,61.818c0-0.449,0.365-0.814,0.814-0.814c0.448,0,0.813,0.365,0.813,0.814
			c0,0.463-0.365,0.827-0.813,0.827C170.851,62.646,170.485,62.281,170.485,61.818z M171.973,63.852v7.615h-1.346v-7.615H171.973z"
			/>
		<path fill="#FFFFFF" d="M173.655,67.652c0.014-2.286,1.655-3.912,4.038-3.912c2.413,0,4.095,1.641,4.095,3.912
			c0,2.299-1.668,3.927-4.08,3.927C175.268,71.579,173.641,69.924,173.655,67.652z M177.708,64.96c-1.627,0-2.636,1.163-2.636,2.706
			c0,1.487,0.953,2.692,2.649,2.692c1.668,0,2.65-1.191,2.65-2.65C180.372,66.137,179.35,64.96,177.708,64.96z"/>
		<path fill="#FFFFFF" d="M183.415,63.852h1.346v0.996c0.436-0.758,1.095-1.107,1.908-1.107c0.421,0,0.813,0.125,1.023,0.252v1.275
			c-0.336-0.225-0.8-0.294-1.164-0.294c-1.094,0-1.768,0.715-1.768,1.864v4.629h-1.346V63.852z"/>
		<path fill="#FFFFFF" d="M198.798,71.088c-0.659,0.351-1.501,0.491-2.229,0.491c-2.37,0-3.898-1.613-3.886-3.913
			c0.016-2.398,1.712-3.926,4.039-3.926c0.702,0,1.402,0.125,2.076,0.477v1.247c-0.56-0.294-1.191-0.504-1.949-0.504
			c-1.768,0-2.764,1.191-2.748,2.706c0.014,1.473,0.995,2.692,2.748,2.692c0.673,0,1.473-0.225,1.949-0.532V71.088z"/>
		<path fill="#FFFFFF" d="M200.719,61.818c0-0.449,0.364-0.814,0.813-0.814c0.449,0,0.813,0.365,0.813,0.814
			c0,0.463-0.364,0.827-0.813,0.827C201.083,62.646,200.719,62.281,200.719,61.818z M202.206,63.852v7.615h-1.347v-7.615H202.206z"
			/>
		<path fill="#FFFFFF" d="M203.481,63.852h1.08l0.363-1.683h0.982v1.683h2.384v1.122h-2.384v4.053c0,1.191,0.589,1.332,1.037,1.332
			c0.505,0,1.08-0.168,1.417-0.379v1.136c-0.448,0.31-1.15,0.464-1.711,0.464c-1.164,0-2.076-0.548-2.076-2.188l-0.013-4.418h-1.08
			V63.852z"/>
		<path fill="#FFFFFF" d="M209.832,61.818c0-0.449,0.365-0.814,0.814-0.814c0.448,0,0.813,0.365,0.813,0.814
			c0,0.463-0.365,0.827-0.813,0.827C210.197,62.646,209.832,62.281,209.832,61.818z M211.32,63.852v7.615h-1.348v-7.615H211.32z"/>
		<path fill="#FFFFFF" d="M213.045,70.442l3.884-5.469h-3.884v-1.122h5.524v1.011l-3.885,5.469h3.885v1.136h-5.524V70.442z"/>
		<path fill="#FFFFFF" d="M227.108,68.129h-6.058c0.224,1.57,1.416,2.216,2.805,2.216c1.094,0,2.033-0.394,2.51-0.786v1.291
			c-0.604,0.379-1.374,0.715-2.581,0.715c-2.453,0-4.164-1.431-4.15-3.968c0.016-2.469,1.668-3.856,3.788-3.856
			c1.962,0,3.631,1.191,3.687,3.926V68.129z M221.036,67.105h4.726c-0.195-1.543-1.107-2.146-2.327-2.146
			C222.046,64.96,221.177,65.717,221.036,67.105z"/>
		<path fill="#FFFFFF" d="M228.749,63.852h1.346v1.191c0.449-0.742,1.474-1.303,2.65-1.303c1.881,0,3.017,1.051,3.017,3.477v4.25
			h-1.347v-4.039c0-1.697-0.688-2.496-2.132-2.496c-1.431,0-2.188,0.869-2.188,2.412v4.123h-1.346V63.852z"/>
		<path fill="#FFFFFF" d="M237.527,69.615c0.701,0.547,1.726,0.757,2.58,0.757c0.883,0,1.417-0.224,1.417-0.883
			c0-0.491-0.267-0.912-2.021-1.486c-1.22-0.435-2.117-1.038-2.117-2.202c0-1.388,1.234-2.033,2.721-2.061
			c0.925-0.016,1.809,0.238,2.412,0.63v1.276c-0.772-0.463-1.654-0.701-2.44-0.701c-0.604,0-1.303,0.155-1.303,0.814
			c0,0.519,0.477,0.868,1.766,1.303c1.613,0.548,2.37,1.165,2.37,2.385c0,1.443-1.136,2.132-2.889,2.132
			c-1.053,0-1.851-0.226-2.496-0.645V69.615z"/>
	</g>
</g>
</svg>
