<svg xmlns="http://www.w3.org/2000/svg" viewBox="0 0 68 68" style="enable-background:new 0 0 68 68" xml:space="preserve"><path d="M34.6 1020.4c-18.8 0-34.1-15.3-34.1-34.1 0-17.1 12.7-31.6 29.7-33.8 1-.1 2 .3 2.5 1.1.9 1.2.6 2.9-.7 3.8-6.5 4.4-10.4 11.8-10.4 19.6 0 13.1 10.6 23.7 23.7 23.7 6.6 0 13-2.8 17.5-7.8.7-.8 1.8-1.1 2.8-.8 1.4.4 2.2 1.9 1.8 3.4-4.1 14.6-17.6 24.9-32.8 24.9zm-9-62.9c-12.3 3.9-21.1 15.4-21.1 28.8 0 16.6 13.5 30.1 30.1 30.1 11.7 0 22.3-6.9 27.2-17.2-4.8 3.5-10.5 5.5-16.5 5.5-15.3 0-27.7-12.4-27.7-27.7 0-7.4 2.9-14.4 8-19.5zm40.2 38s0 .1 0 0c0 .1 0 0 0 0zm-2.2-1.2c0 .1 0 .1 0 0 0 .1 0 .1 0 0z" style="fill:#000" transform="translate(0 -952.362)"/></svg>