<?xml version="1.0" encoding="utf-8"?>
<!-- Generator: Adobe Illustrator 24.2.3, SVG Export Plug-In . SVG Version: 6.00 Build 0)  -->
<svg version="1.1" id="Layer_1" xmlns="http://www.w3.org/2000/svg" xmlns:xlink="http://www.w3.org/1999/xlink" x="0px" y="0px"
	 width="55px" height="55px" viewBox="0 0 55 55" enable-background="new 0 0 55 55" xml:space="preserve">
<g>
	<g>
		<g>
			<path fill="#333333" d="M4.23,13.84v26.7c0,1.35,0.49,2.69,1.47,3.55c0.98,0.98,2.2,1.47,3.55,1.47h17.52v7.96h-8.33
				c-0.24,0-0.37,0.12-0.49,0.24c-0.12,0.12-0.24,0.24-0.24,0.49c0,0.12,0.12,0.37,0.24,0.49c0.12,0.12,0.24,0.24,0.49,0.24h18.62
				c0.12,0,0.37-0.12,0.49-0.24c0.12-0.12,0.24-0.37,0.24-0.49c0-0.24-0.12-0.37-0.24-0.49c-0.12-0.12-0.24-0.24-0.49-0.24h-8.82
				v-7.96h17.52c1.35,0,2.57-0.49,3.55-1.47c0.98-0.98,1.47-2.2,1.47-3.55v-26.7c0-1.35-0.49-2.69-1.47-3.55
				c-0.98-0.98-2.2-1.47-3.55-1.47h-4.41V4.16c0-1.1-0.49-2.2-1.22-2.94C39.38,0.49,38.28,0,37.18,0H23.34c0,0,0,0-0.12,0l0,0l0,0
				l0,0l0,0l0,0l0,0l0,0l0,0l0,0l0,0l0,0l0,0l0,0l-8.7,8.7h-4.9c-1.35,0-2.57,0.49-3.55,1.47C4.72,11.15,4.23,12.49,4.23,13.84
				 M9.25,10.17h4.41v25.85H5.57V13.84c0-0.98,0.37-1.96,1.1-2.57C7.29,10.53,8.27,10.17,9.25,10.17 M45.75,44.22H9.25
				c-0.98,0-1.96-0.37-2.57-1.1c-0.73-0.73-1.1-1.59-1.1-2.57v-3.18h43.85v3.18c0,0.98-0.37,1.96-1.1,2.57
				C47.71,43.85,46.73,44.22,45.75,44.22 M45.75,10.17c0.98,0,1.96,0.37,2.57,1.1c0.73,0.73,1.1,1.59,1.1,2.57v22.17h-8.08V10.17
				H45.75z M39.99,4.16v31.85H15.01V10.29h4.78c1.1,0,2.2-0.49,2.94-1.22c0.73-0.73,1.22-1.84,1.22-2.94v-4.9h13.11
				c0.73,0,1.47,0.24,1.96,0.86C39.63,2.57,39.99,3.31,39.99,4.16 M15.99,8.82L22.6,2.2V6c0,0.73-0.24,1.47-0.86,1.96
				c-0.49,0.49-1.22,0.86-1.96,0.86H15.99z"/>
		</g>
		<g>
			<path fill="#00A159" d="M32.69,15.03v14.81h-1.9l-6.98-10.05v10.05h-2.43V15.03h1.9l6.98,10.05V15.03H32.69z"/>
		</g>
	</g>
</g>
</svg>
