<svg id="Layer_1" data-name="Layer 1" xmlns="http://www.w3.org/2000/svg" xmlns:xlink="http://www.w3.org/1999/xlink" viewBox="0 0 228.17 182.44"><defs><style>.cls-1{opacity:0.5;}.cls-2{fill:#fbb040;}.cls-3{fill:url(#Áåçûìÿííûé_ãðàäèåíò_17);}.cls-4{fill:#14824f;}.cls-5{fill:#006831;}.cls-6{fill:#4d936e;}.cls-7{fill:url(#Áåçûìÿííûé_ãðàäèåíò_17-2);}</style><linearGradient id="Áåçûìÿííûé_ãðàäèåíò_17" x1="-8289.34" y1="1479.21" x2="-8219.77" y2="1479.21" gradientTransform="matrix(0.78, 0.45, -0.2, 1.04, 6931.98, 2237.33)" gradientUnits="userSpaceOnUse"><stop offset="0" stop-color="#7bdaff"/><stop offset="1" stop-color="#59bdef"/></linearGradient><linearGradient id="Áåçûìÿííûé_ãðàäèåíò_17-2" x1="-6038.15" y1="518.73" x2="-5862.41" y2="518.73" gradientTransform="matrix(-0.78, 0.45, 0.2, 1.04, -4664.05, 2237.33)" xlink:href="#Áåçûìÿííûé_ãðàäèåíò_17"/></defs><title>Artboard 9</title><g class="cls-1"><path class="cls-2" d="M227.8,48.44h0l0-.1,0-.07,0-.07a4.14,4.14,0,0,0-1.65-2l-.2-.12h0L201.57,32,177.28,18h0l-.2-.11a2,2,0,0,0-2-.1l-.05,0-.05,0-3.21,1.84,1.85.79-6.41,34a4.77,4.77,0,0,0,.35,2.72s0,0,0,.07a.25.25,0,0,0,0,.07,4.12,4.12,0,0,0,1.64,2l48.44,28-.45,2.14,3-1.76,0,0a2.5,2.5,0,0,0,1.21-1.82l6.57-34.81A4.75,4.75,0,0,0,227.8,48.44Z"/><path class="cls-3" d="M215.08,89.47l-49-28.28a5.12,5.12,0,0,1-2-5.12l6.48-34.32c.37-2,1.87-2.89,3.35-2L222.9,48a5.14,5.14,0,0,1,2,5.13l-6.47,34.32C218.06,89.42,216.56,90.33,215.08,89.47Z"/><path class="cls-4" d="M222.7,47.89l-24.28-14L190.81,74.2l24.07,15.16a2.23,2.23,0,0,0,3.51-1.66L225,52.88A5.08,5.08,0,0,0,222.7,47.89Z"/><path class="cls-4" d="M174.13,19.83l24.29,14L190.85,74,166.31,61.31a5.07,5.07,0,0,1-2.25-5l6.56-34.81A2.23,2.23,0,0,1,174.13,19.83Z"/><path class="cls-5" d="M164.36,58.93a4.81,4.81,0,0,0,1.95,2.38l48.57,28.05a2.31,2.31,0,0,0,2.37.12l-21.76-40.1Z"/><path class="cls-6" d="M224.65,50.26a4.75,4.75,0,0,0-2-2.37L174.13,19.83a2.29,2.29,0,0,0-2.37-.11l21.76,40.09Z"/></g><path class="cls-2" d="M1,78H1l.1-.25c0-.06.05-.12.07-.17a1.42,1.42,0,0,0,.08-.18,10.53,10.53,0,0,1,4.16-5.1l.5-.29h0L67.21,36.53,128.56,1.1h0l.5-.29a5.05,5.05,0,0,1,5.08-.23l.12.06.12.07,8.1,4.67-4.67,2L154,93.26a12.11,12.11,0,0,1-.88,6.85,1.08,1.08,0,0,1-.08.19.87.87,0,0,1-.07.17,10.51,10.51,0,0,1-4.15,5.1L26.47,176.25l1.12,5.38-7.67-4.44-.12-.07a6.33,6.33,0,0,1-3-4.59L.17,84.58A12.16,12.16,0,0,1,1,78Z"/><path class="cls-7" d="M33.08,181.63l123.7-71.45c3.74-2.16,6-8,5.07-13L145.5,10.53c-.94-5-4.74-7.28-8.48-5.12L13.32,76.86c-3.74,2.16-6,8-5.07,13L24.6,176.5C25.54,181.49,29.33,183.79,33.08,181.63Z"/><path class="cls-4" d="M13.82,76.57,75.17,41.13,94.39,143.05,33.58,181.33c-4,2.33-8,.45-8.86-4.2L8.13,89.18A12.79,12.79,0,0,1,13.82,76.57Z"/><path class="cls-4" d="M136.52,5.7,75.17,41.13l19.1,101.28,62-31.94A12.8,12.8,0,0,0,162,97.86L145.38,9.91C144.5,5.26,140.54,3.38,136.52,5.7Z"/><path class="cls-5" d="M161.19,104.47a12,12,0,0,1-4.91,6L33.58,181.33a5.81,5.81,0,0,1-6,.3l55-101.28Z"/><path class="cls-6" d="M8.91,82.56a12.05,12.05,0,0,1,4.91-6L136.52,5.7a5.84,5.84,0,0,1,6-.3l-55,101.29Z"/></svg>