<?xml version="1.0" encoding="utf-8"?>
<!-- Generator: Adobe Illustrator 26.0.2, SVG Export Plug-In . SVG Version: 6.00 Build 0)  -->
<svg version="1.1" id="Layer_1" xmlns="http://www.w3.org/2000/svg" xmlns:xlink="http://www.w3.org/1999/xlink" x="0px" y="0px"
	 width="250px" height="74.9px" viewBox="0 0 250 74.9" style="enable-background:new 0 0 250 74.9;" xml:space="preserve">
<style type="text/css">
	.st0{fill:#15804F;}
	.st1{fill:#FFFFFF;}
</style>
<g>
	<rect y="56.4" class="st0" width="250" height="18.4"/>
	<g>
		<path class="st0" d="M36.3,0c0.7,0,1.4,0,2,0C44.5,0,50.7,0,57,0c2.7,0,5.5,0.2,8.2,0.4c3.3,0.3,6.2,1.5,8.4,4.1
			C74.7,5.8,75.4,7.4,76,9c0.8,2.4,0.9,4.8,0.5,7.2c-0.7,4.8-3.5,8.3-8.2,10c-1.4,0.5-2.8,0.8-4.2,1.3c0,0.4,0.4,0.5,0.7,0.7
			c1.7,1.1,3.3,2.2,4.5,3.8c1.2,1.5,2.3,3,3.4,4.6c1.5,2.2,2.9,4.6,4.4,6.9c1.2,1.9,2.3,3.7,3.4,5.7c-0.2,0-0.4,0.1-0.6,0.1
			c-3.4,0-6.8,0-10.2,0c-0.8,0-1.2-0.3-1.6-0.9c-2.1-3.2-4.2-6.4-6.4-9.6c-1.5-2.2-3.1-4.5-4.7-6.7c-0.9-1.3-2.1-2.3-3.6-2.8
			c-0.6-0.2-1.1-0.3-1.7-0.4c-1.7-0.1-3.5-0.2-5.4-0.3c-0.1,2.4,0,4.6,0,6.9c0,2.3,0,4.6,0,6.8c0,2.3,0,4.5,0,6.9
			c-3.3,0-6.6,0-9.9,0C36.3,32.8,36.3,16.5,36.3,0z M46.3,20.7c0.2,0,0.3,0.1,0.5,0.1c2.5,0,5.1,0,7.6,0c2.1,0,4.3-0.1,6.5-0.2
			c2-0.1,3.5-0.9,4.7-2.6c0.6-0.9,0.8-2,0.8-3c0.2-3.5-1.5-6.2-5.5-6.4c-2.3-0.2-4.6-0.1-6.9-0.1c-2.3,0-4.7,0-7-0.1
			c-0.2,0-0.4,0-0.6,0.1C46.3,12.5,46.3,16.6,46.3,20.7z"/>
		<path class="st0" d="M115.5,49.2c-0.5,0-0.9,0-1.4,0c-2.3,0-4.7,0-7,0c-0.7,0-1-0.2-1.1-0.8c-0.2-0.8-0.4-1.6-0.7-2.4
			c0-0.2-0.1-0.4-0.3-0.7c-0.3,0.3-0.6,0.5-0.8,0.7c-3.8,3.4-8.2,4.5-13.1,3.7c-2.6-0.4-4.8-1.4-6.5-3.4c-1.5-1.7-2.4-3.8-2.5-6.1
			c0-1.5,0-2.9,0.5-4.4c1-2.7,2.8-4.6,5.5-5.7c2.4-1,4.9-1.4,7.4-2c2.6-0.6,5.2-1.3,7.8-1.9c0.3-0.1,0.6-0.3,0.9-0.4
			c0.2-1.2,0-2.2-0.3-3.3c-0.4-1.3-1.3-2-2.5-2.2c-1.3-0.3-2.6-0.5-4-0.4c-2.5,0.1-4.3,1.1-5.4,3.4c-0.1,0.3-0.3,0.7-0.5,1
			c-1.5-0.2-2.9-0.4-4.4-0.8c-1.4-0.3-2.8-0.2-4.2-0.9c0.7-1.6,1.3-3.2,2.3-4.6c1.7-2.5,4-3.9,6.9-4.7c3.4-0.9,6.9-0.8,10.3-0.5
			c1.5,0.1,2.9,0.3,4.4,0.8c1.7,0.6,3.3,1.4,4.5,2.8c0.8,0.9,1.4,2,1.7,3.2c1,3.6,0.6,7.2,0.7,10.9c0,3.6,0,7.2,0,10.9
			c0,1.7,0.2,3.4,0.9,5c0.3,0.7,0.6,1.4,0.8,2.1C115.4,48.7,115.4,48.9,115.5,49.2z M104.3,32.1c-0.5,0-0.8,0-1.1,0.1
			c-1.2,0.3-2.3,0.7-3.5,1c-1.7,0.5-3.4,0.8-5.2,1.4c-1.4,0.4-2.4,1.3-2.8,2.6c-0.8,2.6,1.1,5.4,3.8,6c1.6,0.3,3.1,0,4.5-0.6
			c1.8-0.8,3.2-2.1,3.8-4C104.5,36.6,104.2,34.4,104.3,32.1z"/>
		<path class="st0" d="M152.6,49.2c-2.4,0-4.7,0-6.9,0c-0.7,0-1.3,0-1.9,0c-0.5,0-0.7-0.2-0.9-0.7c-0.2-0.9-0.5-1.7-0.7-2.6
			c0-0.2-0.1-0.3-0.3-0.6c-0.6,0.5-1.2,1-1.8,1.4c-0.9,0.6-1.7,1.3-2.7,1.8c-2.8,1.3-5.8,1.8-8.9,1.4c-0.9-0.1-1.9-0.4-2.8-0.7
			c-3.4-1.2-5.6-3.5-6.4-7c-0.9-3.8-0.2-7.3,2.8-10.1c1.3-1.2,2.9-2,4.6-2.5c2.7-0.8,5.5-1.3,8.2-1.9c1.8-0.4,3.6-0.9,5.4-1.4
			c0.9-0.3,1-0.4,0.9-1.4c0-0.6-0.2-1.2-0.3-1.8c-0.3-1.6-1.3-2.5-2.8-2.8c-2-0.4-3.9-0.7-5.8,0c-1,0.3-1.9,0.7-2.4,1.6
			c-0.4,0.6-0.9,1.2-1.1,1.9c-0.1,0.5-0.5,0.7-1,0.5c-0.7-0.2-1.5-0.2-2.3-0.4c-1.6-0.3-3.3-0.6-4.9-0.9c-0.2,0-0.3-0.2-0.5-0.2
			c1.3-5.1,4.4-8.2,9-9.4c3.5-0.8,7.2-0.7,10.8-0.5c2.9,0.2,5.6,1.2,7.8,3.1c1.3,1.1,2,2.7,2.3,4.3c0.3,1.4,0.4,2.7,0.4,4.2
			c0,1.2,0.2,2.4,0.2,3.5c0,1.1-0.1,2.3-0.2,3.4c0,0.6,0,1.3,0,1.9c0,1.4,0,2.9,0.1,4.4c0,0.6,0,1.3,0,1.9
			C150.4,42.9,150.9,46.1,152.6,49.2z M141.1,32.1c-0.9,0.3-1.9,0.6-2.7,0.8c-2.2,0.6-4.5,1.1-6.8,1.7c-1.4,0.4-2.5,1.4-2.9,2.8
			c-0.6,2.1,0.6,4.4,2.7,5.4c2,1,4,0.7,5.9-0.3c1.7-0.8,3.2-2.1,3.6-4c0.5-2,0.5-4.1,0.5-6.1C141.3,32.3,141.2,32.2,141.1,32.1z"/>
		<path class="st0" d="M187.3,21.9c-0.7,0.4-6.9,1.7-8.9,1.8c-0.1-0.2-0.3-0.4-0.4-0.7c-0.7-2.2-2.5-3.2-4.7-3.4
			c-1.9-0.2-3.7-0.2-5.5,0.2c-0.7,0.2-1.4,0.5-1.9,0.9c-1.2,1.1-1,2.7,0.5,3.4c1.5,0.7,3.1,1.3,4.7,1.6c3.7,0.9,7.5,1.6,11,3.1
			c1.5,0.7,3,1.4,4.1,2.7c1.3,1.4,2,3,2,4.8c0,0.9,0,1.8,0,2.7c0.1,1.3-0.5,2.5-1,3.6c-1.2,2.3-3,4.1-5.3,5.2
			c-1.6,0.8-3.4,1.3-5.2,1.5c-2.4,0.3-4.8,0.5-7.2,0.2c-2.8-0.3-5.5-0.8-8-2.2c-3.1-1.8-5.2-4.5-6.3-7.9c0-0.2-0.1-0.4-0.1-0.7
			c3.1-0.5,6.2-1,9.4-1.4c0.1,0.3,0.3,0.7,0.5,1.1c0.7,2.4,2.4,3.9,4.8,4.3c2,0.4,3.9,0.3,5.9-0.1c1.2-0.3,2.1-0.8,2.8-1.8
			c1.1-1.5,0.3-3.5-1.3-4c-1.5-0.4-3.1-0.8-4.6-1.2c-3.7-0.9-7.5-1.7-11-3.4c-3.8-1.9-5.6-5.6-5.2-9.7c0.3-2.9,1.7-5.2,4-7
			c1.6-1.3,3.5-2,5.6-2.4c2.9-0.6,5.9-0.5,8.9-0.3c1.6,0.1,3.1,0.4,4.6,0.9c2.8,0.9,5.1,2.6,6.4,5.3C186.4,20,186.9,21,187.3,21.9z"
			/>
		<path class="st0" d="M205.2,0.9c0.3,1.5,0,2.8,0,4.1c0.1,1.4,0,2.7,0,4.1s0,2.7,0,4.2c0.2,0,0.5,0.2,0.7,0.2c1.4,0,2.9,0,4.4,0
			c0.4,0,0.9,0.1,1.4,0.1c0,1.3,0,2.4,0,3.6c0,1.2,0,2.4,0,3.6c-0.3,0-0.5,0.1-0.7,0.1c-1.6,0-3.2,0-4.8,0c-0.3,0-0.7,0.1-1,0.1
			c0,2.3,0,4.5,0,6.8c0,1.9,0,3.7,0,5.6c0,1.2,0,2.4,0,3.5c0,1,0.1,2,0.2,3c0.2,1.3,1,2,2.3,2.1c1.1,0,2.1-0.3,3-0.6
			c0.3-0.1,0.6-0.1,0.8-0.2c0.2,1.7,0.3,3.3,0.5,4.8c0,0.6,0.2,1.2,0.3,1.9c0,0.5-0.2,0.8-0.7,0.9c-3.3,1-6.5,1.6-9.9,0.7
			c-2.1-0.5-4-1.4-5-3.4c-0.7-1.3-0.9-2.6-1-4c-0.1-1.6-0.2-3.3-0.2-4.9c0-5.1,0-10.3,0-15.4c0-0.2,0-0.5,0-0.8c-0.9,0-1.8,0-2.7,0
			c-0.3,0-0.6,0-0.9,0c-0.7,0-0.7-0.2-0.7-0.8c0-1.5,0-3,0.1-4.5c0-0.7,0-1.4,0-2.1c1.3-0.1,2.7,0,4.2-0.1c0-0.3,0.1-0.6,0.1-0.9
			c0-1.8,0-3.6,0-5.5c0-0.6,0.1-0.9,0.7-1.2c2.3-1.3,4.5-2.6,6.8-3.9C203.8,1.8,204.4,1.4,205.2,0.9z"/>
	</g>
	<g>
		<path class="st1" d="M162.2,70.2c-0.7,0-1.3,0-1.9,0c0-0.3,0-0.5,0-0.8c0-1.4,0-2.7,0-4c0-0.2,0-0.4,0-0.6
			c-0.1-0.8-0.7-1.4-1.4-1.5c-0.7-0.1-1.5,0.4-1.7,1.3c-0.1,0.4-0.2,0.8-0.2,1.2c0,1.2,0,2.5,0,3.7c0,0.7,0,0.8-0.8,0.8
			c-0.3,0-0.5,0-0.8,0c0,0-0.1,0-0.3-0.1c0-2.7,0-5.6,0-8.4c0.2,0,0.4,0,0.6,0c0.3,0,0.7,0,1,0c0.1,0.3,0.1,0.6,0.2,1
			c0.8-0.6,1.4-1.3,2.5-1.2s1.7,0.6,2.5,1.6c0.2-0.4,0.4-0.7,0.6-0.9c0.9-0.8,2.1-0.9,3.2-0.4c1,0.4,1.5,1.3,1.5,2.3
			c0.1,2,0,3.9,0,5.8c0,0.1-0.1,0.3-0.2,0.5c-0.6,0-1.1-0.1-1.6-0.1c0-1.3,0-2.5,0-3.7c0-0.6,0-1.2-0.1-1.8c-0.2-1-0.8-1.6-1.6-1.5
			c-0.8,0-1.5,0.8-1.6,1.8c0,0.7,0,1.5,0,2.2C162.2,68.2,162.2,69.1,162.2,70.2z"/>
		<path class="st1" d="M235.6,61.7c0.1,0.3,0.1,0.6,0.2,0.9c1.7-1.7,3.3-1.6,4.9,0.4c0.1-0.3,0.2-0.5,0.4-0.7c0.9-0.9,2-1,3.2-0.7
			c1.1,0.3,1.6,1.2,1.7,2.1c0.1,2.1,0,4.3,0,6.4c-0.6,0-1.2,0-1.8,0c0-0.3,0-0.6,0-0.8c0-1.4,0-2.9,0-4.4c0-0.9-0.6-1.6-1.4-1.8
			c-0.7-0.1-1.4,0.3-1.7,1.2c-0.1,0.4-0.2,0.8-0.2,1.2c0,1.2,0,2.4,0,3.6c0,0.3,0,0.5,0,0.7c-0.6,0.4-1.2,0.2-1.8,0.1
			c0-0.3,0-0.5,0-0.7c0-1.4,0-2.7,0-4.1c0-0.2,0-0.5-0.1-0.7c-0.2-0.8-1-1.4-1.7-1.4c-0.8,0.1-1.5,0.8-1.5,1.7c0,1.4,0,2.9,0,4.4
			c0,0.3,0,0.5,0,0.8c-0.7,0.3-1.3,0.3-1.9,0c0-2.8,0-5.6,0-8.4C234.4,61.7,235,61.7,235.6,61.7z"/>
		<path class="st1" d="M4,58.9c1.9,0,3.7-0.1,5.5,0c1.5,0.1,2.7,1.4,2.8,3.2c0,1,0.1,2-0.6,2.8c-0.8,1-1.8,1.7-3.1,1.7
			c-0.8,0-1.6,0-2.6,0c0,1.2,0,2.4,0,3.6c-0.7,0-1.3,0-2,0C4,66.4,4,62.7,4,58.9z M6,60.7c0,1.4,0,2.7,0,4c0.7,0,1.4,0,2.1,0
			c0.2,0,0.4,0,0.6,0c0.9-0.2,1.7-1.2,1.7-2.1c0-0.9-0.8-1.8-1.7-1.9C7.8,60.7,6.9,60.7,6,60.7z"/>
		<path class="st1" d="M203.4,60.1c-0.3,0.5-0.7,1-0.9,1.4c-0.8-0.4-1.5-0.7-2.2-1c-0.5-0.2-1-0.2-1.5,0c-0.6,0.2-0.9,0.6-1,1.3
			c0,0.6,0.3,1,0.8,1.2c0.5,0.2,1,0.4,1.6,0.6c0.6,0.2,1.3,0.4,1.9,0.7c1.1,0.5,1.7,1.4,1.6,2.7c0,1.4-0.5,2.4-1.7,3
			c-1.1,0.6-2.2,0.7-3.4,0.4c-1.6-0.5-2.4-0.9-3.2-1.8c0.3-0.4,0.7-0.9,1.1-1.4c0.6,0.4,1.1,0.8,1.7,1.1c0.7,0.4,1.4,0.6,2.2,0.4
			c0.8-0.2,1.4-0.7,1.4-1.4c0-0.8-0.5-1.1-1.1-1.4c-0.6-0.2-1.2-0.4-1.8-0.6c-0.3-0.1-0.7-0.2-0.9-0.3c-1.6-0.7-2.2-1.6-2.1-3.2
			c0.1-1.6,1-2.7,2.7-3C199.7,58.5,201.7,58.5,203.4,60.1z"/>
		<path class="st1" d="M131.4,70.2c-0.7,0-1.2,0-1.8,0c0-3.8,0-7.5,0-11.2c0,0,0.1-0.1,0.1-0.1c1.7,0,3.4,0,5.1,0
			c1.1,0,2,0.7,2.5,1.7c1.1,2.3,0.5,5.5-3.1,5.9c-0.8,0.1-1.7,0-2.7,0C131.2,67.8,131.6,68.9,131.4,70.2z M131.5,60.7
			c0,1.4,0,2.7,0,4c0.8,0,1.5,0,2.3,0c0.1,0,0.3,0,0.5,0c1-0.2,1.7-1,1.7-2.1c0-0.9-0.7-1.8-1.6-1.9
			C133.4,60.7,132.5,60.7,131.5,60.7z"/>
		<path class="st1" d="M28.9,61.7c-1.1,1.2-2.1,2.3-3.2,3.5c1.1,1.6,2.1,3.3,3.2,4.9c-1.2,0.5-2.1,0.2-2.7-0.7
			c-0.6-0.9-1.1-1.8-1.6-2.7c-1.6,0.7-1,2.2-1.2,3.5c-0.6,0-1.2,0-1.9,0c0-4,0-7.9,0-11.8c0.6,0,1.2,0,1.9,0c0,1.2,0,2.3,0,3.4
			c0,1.1,0,2.3,0,3.5c0.3-0.2,0.4-0.4,0.6-0.5c0.6-0.7,1.2-1.3,1.6-2C26.3,61.6,27.4,61.4,28.9,61.7z"/>
		<path class="st1" d="M232.1,68.8c-0.6,1.3-2.7,2-4,1.7c-2.2-0.6-3.7-2.7-3.3-5c0.1-0.8,0.4-1.7,0.8-2.4c0.8-1.3,2.1-1.8,3.7-1.6
			c1.6,0.2,2.5,1.2,3,2.6c0.1,0.5,0.2,1,0.3,1.5c0.1,0.9,0,1.1-0.9,1c-1.5,0-3,0-4.6-0.1c-0.1,0-0.2,0-0.4,0.1c0,1,0.5,1.6,1.3,1.9
			c1.1,0.5,2.2,0.2,3.1-0.9C231.5,68.1,231.8,68.5,232.1,68.8z M230.7,65.3c-0.3-1.5-1.2-2.3-2.2-2.2c-1,0.1-1.8,1-1.8,2.2
			C228,65.3,229.3,65.3,230.7,65.3z"/>
		<path class="st1" d="M170.5,66.6c-0.1,1,0.4,1.6,1.1,2c1.2,0.6,2.2,0.3,3.2-0.7c0.4,0.3,0.8,0.7,1.2,1c-1.1,1.3-2.4,2-4,1.7
			c-1.6-0.3-2.8-1.3-3.3-2.9c-0.4-1.3-0.4-2.7,0.2-3.9c0.7-1.4,1.8-2.1,3.4-2.2c1.6,0,2.8,0.7,3.5,2.1c0.4,0.9,0.7,1.9,0.5,3.1
			C174.4,66.7,172.5,66.8,170.5,66.6z M174.5,65.3c-0.2-1.4-1.1-2.2-2.1-2.2c-1,0.1-1.8,1.1-1.8,2.2
			C171.8,65.3,173.1,65.3,174.5,65.3z"/>
		<path class="st1" d="M18.1,65.2c-0.2-1.4-1.2-2.2-2.4-1.9c-0.6,0.1-1.2,0.4-2,0.6c-0.1-0.5-0.3-0.9-0.4-1.4
			c0.1-0.1,0.1-0.2,0.1-0.3c1.5-0.8,3.1-0.8,4.8-0.3c0.6,0.2,1.1,0.7,1.3,1.3c0.2,0.7,0.4,1.4,0.4,2.1c0,1.4,0,2.7,0,4
			c0,0.4,0.1,0.8-0.5,1c-0.6,0.1-1.2-0.1-1.4-0.6c0,0-0.1-0.1,0,0c-0.8,0.3-1.6,0.7-2.4,0.8c-1.7,0.2-3-1-3-2.6
			c0-1.7,1.1-2.9,2.8-2.9C16.3,65,17.2,65.1,18.1,65.2z M16.4,66.3c-0.2,0-0.5,0-0.8,0.1c-0.6,0.1-1.1,0.7-1.2,1.2
			c0,0.6,0.4,1.1,1.1,1.4c0.9,0.3,2.1-0.2,2.6-1.2c0.4-0.9,0.2-1.3-0.8-1.4C17,66.3,16.7,66.3,16.4,66.3z"/>
		<path class="st1" d="M143.4,69.4c-0.3,0.2-0.5,0.4-0.8,0.6c-1.1,0.7-2.7,0.6-3.6-0.3c-0.9-0.8-1.1-2.1-0.6-3.3
			c0.5-1,1.4-1.4,2.4-1.5c0.7,0,1.5,0.1,2.3,0.2c0.1,0,0.3,0,0.5,0c0.2-0.6-0.1-1-0.5-1.4c-0.5-0.5-1.2-0.7-1.9-0.6
			c-0.6,0.1-1.2,0.4-1.9,0.6c-0.2-0.5-0.3-1-0.5-1.5c0.3-0.1,0.6-0.4,0.8-0.4c0.8-0.1,1.7-0.3,2.5-0.3c2.1,0,3.2,1.2,3.3,3.3
			c0,1.3,0,2.6,0,3.9c0,0.3,0.1,0.7,0,1c0,0.2-0.3,0.5-0.4,0.5C144.4,70.2,143.7,70.5,143.4,69.4z M141.6,69c0.9,0,1.8-0.7,2.1-1.6
			c0.1-0.6,0-0.9-0.6-1c-0.5-0.1-1.1-0.1-1.6-0.1c-0.9,0-1.5,0.7-1.5,1.4C140.1,68.5,140.8,69.1,141.6,69z"/>
		<path class="st1" d="M46.6,63.8c-0.2-0.6-0.3-1-0.5-1.6c1.6-0.6,3.2-0.9,4.8-0.3c1.2,0.4,1.9,1.4,1.9,2.7c0,1.9,0,3.7,0,5.5
			c-1.3,0.4-1.6,0.4-2.1-0.6c-0.2,0.2-0.4,0.3-0.6,0.5c-1.1,0.7-2.2,0.7-3.4,0.1c-0.9-0.5-1.4-1.5-1.3-2.6c0.1-1.3,0.9-2.2,2.1-2.4
			c0.8-0.2,1.8,0,2.7,0c0.2,0,0.4,0.1,0.6,0.1c0.1-0.9-0.1-1.4-0.8-1.8c-0.6-0.2-1.1-0.4-1.7-0.2C47.7,63.5,47.2,63.6,46.6,63.8z
			 M49.1,66.3c-0.2,0-0.6,0-0.8,0.1c-0.6,0.1-1.1,0.7-1.1,1.3c0,0.5,0.4,1,0.9,1.3c0.9,0.4,2.1,0,2.6-0.9c0.6-1,0.3-1.5-0.8-1.6
			C49.6,66.3,49.5,66.3,49.1,66.3z"/>
		<path class="st1" d="M107.5,65.2c0.1-1.4-0.9-2.2-2.2-2c-0.6,0.1-1.2,0.3-2,0.6c-0.2-0.5-0.3-1-0.6-1.6c1.6-0.7,3.2-0.9,4.8-0.4
			c0.9,0.3,1.5,1.1,1.7,2.1c0.1,0.6,0.1,1.1,0.1,1.7c0,1.5,0,3,0,4.5c-1.3,0.4-1.5,0.3-2.1-0.6c-0.3,0.2-0.5,0.4-0.8,0.6
			c-1,0.7-2.7,0.6-3.6-0.3c-0.9-0.8-1.1-2.1-0.6-3.3c0.4-0.9,1.3-1.4,2.2-1.5c0.8-0.1,1.7-0.2,2.5,0.2
			C107.2,65.2,107.3,65.2,107.5,65.2z M106,66.3L106,66.3c-0.3,0-0.5,0-0.8,0c-0.7,0.1-1.4,0.7-1.4,1.4c0,0.7,0.7,1.3,1.4,1.4
			c0.8,0.1,1.7-0.4,2.1-1.2c0.5-0.9,0.2-1.5-0.8-1.6C106.4,66.3,106.2,66.3,106,66.3z"/>
		<path class="st1" d="M182.8,70.2c0-1.7,0-3.3,0-4.8c0-0.4,0-0.7-0.1-1.1c-0.2-0.7-0.8-1-1.4-1c-0.7,0-1.3,0.3-1.5,0.9
			c-0.2,0.5-0.3,1.1-0.3,1.6c0,1.4,0,2.8,0,4.2c-0.6,0.4-1.2,0.3-1.8,0c0-2.8,0-5.6,0-8.5c0.6,0,1,0,1.6,0c0.1,0.3,0.2,0.6,0.3,0.9
			c0.1,0,0.3,0,0.4-0.1c0.5-0.6,1.2-0.9,2-1c1.7,0,2.8,0.8,3,2.7c0.2,1.8,0,3.6,0,5.5c0,0.4-0.2,0.7-0.6,0.7
			C183.8,70.2,183.4,70.2,182.8,70.2z"/>
		<path class="st1" d="M83.3,70.2c-0.7,0-1.3,0-1.9,0c0-2.8,0-5.6,0-8.5c0.6,0,1.1,0,1.7,0c0,0.2,0.1,0.5,0.2,0.8
			c0.1,0,0.3,0,0.4-0.1c0.8-1.1,2-1.2,3.1-0.7c1.1,0.4,1.6,1.3,1.7,2.4c0.1,1.1,0.1,2.2,0.1,3.4c0,0.9,0,1.8,0,2.8c-0.6,0-1.2,0-2,0
			c0-1,0-2,0-3c0-0.8,0-1.6,0-2.3c0-0.8-0.7-1.4-1.4-1.5c-0.7-0.1-1.4,0.3-1.8,1c-0.1,0.3-0.2,0.7-0.2,1.1c0,1.3,0,2.5,0,3.8
			C83.3,69.5,83.3,69.8,83.3,70.2z"/>
		<path class="st1" d="M146,61.6c0.7,0,1.3,0,2,0c0.7,2.1,1.4,4.1,2.1,6.1c0.1,0,0.2,0,0.2,0c0.7-2,1.3-4.1,2-6.1c0.7,0,1.3,0,2,0
			c-0.4,1.2-0.8,2.3-1.3,3.4c-0.7,1.8-1.3,3.5-1.9,5.3c-0.1,0.3-0.2,0.7-0.4,0.9c-0.9,1.8-2.6,2.2-4.3,1c0.1-0.4,0.3-0.8,0.5-1.3
			c0.2,0,0.4,0,0.6,0.1c0.5,0.2,1,0.2,1.4-0.2c0.4-0.4,0.2-0.8,0-1.4c-1-2.4-1.9-4.8-2.9-7.3C146.1,62.1,146.1,61.9,146,61.6z"/>
		<path class="st1" d="M210.4,61.6c0.7,0,1.2,0,1.8,0c0,0.2,0,0.5,0,0.7c-1,2.8-2.1,5.6-3,8.4c0,0.2-0.1,0.4-0.2,0.5
			c-0.9,1.9-2.4,2.3-4.3,1.2c0-0.2,0.1-0.5,0.2-0.7c0.1-0.2,0.2-0.4,0.3-0.7c0.3,0.1,0.5,0.1,0.7,0.2c0.5,0.1,0.9,0.1,1.2-0.3
			c0.4-0.4,0.3-0.8,0.1-1.3c-1-2.5-2-5-3-7.6c0-0.1,0-0.3,0-0.5c0.6,0,1.2,0,1.9,0c0.4,1,0.8,2.1,1.2,3.1c0.3,1,0.6,2,1.1,3
			c0.7-0.9,0.7-2.1,1.1-3C209.7,63.7,210,62.7,210.4,61.6z"/>
		<path class="st1" d="M111,61.7c0.6,0,1.1,0,1.6,0c0,0.3,0.1,0.6,0.1,1c0.2-0.1,0.4-0.2,0.5-0.3c0.7-0.9,1.7-1,2.7-0.8
			c0.9,0.2,1.5,0.7,1.9,1.6c0.1,0.5,0.3,0.9,0.3,1.4c0,1.7,0,3.4,0,5c0,0.2,0,0.4-0.1,0.6c-0.6,0-1.1,0-1.7,0c0-0.2,0-0.5,0-0.7
			c0-1.3,0-2.5,0-3.8c0-0.3,0-0.7-0.1-1c-0.2-0.8-0.9-1.4-1.6-1.4c-0.7,0-1.5,0.6-1.7,1.4c-0.1,0.4-0.1,0.9-0.1,1.4
			c0,1.4,0,2.7,0,4.2c-0.6,0-1.1,0-1.8,0C111,67.3,111,64.5,111,61.7z"/>
		<path class="st1" d="M61.4,70.2c-0.6,0-1.2,0-1.8,0c0-1.4,0-2.7,0-4.1c0-0.5,0-0.9-0.1-1.4c-0.1-0.8-0.8-1.5-1.6-1.5
			c-0.8,0-1.5,0.6-1.8,1.4c-0.1,0.3,0,0.6,0,0.9c0,1.5,0,3,0,4.5c-0.7,0.3-0.7,0.3-1.9,0.1c0-2.8,0-5.6,0-8.5c0.6,0,1.1,0,1.6,0
			c0.1,0.3,0.1,0.6,0.2,0.9c0.2,0,0.4-0.1,0.4-0.2c0.5-0.6,1.2-0.9,2-0.9c1.5,0,2.7,0.9,2.8,2.4C61.5,65.9,61.4,68,61.4,70.2z"/>
		<path class="st1" d="M33.5,67.9c0.9,0.4,1.6,0.7,2.3,0.9c0.2,0.1,0.4,0.1,0.7,0c0.5,0,0.9-0.2,1-0.7c0.1-0.6-0.2-0.8-0.7-1
			c-0.7-0.2-1.3-0.4-1.9-0.6c-1.5-0.6-2.1-2.1-1.4-3.5c0.2-0.4,0.6-0.8,1-1c1.3-0.7,3.3-0.4,4.5,0.7c-0.1,0.3-0.2,0.6-0.4,0.9
			c-0.1,0.1-0.2,0.3-0.3,0.5c-0.5-0.2-0.9-0.5-1.4-0.6c-0.4-0.1-0.9-0.2-1.3-0.1c-0.3,0-0.6,0.4-0.7,0.6s0.2,0.6,0.4,0.8
			c0.3,0.2,0.7,0.3,1,0.5c0.6,0.2,1.2,0.4,1.7,0.7c1.5,1,1.5,3.2,0,4.2c-0.8,0.6-1.8,0.7-2.8,0.4c-0.9-0.3-1.8-0.5-2.6-1.3
			C33,68.7,33.2,68.2,33.5,67.9z"/>
		<path class="st1" d="M89.5,69.1c0.3-0.5,0.6-0.9,0.7-1.3c0.8,0.3,1.6,0.7,2.3,0.9c0.3,0.1,0.6,0.1,0.9,0c0.3-0.1,0.7-0.4,0.7-0.7
			c0-0.2-0.2-0.7-0.5-0.8c-0.4-0.2-0.8-0.3-1.3-0.5c-0.4-0.1-0.8-0.3-1.3-0.5c-1-0.5-1.4-1.4-1.3-2.5c0.1-1.1,0.8-1.9,1.9-2.1
			c1.3-0.3,2.6-0.1,3.9,0.8C95.5,63,95.3,63.4,95,64c-0.4-0.2-0.7-0.4-1.1-0.6c-0.5-0.1-1-0.2-1.5-0.3c-0.4,0-0.7,0.2-0.8,0.6
			c-0.1,0.4,0.2,0.7,0.5,0.9c0.3,0.1,0.6,0.2,0.8,0.3c0.6,0.2,1.2,0.5,1.7,0.7c1.7,0.7,1.4,3.7,0,4.3c-0.5,0.2-1,0.5-1.4,0.5
			C91.9,70.5,90.6,70.1,89.5,69.1z"/>
		<path class="st1" d="M217.8,63.9c-0.4-0.2-0.7-0.4-1.1-0.5c-0.5-0.1-1-0.3-1.5-0.2c-0.3,0-0.7,0.4-0.8,0.7
			c-0.1,0.2,0.2,0.6,0.5,0.8c0.2,0.2,0.6,0.3,0.9,0.4c0.6,0.2,1.2,0.5,1.7,0.7c0.8,0.5,1.3,1.2,1.2,2.2c0,1-0.6,1.7-1.5,2.2
			c-1.1,0.6-2.2,0.5-3.4,0c-0.6-0.2-1.2-0.5-1.6-1.1c0.2-0.4,0.5-0.8,0.7-1.3c0.4,0.2,0.7,0.4,1,0.6c0.7,0.4,1.4,0.5,2.1,0.4
			c0.5,0,0.7-0.3,0.8-0.8s-0.2-0.7-0.6-0.8c-0.3-0.1-0.7-0.3-1-0.4c-0.2-0.1-0.5-0.1-0.7-0.2c-1.6-0.6-2.1-1.5-1.8-3.2
			c0.2-1.2,1.4-2,2.8-1.9c0.7,0,1.4,0.2,2.1,0.5c0.8,0.3,0.8,0.5,0.5,1.3C218.1,63.4,217.9,63.6,217.8,63.9z"/>
		<path class="st1" d="M65.5,69.1c0.3-0.4,0.5-0.8,0.8-1.3c0.4,0.3,0.7,0.6,1.1,0.7c0.6,0.2,1.2,0.3,1.8,0.4c0.5,0,0.9-0.3,1-0.7
			c0.1-0.5-0.3-0.7-0.7-0.9c-0.4-0.1-0.8-0.3-1.2-0.4c-0.4-0.1-0.8-0.3-1.3-0.5c-1-0.6-1.4-1.4-1.2-2.7c0.2-1.1,0.8-1.8,2-2
			c1.1-0.2,2.1,0,3,0.4c0.8,0.3,0.8,0.4,0.4,1.3c-0.1,0.2-0.2,0.4-0.3,0.7c-0.4-0.2-0.7-0.4-1.1-0.5c-0.5-0.1-1.1-0.3-1.6-0.2
			c-0.2,0-0.7,0.4-0.7,0.6c0,0.2,0.2,0.6,0.4,0.8c0.2,0.2,0.6,0.3,0.9,0.4c0.6,0.3,1.3,0.5,1.8,0.8c0.8,0.5,1.2,1.2,1.2,2.1
			c-0.1,1-0.6,1.8-1.4,2.2s-1.8,0.5-2.7,0.2C67,70.1,66.2,69.8,65.5,69.1z"/>
		<path class="st1" d="M42.5,63.4c0,1.6,0,3,0,4.4c0,0.7,0.5,1,1.3,0.9c0.2,0,0.4-0.1,0.6-0.2c0.1,0.1,0.2,0.1,0.2,0.2
			c0.1,1.4,0,1.6-1,1.8c-1.2,0.3-2.4-0.3-2.7-1.4c-0.2-0.6-0.2-1.2-0.2-1.8c0-1.3,0-2.5,0-3.8c-0.3-0.1-0.6-0.1-0.9-0.2
			c0-0.5,0-1,0-1.6c0.3,0,0.6-0.1,0.9-0.2c0-0.7,0-1.4,0-2.2c0.3,0,0.4-0.1,0.6-0.1c1.2,0,1.5-0.4,1.3,1.5c0,0.2,0,0.5,0,0.9
			c0.7,0,1.4,0,2.1,0c0,0.7,0,1.2,0,1.8C44,63.4,43.3,63.4,42.5,63.4z"/>
		<path class="st1" d="M186.7,63.5c-0.4-0.1-0.7-0.2-1-0.3c0-0.5,0-1,0-1.5c0.3-0.1,0.6-0.1,1-0.2c0-0.7,0-1.4,0-2.1
			c0.1-0.1,0.1-0.2,0.2-0.2c1.7-0.2,1.7-0.2,1.6,1.5c0,0.7,0,0.8,0.8,0.8c0.4,0,0.9,0,1.4,0c0,0.7,0,1.2,0,1.8c-0.7,0-1.4,0-2.1,0
			c0,0.8,0,1.6,0,2.3c0,0.5,0,1,0,1.4c0,1.3,0.5,1.7,1.7,1.3c0.1,0,0.2,0,0.3,0c0,0,0.1,0.1,0.1,0.2c0.2,1.4-0.2,1.9-1.6,1.9
			c-1.4,0-2.4-0.9-2.4-2.4c0-1.3,0-2.6,0-3.9C186.7,64,186.7,63.8,186.7,63.5z"/>
		<path class="st1" d="M220.2,63.5c-0.4-0.1-0.7-0.2-1-0.3c0-0.5,0-1,0-1.5c0.3-0.1,0.7-0.2,1.1-0.3c0-0.7,0-1.4,0-2.1
			c0.1-0.1,0.2-0.2,0.3-0.2c1.7-0.1,1.7-0.1,1.6,1.6c0,0.1,0,0.3,0,0.5c0,0.1,0,0.1,0.1,0.3c0.6,0,1.3,0,2,0c0,0.6,0,1.2,0,1.8
			c-0.7,0-1.3,0-2.1,0c0,0.4,0,0.7,0,1.1c0,0.9,0,1.9,0,2.8c0,1.4,0.4,1.7,1.7,1.3c0,0,0.1,0,0.2,0c0.6,1.1,0.4,1.6-0.7,2
			c-1.3,0.4-3.2-0.4-3.1-2.3C220.3,66.6,220.2,65.1,220.2,63.5z"/>
		<path class="st1" d="M101.2,68.4c0.6,1.7-0.3,2.1-1.7,2.1c-1.3,0-2.1-0.8-2.1-2.1c0-1.4,0-2.7,0-4c0-0.2,0-0.5,0-0.8
			c-0.3-0.1-0.7-0.1-1-0.2c0-0.5,0-1,0-1.5c0.3-0.1,0.6-0.1,1-0.2c0-0.7,0-1.4,0-2.2c0.6,0,1.1,0,1.8-0.1c0,0.8,0.1,1.6,0.1,2.4
			c0.7,0,1.3,0,2.1,0c0,0.6,0,1.1,0,1.8c-0.7,0-1.3,0-2.1,0c0,1.5,0,3,0,4.4c0,0.6,0.6,1,1.2,0.8C100.7,68.6,100.9,68.5,101.2,68.4z
			"/>
		<path class="st1" d="M122,59.2c0,0.8,0,1.5,0,2.3c0.7,0,1.3,0,1.9,0c0.3,0.6,0.2,1.1,0.1,1.8c-0.7,0-1.3,0-2.1,0
			c0,0.5,0,0.9,0,1.4c0,0.8,0,1.7,0,2.6c0,1.3,0.5,1.5,1.7,1.1c0.1,0,0.2,0,0.3,0c0,0.1,0.1,0.2,0.1,0.3c0.1,1.4-0.6,2-2,1.7
			c-1.4-0.2-2.1-1.1-2-2.4c0.1-1.5,0-3,0-4.6c-0.4-0.1-0.7-0.1-1-0.2c0-0.5,0-1,0-1.6c0.3,0,0.6-0.1,1-0.2c0-0.7,0-1.4,0-2.2
			C120.8,59.2,121.3,59.2,122,59.2z"/>
		<path class="st1" d="M77.6,58.9c0.6,0,1.1,0,1.7,0c0,3.8,0,7.5,0,11.4c-0.5,0-1,0-1.5,0C77.5,69.5,77.3,61.6,77.6,58.9z"/>
		<path class="st1" d="M31.6,70.3c-0.6,0-1.2,0-1.7-0.1c0-2.9,0-5.6,0-8.5c0.6,0,1.1,0,1.7,0C31.6,64.5,31.6,67.3,31.6,70.3z"/>
		<path class="st1" d="M63,58.9c0.7,0,1.3,0,2,0c0,1,0.1,2-0.1,3c-0.2,0.9-0.9,1.3-1.6,1.5c-0.3,0.1-0.6,0.1-0.7-0.3
			c-0.1-0.3-0.1-0.6,0.3-0.7c0.5-0.2,1-0.5,1-1.2c-0.3-0.1-0.5-0.2-0.8-0.3C63,60.2,63,59.6,63,58.9z"/>
		<path class="st1" d="M29.8,58.4c0.7,0,1.3,0,1.9,0c0,0.6,0,1.2,0,1.8c-0.7,0-1.2,0-1.9,0C29.8,59.7,29.8,59.1,29.8,58.4z"/>
	</g>
</g>
</svg>
