<?xml version="1.0" encoding="utf-8"?>
<!-- Generator: Adobe Illustrator 16.0.0, SVG Export Plug-In . SVG Version: 6.00 Build 0)  -->
<!DOCTYPE svg PUBLIC "-//W3C//DTD SVG 1.1//EN" "http://www.w3.org/Graphics/SVG/1.1/DTD/svg11.dtd">
<svg version="1.1" id="Layer_1" xmlns="http://www.w3.org/2000/svg" xmlns:xlink="http://www.w3.org/1999/xlink" x="0px" y="0px"
	 width="250px" height="80px" viewBox="0 0 250 80" enable-background="new 0 0 250 80" xml:space="preserve">
<g>
	<g>
		<path d="M50.784,18.969h-8.265l-1.453,4.083h-1.573l6.36-17.066h1.433l6.621,17.066h-1.598L50.784,18.969z M50.266,17.63
			l-3.709-9.886l-3.545,9.886H50.266z"/>
		<path d="M66.043,21.691v1.362h-9.716V5.962h1.454v15.729L66.043,21.691L66.043,21.691z"/>
		<path d="M89.169,5.986v17.065h-1.478v-8.076h-10.05v8.075h-1.433V5.986h1.433v7.674h10.049V5.986H89.169z"/>
		<path d="M97.551,15.142c1.499,0,2.912,0.327,4.175,1.032v-0.586c0-2.817-1.432-4.059-4.013-4.059c-1.83,0-3.52,0.75-4.248,1.526
			v-1.454c0.939-0.796,2.56-1.363,4.394-1.363c3.145,0,5.281,1.501,5.281,5.262l-0.027,7.556h-1.362v-1.76
			c-0.822,1.104-2.678,1.948-4.835,1.948c-2.722,0-4.577-1.5-4.577-3.965C92.34,16.692,94.43,15.142,97.551,15.142z M97.364,22.02
			c1.948,0,3.407-0.776,4.393-2.184v-2.393c-1.27-0.823-2.677-1.126-4.132-1.126c-2.373,0-3.826,1.079-3.826,2.862
			C93.795,21.223,95.438,22.02,97.364,22.02z"/>
		<path d="M113.376,23.237c-2.09,0-4.321-1.031-5.164-2.98v2.794h-1.387V5h1.387v8.169c0.776-1.901,3.077-2.934,5.144-2.934
			c3.354,0,6.196,2.321,6.196,6.479C119.548,20.943,116.778,23.237,113.376,23.237z M113.212,11.524
			c-3.098,0-5.024,2.208-5.024,5.211c0,2.888,1.83,5.21,5.046,5.21c3.051,0,4.859-2.112,4.859-5.144
			C118.092,13.59,116.218,11.524,113.212,11.524z"/>
		<path d="M122.295,6.879c0-0.564,0.447-0.986,0.987-0.986c0.539,0,0.985,0.421,0.985,0.986c0,0.565-0.446,1.013-0.985,1.013
			C122.743,7.888,122.295,7.44,122.295,6.879z M123.985,10.425v12.627H122.6V10.425H123.985z"/>
		<path d="M134.294,23.237c-2.092,0-4.322-1.031-5.163-2.98v2.794h-1.388V5h1.388v8.169c0.775-1.901,3.074-2.934,5.143-2.934
			c3.354,0,6.194,2.321,6.194,6.479C140.467,20.943,137.699,23.237,134.294,23.237z M134.128,11.524
			c-3.099,0-5.022,2.208-5.022,5.211c0,2.888,1.829,5.21,5.045,5.21c3.052,0,4.861-2.112,4.861-5.144
			C139.014,13.59,137.132,11.524,134.128,11.524z"/>
	</g>
	<g>
		<g>
			<path fill="#1A8357" d="M39.619,36.093h2.862v5.434c2.001-3.504,5.647-6.007,10.655-6.007c1.931,0,4.004,0.573,5.147,1.215v3.005
				c-1.213-0.931-3.359-1.43-5.647-1.43c-4.865,0-10.154,3.86-10.154,10.799v25.313H39.62L39.619,36.093L39.619,36.093z"/>
			<path fill="#1A8357" d="M100.328,56.33H66.215c0.646,10.586,8.223,15.73,17.447,15.73c5.361,0,10.441-2.073,12.872-4.074v3.216
				c-3.216,1.93-7.222,3.645-12.729,3.645c-12.158,0-20.809-7.219-20.738-19.949c0.073-12.3,8.439-19.378,18.878-19.378
				c9.724,0,18.092,6.081,18.377,18.952v1.858L100.328,56.33L100.328,56.33z M66.144,53.682h31.179
				C96.677,43.1,90.174,38.311,82.022,38.311C72.508,38.31,66.575,44.247,66.144,53.682z"/>
			<path fill="#1A8357" d="M110.119,36.093h2.861v7.366c1.429-4.362,6.938-7.938,12.872-7.938c6.079,0,11.087,3.074,13.227,9.939
				c1.5-5.362,6.365-9.939,13.8-9.939c8.367,0,14.517,5.577,14.517,18.307v20.595h-2.861V54.113c0-9.436-3.432-15.803-11.94-15.803
				c-7.937,0-12.373,5.865-12.373,15.516v20.596h-2.861V54.113c0-9.436-3.432-15.803-11.797-15.803
				c-6.653,0-12.586,4.221-12.586,15.587v20.524h-2.863V36.093H110.119z"/>
			<path fill="#1A8357" d="M178.119,25.082c0-1.358,1.076-2.434,2.432-2.434c1.285,0,2.36,1.074,2.36,2.434
				c0,1.429-1.071,2.502-2.36,2.502C179.19,27.584,178.119,26.508,178.119,25.082z M181.981,36.093v38.329h-2.863V36.093H181.981z"
				/>
			<path fill="#1A8357" d="M188.628,36.093h5.362l0.931-8.008h1.931v8.008h12.73v2.647h-12.73v24.814
				c0,7.651,3.288,8.654,6.15,8.654c3.432,0,6.221-1.43,7.506-2.43v3.003c-1.859,1.358-4.648,2.218-7.722,2.218
				c-4.003,0-8.796-1.571-8.796-10.727V38.738h-5.362V36.093L188.628,36.093z"/>
		</g>
	</g>
</g>
</svg>
