<?xml version="1.0" encoding="utf-8"?>
<!-- Generator: Adobe Illustrator 25.2.1, SVG Export Plug-In . SVG Version: 6.00 Build 0)  -->
<svg version="1.1" id="Layer_1" xmlns="http://www.w3.org/2000/svg" xmlns:xlink="http://www.w3.org/1999/xlink" x="0px" y="0px"
	 width="22px" height="22px" viewBox="0 0 22 22" style="enable-background:new 0 0 22 22;" xml:space="preserve">
<style type="text/css">
	.st0{fill:#A1A1A1;}
	.st1{fill:#00A25A;}
	.st2{fill-rule:evenodd;clip-rule:evenodd;fill:#00A25A;}
</style>
<g>
	<path class="st1" d="M14.6,15.6l-0.2,0.2c-1.6,1.3-3.6,2-5.6,2C4,17.7,0,13.7,0,8.9S4,0,8.9,0s8.9,4,8.9,8.9c0,2-0.7,4-2,5.6
		l-0.2,0.2l6.4,6.5L21.2,22L14.6,15.6z M8.9,1.3c-4.2,0-7.6,3.4-7.6,7.6s3.4,7.6,7.6,7.6c4.2,0,7.6-3.4,7.6-7.6S13,1.3,8.9,1.3z"/>
</g>
</svg>
