<?xml version="1.0" encoding="utf-8"?>
<!-- Generator: Adobe Illustrator 25.2.1, SVG Export Plug-In . SVG Version: 6.00 Build 0)  -->
<svg version="1.1" id="Layer_1" xmlns="http://www.w3.org/2000/svg" xmlns:xlink="http://www.w3.org/1999/xlink" x="0px" y="0px"
	 width="16px" height="22px" viewBox="0 0 16 22" enable-background="new 0 0 16 22" xml:space="preserve">
<g>
	<g>
		<path fill="#333333" d="M8,20.2c-0.26,0-0.52-0.08-0.74-0.23l-3.92-2.64c-1.81-1.24-2.9-3.29-2.89-5.48V5.2
			c0-0.74,0.62-1.36,1.36-1.33c1.14,0,2.29-0.27,3.3-0.78l2.3-1.15c0.37-0.19,0.82-0.19,1.2,0l2.29,1.15
			c1.02,0.51,2.17,0.78,3.32,0.78c0.01,0,0.01,0,0.02,0h0c0.73,0,1.33,0.6,1.33,1.33v6.64c0,2.19-1.08,4.24-2.89,5.48l-3.92,2.64
			C8.52,20.12,8.26,20.2,8,20.2z M1.77,4.87c-0.18,0-0.33,0.15-0.33,0.33v6.64c0,1.86,0.92,3.6,2.46,4.65l3.92,2.64
			c0.12,0.08,0.26,0.08,0.37,0l3.92-2.64c1.54-1.05,2.45-2.79,2.45-4.65V5.2c0-0.19-0.17-0.33-0.35-0.33c-1.3,0-2.6-0.31-3.76-0.88
			L8.15,2.84c-0.09-0.05-0.21-0.05-0.3,0l-2.3,1.15C4.39,4.57,3.09,4.87,1.8,4.87C1.79,4.87,1.78,4.87,1.77,4.87z M8,15.18
			c-2.32,0-4.21-1.89-4.21-4.21S5.68,6.76,8,6.76c2.32,0,4.21,1.89,4.21,4.21S10.32,15.18,8,15.18z M8,7.76
			c-1.77,0-3.21,1.44-3.21,3.21c0,1.77,1.44,3.21,3.21,3.21c1.77,0,3.21-1.44,3.21-3.21C11.21,9.2,9.77,7.76,8,7.76z"/>
	</g>
	<g transform="translate(0,-952.36218)">
		<g>
			<path fill="#333333" d="M9.72,961.4l-0.38,0.38l-2.03,2.03l-0.7-0.56l-0.42-0.34l-0.67,0.84l0.42,0.34l1.08,0.86l0.38,0.3
				l0.34-0.34l2.37-2.37l0.38-0.38L9.72,961.4z"/>
		</g>
	</g>
</g>
</svg>
